solid Tisch2
facet normal 1.0 0.0 0.0
  outer loop
    vertex 30.0 14.999999999999995 0.0
    vertex 30.0 0.0 1.5
    vertex 30.0 0.0 0.0
  endloop
endfacet
facet normal 1.0 0.0 0.0
  outer loop
    vertex 30.0 0.0 1.5
    vertex 30.0 14.999999999999995 0.0
    vertex 30.0 14.999999999999995 1.5
  endloop
endfacet
facet normal -0.2588190451025174 0.9659258262890692 -1.8621821851937865e-18
  outer loop
    vertex 15.595283803735802 5.278370599535144 15.0
    vertex 16.150000000000002 5.508141571295788 11.000000000000005
    vertex 15.595283803735802 5.278370599535144 11.000000000000005
  endloop
endfacet
facet normal -0.4999999999999988 0.8660254037844394 -1.8621821851925485e-18
  outer loop
    vertex 16.150000000000002 5.508141571295788 11.000000000000005
    vertex 15.595283803735802 5.278370599535144 15.0
    vertex 16.150000000000002 5.508141571295788 15.0
  endloop
endfacet
facet normal -0.8660254037844395 0.4999999999999984 -1.342166175381901e-18
  outer loop
    vertex 16.99185842870421 6.35 15.0
    vertex 16.62634559672906 5.873654403270939 11.000000000000005
    vertex 16.62634559672906 5.873654403270939 15.0
  endloop
endfacet
facet normal -0.7071067811865486 0.7071067811865465 -1.3421661753818871e-18
  outer loop
    vertex 16.62634559672906 5.873654403270939 11.000000000000005
    vertex 16.99185842870421 6.35 15.0
    vertex 16.99185842870421 6.35 11.000000000000005
  endloop
endfacet
facet normal 1.0 0.0 0.0
  outer loop
    vertex 12.700000000000003 7.499999999999997 11.000000000000005
    vertex 12.778370599535144 6.904716196264197 15.0
    vertex 12.778370599535144 6.904716196264197 11.000000000000005
  endloop
endfacet
facet normal 0.9659258262890678 0.2588190451025225 8.437209296194826e-19
  outer loop
    vertex 12.778370599535144 6.904716196264197 15.0
    vertex 12.700000000000003 7.499999999999997 11.000000000000005
    vertex 12.700000000000003 7.499999999999997 15.0
  endloop
endfacet
facet normal 0.0 0.0 -1.0
  outer loop
    vertex 30.0 14.999999999999995 0.0
    vertex 0.0 0.0 0.0
    vertex 0.0 14.999999999999995 0.0
  endloop
endfacet
facet normal 0.0 0.0 -1.0
  outer loop
    vertex 0.0 0.0 0.0
    vertex 30.0 14.999999999999995 0.0
    vertex 30.0 0.0 0.0
  endloop
endfacet
facet normal -0.9659258262890686 0.2588190451025192 2.315712789761248e-31
  outer loop
    vertex 17.221629400464856 6.904716196264203 15.0
    vertex 16.99185842870421 6.35 11.000000000000005
    vertex 16.99185842870421 6.35 15.0
  endloop
endfacet
facet normal -0.8660254037844395 0.4999999999999984 -1.342166175381901e-18
  outer loop
    vertex 16.99185842870421 6.35 11.000000000000005
    vertex 17.221629400464856 6.904716196264203 15.0
    vertex 17.221629400464856 6.904716196264203 11.000000000000005
  endloop
endfacet
facet normal 0.9659258262890678 0.2588190451025225 8.437209296194826e-19
  outer loop
    vertex 12.778370599535144 6.904716196264197 11.000000000000005
    vertex 13.008141571295795 6.35 15.0
    vertex 13.008141571295795 6.35 11.000000000000005
  endloop
endfacet
facet normal 0.8660254037844384 0.5000000000000003 -9.054240847084195e-19
  outer loop
    vertex 13.008141571295795 6.35 15.0
    vertex 12.778370599535144 6.904716196264197 11.000000000000005
    vertex 12.778370599535144 6.904716196264197 15.0
  endloop
endfacet
facet normal -0.4999999999999988 0.8660254037844394 -1.8621821851925485e-18
  outer loop
    vertex 16.150000000000002 5.508141571295788 15.0
    vertex 16.62634559672906 5.873654403270939 11.000000000000005
    vertex 16.150000000000002 5.508141571295788 11.000000000000005
  endloop
endfacet
facet normal -0.7071067811865486 0.7071067811865465 -1.3421661753818871e-18
  outer loop
    vertex 16.62634559672906 5.873654403270939 11.000000000000005
    vertex 16.150000000000002 5.508141571295788 15.0
    vertex 16.62634559672906 5.873654403270939 15.0
  endloop
endfacet
facet normal 0.0 0.0 1.0
  outer loop
    vertex 0.0 0.0 1.5
    vertex 10.19167388793148 2.6916738879314726 1.5
    vertex 0.0 14.999999999999995 1.5
  endloop
endfacet
facet normal 0.0 0.0 1.0
  outer loop
    vertex 10.19167388793148 2.6916738879314726 1.5
    vertex 0.0 0.0 1.5
    vertex 11.600000000000005 1.6110272542658146 1.5
  endloop
endfacet
facet normal 0.0 0.0 1.0
  outer loop
    vertex 11.600000000000005 1.6110272542658146 1.5
    vertex 0.0 0.0 1.5
    vertex 13.240030493302863 0.9317043812343369 1.5
  endloop
endfacet
facet normal 0.0 0.0 1.0
  outer loop
    vertex 13.240030493302863 0.9317043812343369 1.5
    vertex 0.0 0.0 1.5
    vertex 15.0 0.6999999999999987 1.5
  endloop
endfacet
facet normal 0.0 0.0 1.0
  outer loop
    vertex 15.0 0.6999999999999987 1.5
    vertex 0.0 0.0 1.5
    vertex 30.0 0.0 1.5
  endloop
endfacet
facet normal 0.0 0.0 1.0
  outer loop
    vertex 0.0 14.999999999999995 1.5
    vertex 10.19167388793148 2.6916738879314726 1.5
    vertex 9.11102725426582 4.0999999999999925 1.5
  endloop
endfacet
facet normal 0.0 0.0 1.0
  outer loop
    vertex 0.0 14.999999999999995 1.5
    vertex 9.11102725426582 4.0999999999999925 1.5
    vertex 8.431704381234338 5.740030493302851 1.5
  endloop
endfacet
facet normal 0.0 0.0 1.0
  outer loop
    vertex 0.0 14.999999999999995 1.5
    vertex 8.431704381234338 5.740030493302851 1.5
    vertex 8.200000000000001 7.499999999999997 1.5
  endloop
endfacet
facet normal 0.0 0.0 1.0
  outer loop
    vertex 8.431704381234338 5.740030493302851 1.5
    vertex 9.11102725426582 4.0999999999999925 1.5
    vertex 8.95471968881685 4.477359844408425 1.5
  endloop
endfacet
facet normal 0.0 0.0 1.0
  outer loop
    vertex 15.0 0.6999999999999987 1.5
    vertex 30.0 0.0 1.5
    vertex 16.759969506697146 0.9317043812343369 1.5
  endloop
endfacet
facet normal 0.0 0.0 1.0
  outer loop
    vertex 16.759969506697146 0.9317043812343369 1.5
    vertex 30.0 0.0 1.5
    vertex 18.400000000000002 1.6110272542658202 1.5
  endloop
endfacet
facet normal 0.0 0.0 1.0
  outer loop
    vertex 18.400000000000002 1.6110272542658202 1.5
    vertex 30.0 0.0 1.5
    vertex 19.808326112068524 2.6916738879314783 1.5
  endloop
endfacet
facet normal 0.0 0.0 1.0
  outer loop
    vertex 19.808326112068524 2.6916738879314783 1.5
    vertex 30.0 0.0 1.5
    vertex 20.888972745734183 4.099999999999998 1.5
  endloop
endfacet
facet normal 0.0 0.0 1.0
  outer loop
    vertex 20.888972745734183 4.099999999999998 1.5
    vertex 30.0 0.0 1.5
    vertex 21.045280311183152 4.4773598444084195 1.5
  endloop
endfacet
facet normal 0.0 0.0 1.0
  outer loop
    vertex 21.045280311183152 4.4773598444084195 1.5
    vertex 30.0 0.0 1.5
    vertex 21.568295618765664 5.740030493302862 1.5
  endloop
endfacet
facet normal 0.0 0.0 1.0
  outer loop
    vertex 21.568295618765664 5.740030493302862 1.5
    vertex 30.0 0.0 1.5
    vertex 21.8 7.499999999999997 1.5
  endloop
endfacet
facet normal 0.0 0.0 1.0
  outer loop
    vertex 0.0 14.999999999999995 1.5
    vertex 15.0 14.299999999999997 1.5
    vertex 30.0 14.999999999999995 1.5
  endloop
endfacet
facet normal 0.0 0.0 1.0
  outer loop
    vertex 15.0 14.299999999999997 1.5
    vertex 0.0 14.999999999999995 1.5
    vertex 13.240030493302859 14.068295618765658 1.5
  endloop
endfacet
facet normal 0.0 0.0 1.0
  outer loop
    vertex 13.240030493302859 14.068295618765658 1.5
    vertex 0.0 14.999999999999995 1.5
    vertex 11.600000000000001 13.388972745734181 1.5
  endloop
endfacet
facet normal 0.0 0.0 1.0
  outer loop
    vertex 11.600000000000001 13.388972745734181 1.5
    vertex 0.0 14.999999999999995 1.5
    vertex 10.19167388793148 12.308326112068517 1.5
  endloop
endfacet
facet normal 0.0 0.0 1.0
  outer loop
    vertex 10.19167388793148 12.308326112068517 1.5
    vertex 0.0 14.999999999999995 1.5
    vertex 9.111027254265817 10.899999999999997 1.5
  endloop
endfacet
facet normal 0.0 0.0 1.0
  outer loop
    vertex 9.111027254265817 10.899999999999997 1.5
    vertex 0.0 14.999999999999995 1.5
    vertex 8.954719688816846 10.522640155591576 1.5
  endloop
endfacet
facet normal 0.0 0.0 1.0
  outer loop
    vertex 8.954719688816846 10.522640155591576 1.5
    vertex 0.0 14.999999999999995 1.5
    vertex 8.431704381234336 9.25996950669714 1.5
  endloop
endfacet
facet normal 0.0 0.0 1.0
  outer loop
    vertex 8.431704381234336 9.25996950669714 1.5
    vertex 0.0 14.999999999999995 1.5
    vertex 8.200000000000001 7.499999999999997 1.5
  endloop
endfacet
facet normal 0.0 0.0 1.0
  outer loop
    vertex 30.0 14.999999999999995 1.5
    vertex 15.0 14.299999999999997 1.5
    vertex 16.759969506697143 14.068295618765658 1.5
  endloop
endfacet
facet normal 0.0 0.0 1.0
  outer loop
    vertex 30.0 14.999999999999995 1.5
    vertex 16.759969506697143 14.068295618765658 1.5
    vertex 18.4 13.388972745734181 1.5
  endloop
endfacet
facet normal 0.0 0.0 1.0
  outer loop
    vertex 30.0 14.999999999999995 1.5
    vertex 18.4 13.388972745734181 1.5
    vertex 19.808326112068524 12.308326112068523 1.5
  endloop
endfacet
facet normal 0.0 0.0 1.0
  outer loop
    vertex 30.0 14.999999999999995 1.5
    vertex 19.808326112068524 12.308326112068523 1.5
    vertex 20.88897274573418 10.899999999999997 1.5
  endloop
endfacet
facet normal 0.0 0.0 1.0
  outer loop
    vertex 30.0 14.999999999999995 1.5
    vertex 20.88897274573418 10.899999999999997 1.5
    vertex 21.045280311183152 10.52264015559157 1.5
  endloop
endfacet
facet normal 0.0 0.0 1.0
  outer loop
    vertex 30.0 14.999999999999995 1.5
    vertex 21.045280311183152 10.52264015559157 1.5
    vertex 21.56829561876566 9.25996950669714 1.5
  endloop
endfacet
facet normal 0.0 0.0 1.0
  outer loop
    vertex 30.0 14.999999999999995 1.5
    vertex 21.56829561876566 9.25996950669714 1.5
    vertex 21.8 7.499999999999997 1.5
  endloop
endfacet
facet normal 0.0 0.0 1.0
  outer loop
    vertex 30.0 14.999999999999995 1.5
    vertex 21.8 7.499999999999997 1.5
    vertex 30.0 0.0 1.5
  endloop
endfacet
facet normal 0.8660254037844384 0.5000000000000003 -9.054240847084195e-19
  outer loop
    vertex 13.008141571295795 6.35 11.000000000000005
    vertex 13.373654403270942 5.873654403270939 15.0
    vertex 13.373654403270942 5.873654403270939 11.000000000000005
  endloop
endfacet
facet normal 0.7071067811865489 0.7071067811865462 -1.74914501432744e-18
  outer loop
    vertex 13.373654403270942 5.873654403270939 15.0
    vertex 13.008141571295795 6.35 11.000000000000005
    vertex 13.008141571295795 6.35 15.0
  endloop
endfacet
facet normal 0.8660254037844386 -0.5000000000000001 2.1858871050015406e-18
  outer loop
    vertex 13.008141571295791 8.649999999999995 11.000000000000005
    vertex 12.778370599535144 8.095283803735798 15.0
    vertex 12.778370599535144 8.095283803735798 11.000000000000005
  endloop
endfacet
facet normal 0.9659258262890684 -0.25881904510252035 8.437209296193427e-19
  outer loop
    vertex 12.778370599535144 8.095283803735798 15.0
    vertex 13.008141571295791 8.649999999999995 11.000000000000005
    vertex 13.008141571295791 8.649999999999995 15.0
  endloop
endfacet
facet normal -0.9330613240606757 0.2504073973340848 0.25824929990710266
  outer loop
    vertex 8.431704381234336 9.25996950669714 1.5
    vertex 8.200000000000001 7.499999999999997 1.5
    vertex 11.8 7.499999999999997 15.0
  endloop
endfacet
facet normal -0.9667811992788208 2.051127380999524e-15 0.2556053847652768
  outer loop
    vertex 11.8 7.499999999999997 15.0
    vertex 8.431704381234338 5.740030493302851 1.5
    vertex 11.880230681018165 6.787933011339788 15.0
  endloop
endfacet
facet normal -0.8935842559335742 0.3691785526123685 0.25537105129336307
  outer loop
    vertex 8.954719688816846 10.522640155591576 1.5
    vertex 11.880230681018165 8.212066988660201 15.0
    vertex 12.116899622712259 8.888427965176183 15.0
  endloop
endfacet
facet normal 0.9914448613738107 -0.13052619222005038 -1.297464770863667e-31
  outer loop
    vertex 12.739185299767573 7.797641901867897 11.000000000000005
    vertex 12.700000000000003 7.499999999999997 15.0
    vertex 12.700000000000003 7.499999999999997 11.000000000000005
  endloop
endfacet
facet normal 1.0 0.0 0.0
  outer loop
    vertex 12.700000000000003 7.499999999999997 15.0
    vertex 12.739185299767573 7.797641901867897 11.000000000000005
    vertex 12.778370599535144 8.095283803735798 15.0
  endloop
endfacet
facet normal 0.9659258262890684 -0.25881904510252035 8.437209296193427e-19
  outer loop
    vertex 12.778370599535144 8.095283803735798 15.0
    vertex 12.739185299767573 7.797641901867897 11.000000000000005
    vertex 12.778370599535144 8.095283803735798 11.000000000000005
  endloop
endfacet
facet normal 0.0 -1.0 0.0
  outer loop
    vertex 30.0 0.0 1.5
    vertex 0.0 0.0 0.0
    vertex 30.0 0.0 0.0
  endloop
endfacet
facet normal 0.0 -1.0 0.0
  outer loop
    vertex 0.0 0.0 0.0
    vertex 30.0 0.0 1.5
    vertex 0.0 0.0 1.5
  endloop
endfacet
facet normal 0.7071067811865489 0.7071067811865462 -1.74914501432744e-18
  outer loop
    vertex 13.373654403270942 5.873654403270939 15.0
    vertex 13.850000000000003 5.508141571295788 11.000000000000005
    vertex 13.373654403270942 5.873654403270939 11.000000000000005
  endloop
endfacet
facet normal 0.49999999999999745 0.86602540378444 -1.7474032595341216e-19
  outer loop
    vertex 13.850000000000003 5.508141571295788 11.000000000000005
    vertex 13.373654403270942 5.873654403270939 15.0
    vertex 13.850000000000003 5.508141571295788 15.0
  endloop
endfacet
facet normal 0.0 1.0 0.0
  outer loop
    vertex 0.0 14.999999999999995 1.5
    vertex 30.0 14.999999999999995 0.0
    vertex 0.0 14.999999999999995 0.0
  endloop
endfacet
facet normal 0.0 1.0 0.0
  outer loop
    vertex 30.0 14.999999999999995 0.0
    vertex 0.0 14.999999999999995 1.5
    vertex 30.0 14.999999999999995 1.5
  endloop
endfacet
facet normal -0.8660254037844384 -0.5000000000000003 2.5928659439472526e-18
  outer loop
    vertex 16.99185842870421 8.649999999999995 15.0
    vertex 17.221629400464856 8.095283803735798 11.000000000000005
    vertex 17.221629400464856 8.095283803735798 15.0
  endloop
endfacet
facet normal -0.9659258262890678 -0.2588190451025225 8.437209296194826e-19
  outer loop
    vertex 17.221629400464856 8.095283803735798 11.000000000000005
    vertex 16.99185842870421 8.649999999999995 15.0
    vertex 16.99185842870421 8.649999999999995 11.000000000000005
  endloop
endfacet
facet normal 3.0297773645199475e-16 1.0 -1.0267428839173372e-30
  outer loop
    vertex 15.0 5.200000000000002 15.0
    vertex 15.595283803735802 5.278370599535144 11.000000000000005
    vertex 15.0 5.200000000000002 11.000000000000005
  endloop
endfacet
facet normal -0.2588190451025174 0.9659258262890692 -1.8621821851937865e-18
  outer loop
    vertex 15.595283803735802 5.278370599535144 11.000000000000005
    vertex 15.0 5.200000000000002 15.0
    vertex 15.595283803735802 5.278370599535144 15.0
  endloop
endfacet
facet normal 0.0 -1.0 9.285933431754179e-31
  outer loop
    vertex 15.0 9.799999999999994 15.0
    vertex 14.404716196264204 9.72162940046485 11.000000000000005
    vertex 15.0 9.799999999999994 11.000000000000005
  endloop
endfacet
facet normal 0.2588190451025177 -0.9659258262890691 -1.7474032595284844e-19
  outer loop
    vertex 14.404716196264204 9.72162940046485 11.000000000000005
    vertex 15.0 9.799999999999994 15.0
    vertex 14.404716196264204 9.72162940046485 15.0
  endloop
endfacet
facet normal -0.49999999999999745 -0.86602540378444 -1.7474032595341216e-19
  outer loop
    vertex 16.15 9.491858428704207 15.0
    vertex 15.595283803735798 9.72162940046485 11.000000000000005
    vertex 16.15 9.491858428704207 11.000000000000005
  endloop
endfacet
facet normal -0.2588190451025177 -0.9659258262890691 -1.7474032595384246e-19
  outer loop
    vertex 15.595283803735798 9.72162940046485 11.000000000000005
    vertex 16.15 9.491858428704207 15.0
    vertex 15.595283803735798 9.72162940046485 15.0
  endloop
endfacet
facet normal -1.0 0.0 0.0
  outer loop
    vertex 0.0 14.999999999999995 1.5
    vertex 0.0 0.0 0.0
    vertex 0.0 0.0 1.5
  endloop
endfacet
facet normal -1.0 0.0 0.0
  outer loop
    vertex 0.0 0.0 0.0
    vertex 0.0 14.999999999999995 1.5
    vertex 0.0 14.999999999999995 0.0
  endloop
endfacet
facet normal -0.2588190451025177 -0.9659258262890691 -1.7474032595384246e-19
  outer loop
    vertex 15.595283803735798 9.72162940046485 15.0
    vertex 15.0 9.799999999999994 11.000000000000005
    vertex 15.595283803735798 9.72162940046485 11.000000000000005
  endloop
endfacet
facet normal 0.0 -1.0 9.285933431754179e-31
  outer loop
    vertex 15.0 9.799999999999994 11.000000000000005
    vertex 15.595283803735798 9.72162940046485 15.0
    vertex 15.0 9.799999999999994 15.0
  endloop
endfacet
facet normal 0.49999999999999745 -0.86602540378444 -1.747403259542076e-19
  outer loop
    vertex 13.850000000000003 9.491858428704207 15.0
    vertex 13.373654403270942 9.126345596729056 11.000000000000005
    vertex 13.850000000000003 9.491858428704207 11.000000000000005
  endloop
endfacet
facet normal 0.7071067811865475 -0.7071067811865475 1.3421661753817348e-18
  outer loop
    vertex 13.373654403270942 9.126345596729056 11.000000000000005
    vertex 13.850000000000003 9.491858428704207 15.0
    vertex 13.373654403270942 9.126345596729056 15.0
  endloop
endfacet
facet normal -1.0 5.881332531126956e-16 6.543302716127932e-32
  outer loop
    vertex 17.3 7.499999999999997 15.0
    vertex 17.221629400464856 6.904716196264203 11.000000000000005
    vertex 17.221629400464856 6.904716196264203 15.0
  endloop
endfacet
facet normal -0.9659258262890686 0.2588190451025192 2.315712789761248e-31
  outer loop
    vertex 17.221629400464856 6.904716196264203 11.000000000000005
    vertex 17.3 7.499999999999997 15.0
    vertex 17.3 7.499999999999997 11.000000000000005
  endloop
endfacet
facet normal 0.49999999999999745 0.86602540378444 -1.7474032595341216e-19
  outer loop
    vertex 13.850000000000003 5.508141571295788 15.0
    vertex 14.404716196264204 5.278370599535144 11.000000000000005
    vertex 13.850000000000003 5.508141571295788 11.000000000000005
  endloop
endfacet
facet normal 0.2588190451025177 0.9659258262890691 -1.7474032595384246e-19
  outer loop
    vertex 14.404716196264204 5.278370599535144 11.000000000000005
    vertex 13.850000000000003 5.508141571295788 15.0
    vertex 14.404716196264204 5.278370599535144 15.0
  endloop
endfacet
facet normal 0.7071067811865475 -0.7071067811865475 1.3421661753817348e-18
  outer loop
    vertex 13.373654403270942 9.126345596729056 11.000000000000005
    vertex 13.008141571295791 8.649999999999995 15.0
    vertex 13.008141571295791 8.649999999999995 11.000000000000005
  endloop
endfacet
facet normal 0.8660254037844386 -0.5000000000000001 2.1858871050015406e-18
  outer loop
    vertex 13.008141571295791 8.649999999999995 15.0
    vertex 13.373654403270942 9.126345596729056 11.000000000000005
    vertex 13.373654403270942 9.126345596729056 15.0
  endloop
endfacet
facet normal 0.2588190451025177 0.9659258262890691 -1.7474032595384246e-19
  outer loop
    vertex 14.404716196264204 5.278370599535144 15.0
    vertex 15.0 5.200000000000002 11.000000000000005
    vertex 14.404716196264204 5.278370599535144 11.000000000000005
  endloop
endfacet
facet normal 3.0297773645199475e-16 1.0 -1.0267428839173372e-30
  outer loop
    vertex 15.0 5.200000000000002 11.000000000000005
    vertex 14.404716196264204 5.278370599535144 15.0
    vertex 15.0 5.200000000000002 15.0
  endloop
endfacet
facet normal -0.9659258262890678 -0.2588190451025225 8.437209296194826e-19
  outer loop
    vertex 17.221629400464856 8.095283803735798 15.0
    vertex 17.3 7.499999999999997 11.000000000000005
    vertex 17.3 7.499999999999997 15.0
  endloop
endfacet
facet normal -1.0 5.881332531126956e-16 6.543302716127932e-32
  outer loop
    vertex 17.3 7.499999999999997 11.000000000000005
    vertex 17.221629400464856 8.095283803735798 15.0
    vertex 17.260814700232427 7.797641901867897 11.000000000000005
  endloop
endfacet
facet normal -0.9914448613738107 -0.13052619222005038 1.297464770863667e-31
  outer loop
    vertex 17.260814700232427 7.797641901867897 11.000000000000005
    vertex 17.221629400464856 8.095283803735798 15.0
    vertex 17.221629400464856 8.095283803735798 11.000000000000005
  endloop
endfacet
facet normal 0.2588190451025177 -0.9659258262890691 -1.7474032595284844e-19
  outer loop
    vertex 14.404716196264204 9.72162940046485 15.0
    vertex 13.850000000000003 9.491858428704207 11.000000000000005
    vertex 14.404716196264204 9.72162940046485 11.000000000000005
  endloop
endfacet
facet normal 0.49999999999999745 -0.86602540378444 -1.747403259542076e-19
  outer loop
    vertex 13.850000000000003 9.491858428704207 11.000000000000005
    vertex 14.404716196264204 9.72162940046485 15.0
    vertex 13.850000000000003 9.491858428704207 15.0
  endloop
endfacet
facet normal -0.9662349396012463 -2.821298480603437e-16 0.2576626505603323
  outer loop
    vertex 8.200000000000001 7.499999999999997 1.5
    vertex 8.431704381234338 5.740030493302851 1.5
    vertex 11.8 7.499999999999997 15.0
  endloop
endfacet
facet normal -0.7071067811865489 -0.7071067811865462 1.7491450143282353e-18
  outer loop
    vertex 16.62634559672906 9.126345596729056 15.0
    vertex 16.99185842870421 8.649999999999995 11.000000000000005
    vertex 16.99185842870421 8.649999999999995 15.0
  endloop
endfacet
facet normal -0.8660254037844384 -0.5000000000000003 2.5928659439472526e-18
  outer loop
    vertex 16.99185842870421 8.649999999999995 11.000000000000005
    vertex 16.62634559672906 9.126345596729056 15.0
    vertex 16.62634559672906 9.126345596729056 11.000000000000005
  endloop
endfacet
facet normal -0.7071067811865489 -0.7071067811865462 1.7491450143282353e-18
  outer loop
    vertex 16.62634559672906 9.126345596729056 15.0
    vertex 16.15 9.491858428704207 11.000000000000005
    vertex 16.62634559672906 9.126345596729056 11.000000000000005
  endloop
endfacet
facet normal -0.49999999999999745 -0.86602540378444 -1.7474032595341216e-19
  outer loop
    vertex 16.15 9.491858428704207 11.000000000000005
    vertex 16.62634559672906 9.126345596729056 15.0
    vertex 16.15 9.491858428704207 15.0
  endloop
endfacet
facet normal -0.9330613240606757 0.2504073973340848 0.25824929990710266
  outer loop
    vertex 8.431704381234336 9.25996950669714 1.5
    vertex 11.8 7.499999999999997 15.0
    vertex 11.880230681018165 8.212066988660201 15.0
  endloop
endfacet
facet normal 0.000747480875742988 -0.9665083245574451 0.2566341751082678
  outer loop
    vertex 15.0 4.299999999999998 15.0
    vertex 15.0 0.6999999999999987 1.5
    vertex 16.759969506697146 0.9317043812343369 1.5
  endloop
endfacet
facet normal 0.8701043652725128 -0.4203755608506474 0.2572990116056054
  outer loop
    vertex 17.88310037728774 6.111572034823813 15.0
    vertex 21.045280311183152 4.4773598444084195 1.5
    vertex 21.568295618765664 5.740030493302862 1.5
  endloop
endfacet
facet normal 0.4209750891105648 -0.871536691730346 0.2514035984549062
  outer loop
    vertex 16.388427965176188 4.616899622712255 15.0
    vertex 19.808326112068524 2.6916738879314783 1.5
    vertex 16.99516736594795 4.998139256102304 15.0
  endloop
endfacet
facet normal -0.8715743156902056 -0.4174461981609151 0.257093142402025
  outer loop
    vertex 12.11689962271226 6.111572034823813 15.0
    vertex 9.11102725426582 4.0999999999999925 1.5
    vertex 12.498139256102306 5.504832634052049 15.0
  endloop
endfacet
facet normal -0.8715743156902056 -0.4174461981609151 0.257093142402025
  outer loop
    vertex 12.11689962271226 6.111572034823813 15.0
    vertex 8.95471968881685 4.477359844408425 1.5
    vertex 9.11102725426582 4.0999999999999925 1.5
  endloop
endfacet
facet normal 0.6050578059888885 -0.7566010588079953 0.24791105102946256
  outer loop
    vertex 16.99516736594795 4.998139256102304 15.0
    vertex 19.808326112068524 2.6916738879314783 1.5
    vertex 20.888972745734183 4.099999999999998 1.5
  endloop
endfacet
facet normal -0.7549868196107085 -0.6019425738059309 0.2601154360163941
  outer loop
    vertex 12.498139256102306 5.504832634052049 15.0
    vertex 10.19167388793148 2.6916738879314726 1.5
    vertex 13.004832634052054 4.998139256102304 15.0
  endloop
endfacet
facet normal -0.7549868196107085 -0.6019425738059309 0.2601154360163941
  outer loop
    vertex 12.498139256102306 5.504832634052049 15.0
    vertex 9.11102725426582 4.0999999999999925 1.5
    vertex 10.19167388793148 2.6916738879314726 1.5
  endloop
endfacet
facet normal -0.41872261124570437 -0.8702371336318492 0.25953555841117815
  outer loop
    vertex 13.611572034823816 4.616899622712255 15.0
    vertex 11.600000000000005 1.6110272542658146 1.5
    vertex 13.240030493302863 0.9317043812343369 1.5
  endloop
endfacet
facet normal 0.0 0.0 1.0
  outer loop
    vertex 11.880230681018165 6.787933011339788 15.0
    vertex 11.880230681018165 8.212066988660201 15.0
    vertex 11.8 7.499999999999997 15.0
  endloop
endfacet
facet normal 0.0 0.0 1.0
  outer loop
    vertex 11.880230681018165 8.212066988660201 15.0
    vertex 11.880230681018165 6.787933011339788 15.0
    vertex 12.11689962271226 6.111572034823813 15.0
  endloop
endfacet
facet normal 0.0 0.0 1.0
  outer loop
    vertex 11.880230681018165 8.212066988660201 15.0
    vertex 12.11689962271226 6.111572034823813 15.0
    vertex 12.116899622712259 8.888427965176183 15.0
  endloop
endfacet
facet normal 0.0 0.0 1.0
  outer loop
    vertex 12.116899622712259 8.888427965176183 15.0
    vertex 12.11689962271226 6.111572034823813 15.0
    vertex 12.498139256102306 9.495167365947946 15.0
  endloop
endfacet
facet normal 0.0 0.0 1.0
  outer loop
    vertex 12.498139256102306 9.495167365947946 15.0
    vertex 12.11689962271226 6.111572034823813 15.0
    vertex 12.498139256102306 5.504832634052049 15.0
  endloop
endfacet
facet normal 0.0 0.0 1.0
  outer loop
    vertex 12.498139256102306 9.495167365947946 15.0
    vertex 12.498139256102306 5.504832634052049 15.0
    vertex 12.700000000000003 7.499999999999997 15.0
  endloop
endfacet
facet normal 0.0 0.0 1.0
  outer loop
    vertex 12.700000000000003 7.499999999999997 15.0
    vertex 12.498139256102306 5.504832634052049 15.0
    vertex 13.004832634052054 4.998139256102304 15.0
  endloop
endfacet
facet normal 0.0 0.0 1.0
  outer loop
    vertex 12.700000000000003 7.499999999999997 15.0
    vertex 13.004832634052054 4.998139256102304 15.0
    vertex 12.778370599535144 6.904716196264197 15.0
  endloop
endfacet
facet normal 0.0 0.0 1.0
  outer loop
    vertex 12.778370599535144 6.904716196264197 15.0
    vertex 13.004832634052054 4.998139256102304 15.0
    vertex 13.008141571295795 6.35 15.0
  endloop
endfacet
facet normal 0.0 0.0 1.0
  outer loop
    vertex 13.008141571295795 6.35 15.0
    vertex 13.004832634052054 4.998139256102304 15.0
    vertex 13.611572034823816 4.616899622712255 15.0
  endloop
endfacet
facet normal 0.0 0.0 1.0
  outer loop
    vertex 13.008141571295795 6.35 15.0
    vertex 13.611572034823816 4.616899622712255 15.0
    vertex 13.373654403270942 5.873654403270939 15.0
  endloop
endfacet
facet normal 0.0 0.0 1.0
  outer loop
    vertex 13.373654403270942 5.873654403270939 15.0
    vertex 13.611572034823816 4.616899622712255 15.0
    vertex 13.850000000000003 5.508141571295788 15.0
  endloop
endfacet
facet normal 0.0 0.0 1.0
  outer loop
    vertex 13.850000000000003 5.508141571295788 15.0
    vertex 13.611572034823816 4.616899622712255 15.0
    vertex 14.287933011339794 4.38023068101816 15.0
  endloop
endfacet
facet normal 0.0 0.0 1.0
  outer loop
    vertex 13.850000000000003 5.508141571295788 15.0
    vertex 14.287933011339794 4.38023068101816 15.0
    vertex 14.404716196264204 5.278370599535144 15.0
  endloop
endfacet
facet normal 0.0 0.0 1.0
  outer loop
    vertex 14.404716196264204 5.278370599535144 15.0
    vertex 14.287933011339794 4.38023068101816 15.0
    vertex 15.0 4.299999999999998 15.0
  endloop
endfacet
facet normal 0.0 0.0 1.0
  outer loop
    vertex 14.404716196264204 5.278370599535144 15.0
    vertex 15.0 4.299999999999998 15.0
    vertex 15.0 5.200000000000002 15.0
  endloop
endfacet
facet normal 0.0 0.0 1.0
  outer loop
    vertex 15.0 5.200000000000002 15.0
    vertex 15.0 4.299999999999998 15.0
    vertex 15.712066988660206 4.38023068101816 15.0
  endloop
endfacet
facet normal 0.0 0.0 1.0
  outer loop
    vertex 15.0 5.200000000000002 15.0
    vertex 15.712066988660206 4.38023068101816 15.0
    vertex 15.595283803735802 5.278370599535144 15.0
  endloop
endfacet
facet normal 0.0 0.0 1.0
  outer loop
    vertex 15.595283803735802 5.278370599535144 15.0
    vertex 15.712066988660206 4.38023068101816 15.0
    vertex 16.150000000000002 5.508141571295788 15.0
  endloop
endfacet
facet normal 0.0 0.0 1.0
  outer loop
    vertex 16.150000000000002 5.508141571295788 15.0
    vertex 15.712066988660206 4.38023068101816 15.0
    vertex 16.388427965176188 4.616899622712255 15.0
  endloop
endfacet
facet normal 0.0 0.0 1.0
  outer loop
    vertex 16.150000000000002 5.508141571295788 15.0
    vertex 16.388427965176188 4.616899622712255 15.0
    vertex 16.62634559672906 5.873654403270939 15.0
  endloop
endfacet
facet normal 0.0 0.0 1.0
  outer loop
    vertex 16.62634559672906 5.873654403270939 15.0
    vertex 16.388427965176188 4.616899622712255 15.0
    vertex 16.99516736594795 4.998139256102304 15.0
  endloop
endfacet
facet normal 0.0 0.0 1.0
  outer loop
    vertex 16.62634559672906 5.873654403270939 15.0
    vertex 16.99516736594795 4.998139256102304 15.0
    vertex 16.99185842870421 6.35 15.0
  endloop
endfacet
facet normal 0.0 0.0 1.0
  outer loop
    vertex 16.99185842870421 6.35 15.0
    vertex 16.99516736594795 4.998139256102304 15.0
    vertex 17.221629400464856 6.904716196264203 15.0
  endloop
endfacet
facet normal 0.0 0.0 1.0
  outer loop
    vertex 17.221629400464856 6.904716196264203 15.0
    vertex 16.99516736594795 4.998139256102304 15.0
    vertex 17.501860743897698 5.504832634052049 15.0
  endloop
endfacet
facet normal 0.0 0.0 1.0
  outer loop
    vertex 17.221629400464856 6.904716196264203 15.0
    vertex 17.501860743897698 5.504832634052049 15.0
    vertex 17.3 7.499999999999997 15.0
  endloop
endfacet
facet normal 0.0 0.0 1.0
  outer loop
    vertex 12.700000000000003 7.499999999999997 15.0
    vertex 13.004832634052052 10.00186074389769 15.0
    vertex 12.498139256102306 9.495167365947946 15.0
  endloop
endfacet
facet normal 0.0 0.0 1.0
  outer loop
    vertex 13.004832634052052 10.00186074389769 15.0
    vertex 12.700000000000003 7.499999999999997 15.0
    vertex 12.778370599535144 8.095283803735798 15.0
  endloop
endfacet
facet normal 0.0 0.0 1.0
  outer loop
    vertex 13.004832634052052 10.00186074389769 15.0
    vertex 12.778370599535144 8.095283803735798 15.0
    vertex 13.008141571295791 8.649999999999995 15.0
  endloop
endfacet
facet normal 0.0 0.0 1.0
  outer loop
    vertex 13.004832634052052 10.00186074389769 15.0
    vertex 13.008141571295791 8.649999999999995 15.0
    vertex 13.611572034823816 10.38310037728774 15.0
  endloop
endfacet
facet normal 0.0 0.0 1.0
  outer loop
    vertex 13.611572034823816 10.38310037728774 15.0
    vertex 13.008141571295791 8.649999999999995 15.0
    vertex 13.373654403270942 9.126345596729056 15.0
  endloop
endfacet
facet normal 0.0 0.0 1.0
  outer loop
    vertex 13.611572034823816 10.38310037728774 15.0
    vertex 13.373654403270942 9.126345596729056 15.0
    vertex 13.850000000000003 9.491858428704207 15.0
  endloop
endfacet
facet normal 0.0 0.0 1.0
  outer loop
    vertex 13.611572034823816 10.38310037728774 15.0
    vertex 13.850000000000003 9.491858428704207 15.0
    vertex 14.287933011339794 10.619769318981835 15.0
  endloop
endfacet
facet normal 0.0 0.0 1.0
  outer loop
    vertex 14.287933011339794 10.619769318981835 15.0
    vertex 13.850000000000003 9.491858428704207 15.0
    vertex 14.404716196264204 9.72162940046485 15.0
  endloop
endfacet
facet normal 0.0 0.0 1.0
  outer loop
    vertex 14.287933011339794 10.619769318981835 15.0
    vertex 14.404716196264204 9.72162940046485 15.0
    vertex 15.0 10.699999999999998 15.0
  endloop
endfacet
facet normal 0.0 0.0 1.0
  outer loop
    vertex 15.0 10.699999999999998 15.0
    vertex 14.404716196264204 9.72162940046485 15.0
    vertex 15.0 9.799999999999994 15.0
  endloop
endfacet
facet normal 0.0 0.0 1.0
  outer loop
    vertex 15.0 10.699999999999998 15.0
    vertex 15.0 9.799999999999994 15.0
    vertex 15.595283803735798 9.72162940046485 15.0
  endloop
endfacet
facet normal 0.0 0.0 1.0
  outer loop
    vertex 15.0 10.699999999999998 15.0
    vertex 15.595283803735798 9.72162940046485 15.0
    vertex 15.712066988660206 10.619769318981835 15.0
  endloop
endfacet
facet normal 0.0 0.0 1.0
  outer loop
    vertex 15.712066988660206 10.619769318981835 15.0
    vertex 15.595283803735798 9.72162940046485 15.0
    vertex 16.15 9.491858428704207 15.0
  endloop
endfacet
facet normal 0.0 0.0 1.0
  outer loop
    vertex 15.712066988660206 10.619769318981835 15.0
    vertex 16.15 9.491858428704207 15.0
    vertex 16.388427965176184 10.38310037728774 15.0
  endloop
endfacet
facet normal 0.0 0.0 1.0
  outer loop
    vertex 16.388427965176184 10.38310037728774 15.0
    vertex 16.15 9.491858428704207 15.0
    vertex 16.62634559672906 9.126345596729056 15.0
  endloop
endfacet
facet normal 0.0 0.0 1.0
  outer loop
    vertex 16.388427965176184 10.38310037728774 15.0
    vertex 16.62634559672906 9.126345596729056 15.0
    vertex 16.995167365947946 10.00186074389769 15.0
  endloop
endfacet
facet normal 0.0 0.0 1.0
  outer loop
    vertex 16.995167365947946 10.00186074389769 15.0
    vertex 16.62634559672906 9.126345596729056 15.0
    vertex 16.99185842870421 8.649999999999995 15.0
  endloop
endfacet
facet normal 0.0 0.0 1.0
  outer loop
    vertex 16.995167365947946 10.00186074389769 15.0
    vertex 16.99185842870421 8.649999999999995 15.0
    vertex 17.221629400464856 8.095283803735798 15.0
  endloop
endfacet
facet normal 0.0 0.0 1.0
  outer loop
    vertex 16.995167365947946 10.00186074389769 15.0
    vertex 17.221629400464856 8.095283803735798 15.0
    vertex 17.501860743897698 9.495167365947946 15.0
  endloop
endfacet
facet normal 0.0 0.0 1.0
  outer loop
    vertex 17.501860743897698 9.495167365947946 15.0
    vertex 17.221629400464856 8.095283803735798 15.0
    vertex 17.3 7.499999999999997 15.0
  endloop
endfacet
facet normal 0.0 0.0 1.0
  outer loop
    vertex 17.501860743897698 9.495167365947946 15.0
    vertex 17.3 7.499999999999997 15.0
    vertex 17.501860743897698 5.504832634052049 15.0
  endloop
endfacet
facet normal 0.0 0.0 1.0
  outer loop
    vertex 17.501860743897698 9.495167365947946 15.0
    vertex 17.501860743897698 5.504832634052049 15.0
    vertex 17.88310037728774 6.111572034823813 15.0
  endloop
endfacet
facet normal 0.0 0.0 1.0
  outer loop
    vertex 17.501860743897698 9.495167365947946 15.0
    vertex 17.88310037728774 6.111572034823813 15.0
    vertex 17.88310037728774 8.888427965176183 15.0
  endloop
endfacet
facet normal 0.0 0.0 1.0
  outer loop
    vertex 17.88310037728774 8.888427965176183 15.0
    vertex 17.88310037728774 6.111572034823813 15.0
    vertex 18.119769318981835 6.787933011339794 15.0
  endloop
endfacet
facet normal 0.0 0.0 1.0
  outer loop
    vertex 17.88310037728774 8.888427965176183 15.0
    vertex 18.119769318981835 6.787933011339794 15.0
    vertex 18.119769318981835 8.212066988660206 15.0
  endloop
endfacet
facet normal 0.0 0.0 1.0
  outer loop
    vertex 18.119769318981835 8.212066988660206 15.0
    vertex 18.119769318981835 6.787933011339794 15.0
    vertex 18.2 7.499999999999997 15.0
  endloop
endfacet
facet normal -0.9426110632548474 -0.21559366003125355 0.2549583440170063
  outer loop
    vertex 11.880230681018165 6.787933011339788 15.0
    vertex 8.95471968881685 4.477359844408425 1.5
    vertex 12.11689962271226 6.111572034823813 15.0
  endloop
endfacet
facet normal 0.7547228345015211 0.6064768027306573 0.25015861134805906
  outer loop
    vertex 17.501860743897698 9.495167365947946 15.0
    vertex 20.88897274573418 10.899999999999997 1.5
    vertex 16.995167365947946 10.00186074389769 15.0
  endloop
endfacet
facet normal 0.42097508911057 0.8715366917303432 0.2514035984549069
  outer loop
    vertex 16.388427965176184 10.38310037728774 15.0
    vertex 19.808326112068524 12.308326112068523 1.5
    vertex 18.4 13.388972745734181 1.5
  endloop
endfacet
facet normal 0.8358602784679651 0.48181596654599057 0.2630417633396049
  outer loop
    vertex 20.88897274573418 10.899999999999997 1.5
    vertex 17.501860743897698 9.495167365947946 15.0
    vertex 21.045280311183152 10.52264015559157 1.5
  endloop
endfacet
facet normal 0.9419436856549845 -0.21443937378732078 0.2583754013531582
  outer loop
    vertex 18.119769318981835 6.787933011339794 15.0
    vertex 17.88310037728774 6.111572034823813 15.0
    vertex 21.568295618765664 5.740030493302862 1.5
  endloop
endfacet
facet normal 0.9336609714850523 0.2499763968518307 0.25649364776259953
  outer loop
    vertex 21.56829561876566 9.25996950669714 1.5
    vertex 18.119769318981835 8.212066988660206 15.0
    vertex 21.8 7.499999999999997 1.5
  endloop
endfacet
facet normal -0.41872261124570437 -0.8702371336318492 0.25953555841117815
  outer loop
    vertex 13.611572034823816 4.616899622712255 15.0
    vertex 13.240030493302863 0.9317043812343369 1.5
    vertex 14.287933011339794 4.38023068101816 15.0
  endloop
endfacet
facet normal 0.000747480875742988 -0.9665083245574451 0.2566341751082678
  outer loop
    vertex 15.0 4.299999999999998 15.0
    vertex 16.759969506697146 0.9317043812343369 1.5
    vertex 15.712066988660206 4.38023068101816 15.0
  endloop
endfacet
facet normal -0.21443937378731992 -0.9419436856549847 0.25837540135315795
  outer loop
    vertex 14.287933011339794 4.38023068101816 15.0
    vertex 13.240030493302863 0.9317043812343369 1.5
    vertex 15.0 0.6999999999999987 1.5
  endloop
endfacet
facet normal 0.0007474808757445771 0.966508324557445 0.25663417510826814
  outer loop
    vertex 15.0 10.699999999999998 15.0
    vertex 15.0 14.299999999999997 1.5
    vertex 14.287933011339794 10.619769318981835 15.0
  endloop
endfacet
facet normal -0.6019425738059265 -0.7549868196107123 0.26011543601639364
  outer loop
    vertex 13.004832634052054 4.998139256102304 15.0
    vertex 10.19167388793148 2.6916738879314726 1.5
    vertex 11.600000000000005 1.6110272542658146 1.5
  endloop
endfacet
facet normal -0.8372019918276965 0.48324874611631663 0.25605365503492683
  outer loop
    vertex 9.111027254265817 10.899999999999997 1.5
    vertex 12.116899622712259 8.888427965176183 15.0
    vertex 12.498139256102306 9.495167365947946 15.0
  endloop
endfacet
facet normal -0.6835611388915712 0.6835611388915713 0.2559068947772139
  outer loop
    vertex 10.19167388793148 12.308326112068517 1.5
    vertex 12.498139256102306 9.495167365947946 15.0
    vertex 13.004832634052052 10.00186074389769 15.0
  endloop
endfacet
facet normal -0.21443937378731992 -0.9419436856549847 0.25837540135315795
  outer loop
    vertex 14.287933011339794 4.38023068101816 15.0
    vertex 15.0 0.6999999999999987 1.5
    vertex 15.0 4.299999999999998 15.0
  endloop
endfacet
facet normal -0.8935842559335742 0.3691785526123685 0.25537105129336307
  outer loop
    vertex 8.954719688816846 10.522640155591576 1.5
    vertex 8.431704381234336 9.25996950669714 1.5
    vertex 11.880230681018165 8.212066988660201 15.0
  endloop
endfacet
facet normal -0.6835611388915712 0.6835611388915713 0.2559068947772139
  outer loop
    vertex 10.19167388793148 12.308326112068517 1.5
    vertex 9.111027254265817 10.899999999999997 1.5
    vertex 12.498139256102306 9.495167365947946 15.0
  endloop
endfacet
facet normal -0.6019425738059304 0.7549868196107091 0.26011543601639403
  outer loop
    vertex 13.004832634052052 10.00186074389769 15.0
    vertex 11.600000000000001 13.388972745734181 1.5
    vertex 10.19167388793148 12.308326112068517 1.5
  endloop
endfacet
facet normal -0.8372019918276965 0.48324874611631663 0.25605365503492683
  outer loop
    vertex 9.111027254265817 10.899999999999997 1.5
    vertex 8.954719688816846 10.522640155591576 1.5
    vertex 12.116899622712259 8.888427965176183 15.0
  endloop
endfacet
facet normal -0.2144393737873204 0.9419436856549845 0.258375401353158
  outer loop
    vertex 14.287933011339794 10.619769318981835 15.0
    vertex 15.0 14.299999999999997 1.5
    vertex 13.240030493302859 14.068295618765658 1.5
  endloop
endfacet
facet normal 0.8915635416275712 0.37215628126106315 0.25809717851700487
  outer loop
    vertex 21.045280311183152 10.52264015559157 1.5
    vertex 17.88310037728774 8.888427965176183 15.0
    vertex 21.56829561876566 9.25996950669714 1.5
  endloop
endfacet
facet normal 0.9664673924046123 4.641153566866191e-16 0.25678936780682515
  outer loop
    vertex 21.8 7.499999999999997 1.5
    vertex 18.119769318981835 6.787933011339794 15.0
    vertex 21.568295618765664 5.740030493302862 1.5
  endloop
endfacet
facet normal -0.41872261124570387 0.8702371336318492 0.25953555841117815
  outer loop
    vertex 13.611572034823816 10.38310037728774 15.0
    vertex 11.600000000000001 13.388972745734181 1.5
    vertex 13.004832634052052 10.00186074389769 15.0
  endloop
endfacet
facet normal -0.2144393737873204 0.9419436856549845 0.258375401353158
  outer loop
    vertex 14.287933011339794 10.619769318981835 15.0
    vertex 13.240030493302859 14.068295618765658 1.5
    vertex 13.611572034823816 10.38310037728774 15.0
  endloop
endfacet
facet normal 0.9662349396012463 -1.309016949644541e-16 0.25766265056033233
  outer loop
    vertex 18.2 7.499999999999997 15.0
    vertex 18.119769318981835 6.787933011339794 15.0
    vertex 21.8 7.499999999999997 1.5
  endloop
endfacet
facet normal 0.42097508911057 0.8715366917303432 0.2514035984549069
  outer loop
    vertex 16.388427965176184 10.38310037728774 15.0
    vertex 18.4 13.388972745734181 1.5
    vertex 15.712066988660206 10.619769318981835 15.0
  endloop
endfacet
facet normal 0.21612946651587717 0.9426633048474194 0.2543107300089862
  outer loop
    vertex 15.712066988660206 10.619769318981835 15.0
    vertex 18.4 13.388972745734181 1.5
    vertex 16.759969506697143 14.068295618765658 1.5
  endloop
endfacet
facet normal -0.41872261124570387 0.8702371336318492 0.25953555841117815
  outer loop
    vertex 13.611572034823816 10.38310037728774 15.0
    vertex 13.240030493302859 14.068295618765658 1.5
    vertex 11.600000000000001 13.388972745734181 1.5
  endloop
endfacet
facet normal 0.8701043652725128 -0.4203755608506474 0.2572990116056054
  outer loop
    vertex 17.88310037728774 6.111572034823813 15.0
    vertex 17.501860743897698 5.504832634052049 15.0
    vertex 21.045280311183152 4.4773598444084195 1.5
  endloop
endfacet
facet normal 0.7547228345015222 -0.6064768027306553 0.2501586113480598
  outer loop
    vertex 17.501860743897698 5.504832634052049 15.0
    vertex 20.888972745734183 4.099999999999998 1.5
    vertex 21.045280311183152 4.4773598444084195 1.5
  endloop
endfacet
facet normal 0.21612946651587267 -0.9426633048474207 0.25431073000898546
  outer loop
    vertex 15.712066988660206 4.38023068101816 15.0
    vertex 16.759969506697146 0.9317043812343369 1.5
    vertex 18.400000000000002 1.6110272542658202 1.5
  endloop
endfacet
facet normal 0.4209750891105648 -0.871536691730346 0.2514035984549062
  outer loop
    vertex 16.388427965176188 4.616899622712255 15.0
    vertex 18.400000000000002 1.6110272542658202 1.5
    vertex 19.808326112068524 2.6916738879314783 1.5
  endloop
endfacet
facet normal 0.21612946651587267 -0.9426633048474207 0.25431073000898546
  outer loop
    vertex 15.712066988660206 4.38023068101816 15.0
    vertex 18.400000000000002 1.6110272542658202 1.5
    vertex 16.388427965176188 4.616899622712255 15.0
  endloop
endfacet
facet normal 0.7547228345015222 -0.6064768027306553 0.2501586113480598
  outer loop
    vertex 17.501860743897698 5.504832634052049 15.0
    vertex 16.99516736594795 4.998139256102304 15.0
    vertex 20.888972745734183 4.099999999999998 1.5
  endloop
endfacet
facet normal -0.9426110632548474 -0.21559366003125355 0.2549583440170063
  outer loop
    vertex 11.880230681018165 6.787933011339788 15.0
    vertex 8.431704381234338 5.740030493302851 1.5
    vertex 8.95471968881685 4.477359844408425 1.5
  endloop
endfacet
facet normal -0.6019425738059265 -0.7549868196107123 0.26011543601639364
  outer loop
    vertex 13.004832634052054 4.998139256102304 15.0
    vertex 11.600000000000005 1.6110272542658146 1.5
    vertex 13.611572034823816 4.616899622712255 15.0
  endloop
endfacet
facet normal 0.9336609714850523 0.2499763968518307 0.25649364776259953
  outer loop
    vertex 21.56829561876566 9.25996950669714 1.5
    vertex 17.88310037728774 8.888427965176183 15.0
    vertex 18.119769318981835 8.212066988660206 15.0
  endloop
endfacet
facet normal 0.21612946651587717 0.9426633048474194 0.2543107300089862
  outer loop
    vertex 15.712066988660206 10.619769318981835 15.0
    vertex 16.759969506697143 14.068295618765658 1.5
    vertex 15.0 10.699999999999998 15.0
  endloop
endfacet
facet normal 0.8915635416275712 0.37215628126106315 0.25809717851700487
  outer loop
    vertex 21.045280311183152 10.52264015559157 1.5
    vertex 17.501860743897698 9.495167365947946 15.0
    vertex 17.88310037728774 8.888427965176183 15.0
  endloop
endfacet
facet normal 0.6050578059888906 0.7566010588079941 0.24791105102946195
  outer loop
    vertex 16.995167365947946 10.00186074389769 15.0
    vertex 19.808326112068524 12.308326112068523 1.5
    vertex 16.388427965176184 10.38310037728774 15.0
  endloop
endfacet
facet normal 0.6829704480608024 0.6821633214268613 0.2611600466677463
  outer loop
    vertex 19.808326112068524 12.308326112068523 1.5
    vertex 16.995167365947946 10.00186074389769 15.0
    vertex 20.88897274573418 10.899999999999997 1.5
  endloop
endfacet
facet normal 0.0007474808757445771 0.966508324557445 0.25663417510826814
  outer loop
    vertex 15.0 10.699999999999998 15.0
    vertex 16.759969506697143 14.068295618765658 1.5
    vertex 15.0 14.299999999999997 1.5
  endloop
endfacet
facet normal 0.9419436856549843 0.2144393737873218 0.25837540135315806
  outer loop
    vertex 18.119769318981835 8.212066988660206 15.0
    vertex 18.2 7.499999999999997 15.0
    vertex 21.8 7.499999999999997 1.5
  endloop
endfacet
facet normal -5.394799238888234e-32 1.2494920073916176e-31 1.0
  outer loop
    vertex 12.778370599535144 6.904716196264197 11.000000000000005
    vertex 12.739185299767573 7.797641901867897 11.000000000000005
    vertex 12.700000000000003 7.499999999999997 11.000000000000005
  endloop
endfacet
facet normal -5.394799238888234e-32 1.2494920073916176e-31 1.0
  outer loop
    vertex 12.739185299767573 7.797641901867897 11.000000000000005
    vertex 12.778370599535144 6.904716196264197 11.000000000000005
    vertex 12.778370599535144 8.095283803735798 11.000000000000005
  endloop
endfacet
facet normal -5.394799238888234e-32 1.2494920073916176e-31 1.0
  outer loop
    vertex 12.778370599535144 8.095283803735798 11.000000000000005
    vertex 12.778370599535144 6.904716196264197 11.000000000000005
    vertex 13.008141571295795 6.35 11.000000000000005
  endloop
endfacet
facet normal -5.394799238888234e-32 1.2494920073916176e-31 1.0
  outer loop
    vertex 12.778370599535144 8.095283803735798 11.000000000000005
    vertex 13.008141571295795 6.35 11.000000000000005
    vertex 13.008141571295791 8.649999999999995 11.000000000000005
  endloop
endfacet
facet normal -5.394799238888234e-32 1.2494920073916176e-31 1.0
  outer loop
    vertex 13.008141571295791 8.649999999999995 11.000000000000005
    vertex 13.008141571295795 6.35 11.000000000000005
    vertex 13.373654403270942 9.126345596729056 11.000000000000005
  endloop
endfacet
facet normal -5.394799238888234e-32 1.2494920073916176e-31 1.0
  outer loop
    vertex 13.373654403270942 9.126345596729056 11.000000000000005
    vertex 13.008141571295795 6.35 11.000000000000005
    vertex 13.373654403270942 5.873654403270939 11.000000000000005
  endloop
endfacet
facet normal -5.394799238888234e-32 1.2494920073916176e-31 1.0
  outer loop
    vertex 13.373654403270942 9.126345596729056 11.000000000000005
    vertex 13.373654403270942 5.873654403270939 11.000000000000005
    vertex 13.850000000000003 5.508141571295788 11.000000000000005
  endloop
endfacet
facet normal -5.394799238888234e-32 1.2494920073916176e-31 1.0
  outer loop
    vertex 13.373654403270942 9.126345596729056 11.000000000000005
    vertex 13.850000000000003 5.508141571295788 11.000000000000005
    vertex 13.850000000000003 9.491858428704207 11.000000000000005
  endloop
endfacet
facet normal -5.394799238888234e-32 1.2494920073916176e-31 1.0
  outer loop
    vertex 13.850000000000003 9.491858428704207 11.000000000000005
    vertex 13.850000000000003 5.508141571295788 11.000000000000005
    vertex 14.404716196264204 5.278370599535144 11.000000000000005
  endloop
endfacet
facet normal -5.394799238888234e-32 1.2494920073916176e-31 1.0
  outer loop
    vertex 13.850000000000003 9.491858428704207 11.000000000000005
    vertex 14.404716196264204 5.278370599535144 11.000000000000005
    vertex 14.404716196264204 9.72162940046485 11.000000000000005
  endloop
endfacet
facet normal -5.394799238888234e-32 1.2494920073916176e-31 1.0
  outer loop
    vertex 14.404716196264204 9.72162940046485 11.000000000000005
    vertex 14.404716196264204 5.278370599535144 11.000000000000005
    vertex 15.0 5.200000000000002 11.000000000000005
  endloop
endfacet
facet normal -5.394799238888234e-32 1.2494920073916176e-31 1.0
  outer loop
    vertex 14.404716196264204 9.72162940046485 11.000000000000005
    vertex 15.0 5.200000000000002 11.000000000000005
    vertex 15.0 9.799999999999994 11.000000000000005
  endloop
endfacet
facet normal -5.394799238888234e-32 1.2494920073916176e-31 1.0
  outer loop
    vertex 15.0 9.799999999999994 11.000000000000005
    vertex 15.0 5.200000000000002 11.000000000000005
    vertex 15.595283803735802 5.278370599535144 11.000000000000005
  endloop
endfacet
facet normal -5.394799238888234e-32 1.2494920073916176e-31 1.0
  outer loop
    vertex 15.0 9.799999999999994 11.000000000000005
    vertex 15.595283803735802 5.278370599535144 11.000000000000005
    vertex 15.595283803735798 9.72162940046485 11.000000000000005
  endloop
endfacet
facet normal -5.394799238888234e-32 1.2494920073916176e-31 1.0
  outer loop
    vertex 15.595283803735798 9.72162940046485 11.000000000000005
    vertex 15.595283803735802 5.278370599535144 11.000000000000005
    vertex 16.15 9.491858428704207 11.000000000000005
  endloop
endfacet
facet normal -5.394799238888234e-32 1.2494920073916176e-31 1.0
  outer loop
    vertex 16.15 9.491858428704207 11.000000000000005
    vertex 15.595283803735802 5.278370599535144 11.000000000000005
    vertex 16.150000000000002 5.508141571295788 11.000000000000005
  endloop
endfacet
facet normal -5.394799238888234e-32 1.2494920073916176e-31 1.0
  outer loop
    vertex 16.15 9.491858428704207 11.000000000000005
    vertex 16.150000000000002 5.508141571295788 11.000000000000005
    vertex 16.62634559672906 9.126345596729056 11.000000000000005
  endloop
endfacet
facet normal -5.394799238888234e-32 1.2494920073916176e-31 1.0
  outer loop
    vertex 16.62634559672906 9.126345596729056 11.000000000000005
    vertex 16.150000000000002 5.508141571295788 11.000000000000005
    vertex 16.62634559672906 5.873654403270939 11.000000000000005
  endloop
endfacet
facet normal -5.394799238888234e-32 1.2494920073916176e-31 1.0
  outer loop
    vertex 16.62634559672906 9.126345596729056 11.000000000000005
    vertex 16.62634559672906 5.873654403270939 11.000000000000005
    vertex 16.99185842870421 6.35 11.000000000000005
  endloop
endfacet
facet normal -5.394799238888234e-32 1.2494920073916176e-31 1.0
  outer loop
    vertex 16.62634559672906 9.126345596729056 11.000000000000005
    vertex 16.99185842870421 6.35 11.000000000000005
    vertex 16.99185842870421 8.649999999999995 11.000000000000005
  endloop
endfacet
facet normal -5.394799238888234e-32 1.2494920073916176e-31 1.0
  outer loop
    vertex 16.99185842870421 8.649999999999995 11.000000000000005
    vertex 16.99185842870421 6.35 11.000000000000005
    vertex 17.221629400464856 8.095283803735798 11.000000000000005
  endloop
endfacet
facet normal -5.394799238888234e-32 1.2494920073916176e-31 1.0
  outer loop
    vertex 17.221629400464856 8.095283803735798 11.000000000000005
    vertex 16.99185842870421 6.35 11.000000000000005
    vertex 17.221629400464856 6.904716196264203 11.000000000000005
  endloop
endfacet
facet normal -5.394799238888234e-32 1.2494920073916176e-31 1.0
  outer loop
    vertex 17.221629400464856 8.095283803735798 11.000000000000005
    vertex 17.221629400464856 6.904716196264203 11.000000000000005
    vertex 17.3 7.499999999999997 11.000000000000005
  endloop
endfacet
facet normal -5.394799238888234e-32 1.2494920073916176e-31 1.0
  outer loop
    vertex 17.221629400464856 8.095283803735798 11.000000000000005
    vertex 17.3 7.499999999999997 11.000000000000005
    vertex 17.260814700232427 7.797641901867897 11.000000000000005
  endloop
endfacet
endsolid Tisch2
