solid walls
facet normal 0.10545379686395995 -0.35115094394930596 -0.9303614949526265
  outer loop
    vertex 53.254121928643684 -5.973860427422817 3.9999999999999996
    vertex 52.6588381249079 -3.7783705995351426 3.0
    vertex 53.254121928643684 -3.7 3.0
  endloop
endfacet
facet normal -0.10423780295946233 0.3887041921144976 -0.915447175683447
  outer loop
    vertex 53.84940573237949 -8.221629400464854 3.0
    vertex 53.254121928643684 -8.299999999999999 3.0
    vertex 53.254121928643684 -6.026139572577181 3.9999999999999996
  endloop
endfacet
facet normal 4.788765442784786e-17 0.4025704465942454 -0.9153890077605858
  outer loop
    vertex 53.254121928643684 -8.299999999999999 3.0
    vertex 52.6588381249079 -8.221629400464854 3.0
    vertex 53.254121928643684 -6.026139572577181 3.9999999999999996
  endloop
endfacet
facet normal 0.10545379686395995 -0.35115094394930596 -0.9303614949526265
  outer loop
    vertex 53.254121928643684 -5.973860427422817 3.9999999999999996
    vertex 51.627776331914625 -4.37365440327094 3.0
    vertex 52.1041219286437 -4.0081415712957895 3.0
  endloop
endfacet
facet normal 0.10545379686395995 -0.35115094394930596 -0.9303614949526265
  outer loop
    vertex 53.254121928643684 -5.973860427422817 3.9999999999999996
    vertex 52.1041219286437 -4.0081415712957895 3.0
    vertex 52.6588381249079 -3.7783705995351426 3.0
  endloop
endfacet
facet normal 0.0 0.0 1.0
  outer loop
    vertex 68.25412192864368 -7.5 30.0
    vertex 38.254121928643684 -4.500000000000002 30.0
    vertex 38.254121928643684 -7.5 30.0
  endloop
endfacet
facet normal 0.0 0.0 1.0
  outer loop
    vertex 38.254121928643684 -4.500000000000002 30.0
    vertex 68.25412192864368 -7.5 30.0
    vertex 68.25412192864368 -4.500000000000002 30.0
  endloop
endfacet
facet normal 0.0 0.0 -1.0
  outer loop
    vertex 38.254121928643684 1.4099832412739487e-15 -7.451821731553014e-21
    vertex 52.1041219286437 -4.0081415712957895 -7.451821731553014e-21
    vertex 38.254121928643684 -12.0 -7.451821731553014e-21
  endloop
endfacet
facet normal 0.0 0.0 -1.0
  outer loop
    vertex 52.1041219286437 -4.0081415712957895 -7.451821731553014e-21
    vertex 38.254121928643684 1.4099832412739487e-15 -7.451821731553014e-21
    vertex 52.6588381249079 -3.7783705995351426 -7.451821731553014e-21
  endloop
endfacet
facet normal 0.0 0.0 -1.0
  outer loop
    vertex 52.6588381249079 -3.7783705995351426 -7.451821731553014e-21
    vertex 38.254121928643684 1.4099832412739487e-15 -7.451821731553014e-21
    vertex 68.25412192864368 1.4099832412739487e-15 -7.451821731553014e-21
  endloop
endfacet
facet normal 0.0 0.0 -1.0
  outer loop
    vertex 38.254121928643684 -12.0 -7.451821731553014e-21
    vertex 52.1041219286437 -4.0081415712957895 -7.451821731553014e-21
    vertex 51.627776331914625 -4.37365440327094 -7.451821731553014e-21
  endloop
endfacet
facet normal 0.0 0.0 -1.0
  outer loop
    vertex 38.254121928643684 -12.0 -7.451821731553014e-21
    vertex 51.627776331914625 -4.37365440327094 -7.451821731553014e-21
    vertex 51.26226349993948 -4.849999999999998 -7.451821731553014e-21
  endloop
endfacet
facet normal 0.0 0.0 -1.0
  outer loop
    vertex 38.254121928643684 -12.0 -7.451821731553014e-21
    vertex 51.26226349993948 -4.849999999999998 -7.451821731553014e-21
    vertex 51.2325182548956 -4.921811374001024 -7.451821731553014e-21
  endloop
endfacet
facet normal 0.0 0.0 -1.0
  outer loop
    vertex 38.254121928643684 -12.0 -7.451821731553014e-21
    vertex 51.2325182548956 -4.921811374001024 -7.451821731553014e-21
    vertex 51.03249252817884 -5.4047161962642 -7.451821731553014e-21
  endloop
endfacet
facet normal 0.0 0.0 -1.0
  outer loop
    vertex 38.254121928643684 -12.0 -7.451821731553014e-21
    vertex 51.03249252817884 -5.4047161962642 -7.451821731553014e-21
    vertex 50.95412192864369 -5.999999999999999 -7.451821731553014e-21
  endloop
endfacet
facet normal 0.0 0.0 -1.0
  outer loop
    vertex 52.6588381249079 -3.7783705995351426 -7.451821731553014e-21
    vertex 68.25412192864368 1.4099832412739487e-15 -7.451821731553014e-21
    vertex 53.254121928643684 -3.7 -7.451821731553014e-21
  endloop
endfacet
facet normal 0.0 0.0 -1.0
  outer loop
    vertex 53.254121928643684 -3.7 -7.451821731553014e-21
    vertex 68.25412192864368 1.4099832412739487e-15 -7.451821731553014e-21
    vertex 53.84940573237949 -3.7783705995351426 -7.451821731553014e-21
  endloop
endfacet
facet normal 0.0 0.0 -1.0
  outer loop
    vertex 53.84940573237949 -3.7783705995351426 -7.451821731553014e-21
    vertex 68.25412192864368 1.4099832412739487e-15 -7.451821731553014e-21
    vertex 54.4041219286437 -4.00814157129579 -7.451821731553014e-21
  endloop
endfacet
facet normal 0.0 0.0 -1.0
  outer loop
    vertex 54.4041219286437 -4.00814157129579 -7.451821731553014e-21
    vertex 68.25412192864368 1.4099832412739487e-15 -7.451821731553014e-21
    vertex 54.880467525372744 -4.37365440327094 -7.451821731553014e-21
  endloop
endfacet
facet normal 0.0 0.0 -1.0
  outer loop
    vertex 54.880467525372744 -4.37365440327094 -7.451821731553014e-21
    vertex 68.25412192864368 1.4099832412739487e-15 -7.451821731553014e-21
    vertex 55.2459803573479 -4.85 -7.451821731553014e-21
  endloop
endfacet
facet normal 0.0 0.0 -1.0
  outer loop
    vertex 55.2459803573479 -4.85 -7.451821731553014e-21
    vertex 68.25412192864368 1.4099832412739487e-15 -7.451821731553014e-21
    vertex 55.275725602391766 -4.921811374001025 -7.451821731553014e-21
  endloop
endfacet
facet normal 0.0 0.0 -1.0
  outer loop
    vertex 55.275725602391766 -4.921811374001025 -7.451821731553014e-21
    vertex 68.25412192864368 1.4099832412739487e-15 -7.451821731553014e-21
    vertex 55.47575132910855 -5.404716196264202 -7.451821731553014e-21
  endloop
endfacet
facet normal 0.0 0.0 -1.0
  outer loop
    vertex 55.47575132910855 -5.404716196264202 -7.451821731553014e-21
    vertex 68.25412192864368 1.4099832412739487e-15 -7.451821731553014e-21
    vertex 55.55412192864368 -5.999999999999999 -7.451821731553014e-21
  endloop
endfacet
facet normal 0.0 0.0 -1.0
  outer loop
    vertex 38.254121928643684 -12.0 -7.451821731553014e-21
    vertex 52.6588381249079 -8.221629400464854 -7.451821731553014e-21
    vertex 68.25412192864368 -12.0 -7.451821731553014e-21
  endloop
endfacet
facet normal 0.0 0.0 -1.0
  outer loop
    vertex 52.6588381249079 -8.221629400464854 -7.451821731553014e-21
    vertex 38.254121928643684 -12.0 -7.451821731553014e-21
    vertex 52.1041219286437 -7.991858428704207 -7.451821731553014e-21
  endloop
endfacet
facet normal 0.0 0.0 -1.0
  outer loop
    vertex 52.1041219286437 -7.991858428704207 -7.451821731553014e-21
    vertex 38.254121928643684 -12.0 -7.451821731553014e-21
    vertex 51.627776331914625 -7.626345596729058 -7.451821731553014e-21
  endloop
endfacet
facet normal 0.0 0.0 -1.0
  outer loop
    vertex 51.627776331914625 -7.626345596729058 -7.451821731553014e-21
    vertex 38.254121928643684 -12.0 -7.451821731553014e-21
    vertex 51.26226349993948 -7.149999999999997 -7.451821731553014e-21
  endloop
endfacet
facet normal 0.0 0.0 -1.0
  outer loop
    vertex 51.26226349993948 -7.149999999999997 -7.451821731553014e-21
    vertex 38.254121928643684 -12.0 -7.451821731553014e-21
    vertex 51.2325182548956 -7.078188625998974 -7.451821731553014e-21
  endloop
endfacet
facet normal 0.0 0.0 -1.0
  outer loop
    vertex 51.2325182548956 -7.078188625998974 -7.451821731553014e-21
    vertex 38.254121928643684 -12.0 -7.451821731553014e-21
    vertex 51.03249252817883 -6.595283803735795 -7.451821731553014e-21
  endloop
endfacet
facet normal 0.0 0.0 -1.0
  outer loop
    vertex 51.03249252817883 -6.595283803735795 -7.451821731553014e-21
    vertex 38.254121928643684 -12.0 -7.451821731553014e-21
    vertex 50.95412192864369 -5.999999999999999 -7.451821731553014e-21
  endloop
endfacet
facet normal 0.0 0.0 -1.0
  outer loop
    vertex 68.25412192864368 -12.0 -7.451821731553014e-21
    vertex 52.6588381249079 -8.221629400464854 -7.451821731553014e-21
    vertex 53.254121928643684 -8.299999999999999 -7.451821731553014e-21
  endloop
endfacet
facet normal 0.0 0.0 -1.0
  outer loop
    vertex 68.25412192864368 -12.0 -7.451821731553014e-21
    vertex 53.254121928643684 -8.299999999999999 -7.451821731553014e-21
    vertex 53.84940573237949 -8.221629400464854 -7.451821731553014e-21
  endloop
endfacet
facet normal 0.0 0.0 -1.0
  outer loop
    vertex 68.25412192864368 -12.0 -7.451821731553014e-21
    vertex 53.84940573237949 -8.221629400464854 -7.451821731553014e-21
    vertex 54.4041219286437 -7.991858428704207 -7.451821731553014e-21
  endloop
endfacet
facet normal 0.0 0.0 -1.0
  outer loop
    vertex 68.25412192864368 -12.0 -7.451821731553014e-21
    vertex 54.4041219286437 -7.991858428704207 -7.451821731553014e-21
    vertex 54.880467525372744 -7.626345596729058 -7.451821731553014e-21
  endloop
endfacet
facet normal 0.0 0.0 -1.0
  outer loop
    vertex 68.25412192864368 -12.0 -7.451821731553014e-21
    vertex 54.880467525372744 -7.626345596729058 -7.451821731553014e-21
    vertex 55.2459803573479 -7.1499999999999995 -7.451821731553014e-21
  endloop
endfacet
facet normal 0.0 0.0 -1.0
  outer loop
    vertex 68.25412192864368 -12.0 -7.451821731553014e-21
    vertex 55.2459803573479 -7.1499999999999995 -7.451821731553014e-21
    vertex 55.275725602391766 -7.078188625998974 -7.451821731553014e-21
  endloop
endfacet
facet normal 0.0 0.0 -1.0
  outer loop
    vertex 68.25412192864368 -12.0 -7.451821731553014e-21
    vertex 55.275725602391766 -7.078188625998974 -7.451821731553014e-21
    vertex 55.47575132910855 -6.595283803735796 -7.451821731553014e-21
  endloop
endfacet
facet normal 0.0 0.0 -1.0
  outer loop
    vertex 68.25412192864368 -12.0 -7.451821731553014e-21
    vertex 55.47575132910855 -6.595283803735796 -7.451821731553014e-21
    vertex 55.55412192864368 -5.999999999999999 -7.451821731553014e-21
  endloop
endfacet
facet normal 0.0 0.0 -1.0
  outer loop
    vertex 68.25412192864368 -12.0 -7.451821731553014e-21
    vertex 55.55412192864368 -5.999999999999999 -7.451821731553014e-21
    vertex 68.25412192864368 1.4099832412739487e-15 -7.451821731553014e-21
  endloop
endfacet
facet normal 0.0 -1.0 0.0
  outer loop
    vertex 68.25412192864368 -12.0 1.9999999999999998
    vertex 38.254121928643684 -12.0 -7.451821731553014e-21
    vertex 68.25412192864368 -12.0 -7.451821731553014e-21
  endloop
endfacet
facet normal 0.0 -1.0 0.0
  outer loop
    vertex 38.254121928643684 -12.0 -7.451821731553014e-21
    vertex 68.25412192864368 -12.0 1.9999999999999998
    vertex 38.254121928643684 -12.0 1.9999999999999998
  endloop
endfacet
facet normal 0.0 1.0 0.0
  outer loop
    vertex 38.254121928643684 1.4099832412739487e-15 1.9999999999999998
    vertex 68.25412192864368 1.4099832412739487e-15 -7.451821731553014e-21
    vertex 38.254121928643684 1.4099832412739487e-15 -7.451821731553014e-21
  endloop
endfacet
facet normal 0.0 1.0 0.0
  outer loop
    vertex 68.25412192864368 1.4099832412739487e-15 -7.451821731553014e-21
    vertex 38.254121928643684 1.4099832412739487e-15 1.9999999999999998
    vertex 68.25412192864368 1.4099832412739487e-15 1.9999999999999998
  endloop
endfacet
facet normal -0.3568301076807632 0.08423575064593482 -0.9303636990799087
  outer loop
    vertex 53.2767594625396 -6.013069786288591 3.9999999999999996
    vertex 54.880467525372744 -7.626345596729058 3.0
    vertex 53.254121928643684 -6.026139572577181 3.9999999999999996
  endloop
endfacet
facet normal -0.28422913929582266 0.28403564923209285 -0.9157169575477235
  outer loop
    vertex 54.880467525372744 -7.626345596729058 3.0
    vertex 53.2767594625396 -6.013069786288591 3.9999999999999996
    vertex 55.2459803573479 -7.1499999999999995 3.0
  endloop
endfacet
facet normal 0.9659258262890678 -0.2588190451025227 0.0
  outer loop
    vertex 51.03249252817884 -5.4047161962642 -7.451821731553014e-21
    vertex 50.95412192864369 -5.999999999999999 3.0
    vertex 50.95412192864369 -5.999999999999999 -7.451821731553014e-21
  endloop
endfacet
facet normal 1.0 -4.339710519180043e-15 0.0
  outer loop
    vertex 50.95412192864369 -5.999999999999999 3.0
    vertex 51.03249252817884 -5.4047161962642 -7.451821731553014e-21
    vertex 51.03249252817884 -5.4047161962642 3.0
  endloop
endfacet
facet normal 1.0 -4.339710519180043e-15 0.0
  outer loop
    vertex 50.95412192864369 -5.999999999999999 -7.451821731553014e-21
    vertex 51.03249252817883 -6.595283803735795 3.0
    vertex 51.03249252817883 -6.595283803735795 -7.451821731553014e-21
  endloop
endfacet
facet normal 0.9659258262890679 0.25881904510252224 0.0
  outer loop
    vertex 51.03249252817883 -6.595283803735795 3.0
    vertex 50.95412192864369 -5.999999999999999 -7.451821731553014e-21
    vertex 50.95412192864369 -5.999999999999999 3.0
  endloop
endfacet
facet normal 0.9659258262890679 0.25881904510252224 0.0
  outer loop
    vertex 51.03249252817883 -6.595283803735795 -7.451821731553014e-21
    vertex 51.2325182548956 -7.078188625998974 3.0
    vertex 51.2325182548956 -7.078188625998974 -7.451821731553014e-21
  endloop
endfacet
facet normal 0.9238795325112854 0.38268343236509295 0.0
  outer loop
    vertex 51.2325182548956 -7.078188625998974 3.0
    vertex 51.03249252817883 -6.595283803735795 -7.451821731553014e-21
    vertex 51.03249252817883 -6.595283803735795 3.0
  endloop
endfacet
facet normal 0.9238795325112894 0.3826834323650835 0.0
  outer loop
    vertex 51.2325182548956 -7.078188625998974 -7.451821731553014e-21
    vertex 51.26226349993948 -7.149999999999997 3.0
    vertex 51.26226349993948 -7.149999999999997 -7.451821731553014e-21
  endloop
endfacet
facet normal 0.8660254037844405 0.4999999999999969 0.0
  outer loop
    vertex 51.26226349993948 -7.149999999999997 3.0
    vertex 51.2325182548956 -7.078188625998974 -7.451821731553014e-21
    vertex 51.2325182548956 -7.078188625998974 3.0
  endloop
endfacet
facet normal 0.8660254037844405 0.4999999999999969 0.0
  outer loop
    vertex 51.26226349993948 -7.149999999999997 -7.451821731553014e-21
    vertex 51.627776331914625 -7.626345596729058 3.0
    vertex 51.627776331914625 -7.626345596729058 -7.451821731553014e-21
  endloop
endfacet
facet normal 0.707106781186547 0.7071067811865482 0.0
  outer loop
    vertex 51.627776331914625 -7.626345596729058 3.0
    vertex 51.26226349993948 -7.149999999999997 -7.451821731553014e-21
    vertex 51.26226349993948 -7.149999999999997 3.0
  endloop
endfacet
facet normal 0.707106781186547 0.7071067811865482 0.0
  outer loop
    vertex 51.627776331914625 -7.626345596729058 3.0
    vertex 52.1041219286437 -7.991858428704207 -7.451821731553014e-21
    vertex 51.627776331914625 -7.626345596729058 -7.451821731553014e-21
  endloop
endfacet
facet normal 0.49999999999999867 0.8660254037844394 0.0
  outer loop
    vertex 52.1041219286437 -7.991858428704207 -7.451821731553014e-21
    vertex 51.627776331914625 -7.626345596729058 3.0
    vertex 52.1041219286437 -7.991858428704207 3.0
  endloop
endfacet
facet normal 0.49999999999999867 0.8660254037844394 0.0
  outer loop
    vertex 52.1041219286437 -7.991858428704207 3.0
    vertex 52.6588381249079 -8.221629400464854 -7.451821731553014e-21
    vertex 52.1041219286437 -7.991858428704207 -7.451821731553014e-21
  endloop
endfacet
facet normal 0.2588190451025208 0.9659258262890683 0.0
  outer loop
    vertex 52.6588381249079 -8.221629400464854 -7.451821731553014e-21
    vertex 52.1041219286437 -7.991858428704207 3.0
    vertex 52.6588381249079 -8.221629400464854 3.0
  endloop
endfacet
facet normal 0.2588190451025208 0.9659258262890683 0.0
  outer loop
    vertex 52.6588381249079 -8.221629400464854 3.0
    vertex 53.254121928643684 -8.299999999999999 -7.451821731553014e-21
    vertex 52.6588381249079 -8.221629400464854 -7.451821731553014e-21
  endloop
endfacet
facet normal 0.0 1.0 0.0
  outer loop
    vertex 53.254121928643684 -8.299999999999999 -7.451821731553014e-21
    vertex 52.6588381249079 -8.221629400464854 3.0
    vertex 53.254121928643684 -8.299999999999999 3.0
  endloop
endfacet
facet normal 0.0 1.0 0.0
  outer loop
    vertex 53.254121928643684 -8.299999999999999 3.0
    vertex 53.84940573237949 -8.221629400464854 -7.451821731553014e-21
    vertex 53.254121928643684 -8.299999999999999 -7.451821731553014e-21
  endloop
endfacet
facet normal -0.2588190451025208 0.9659258262890683 0.0
  outer loop
    vertex 53.84940573237949 -8.221629400464854 -7.451821731553014e-21
    vertex 53.254121928643684 -8.299999999999999 3.0
    vertex 53.84940573237949 -8.221629400464854 3.0
  endloop
endfacet
facet normal -0.2588190451025208 0.9659258262890683 0.0
  outer loop
    vertex 53.84940573237949 -8.221629400464854 3.0
    vertex 54.4041219286437 -7.991858428704207 -7.451821731553014e-21
    vertex 53.84940573237949 -8.221629400464854 -7.451821731553014e-21
  endloop
endfacet
facet normal -0.49999999999999867 0.8660254037844394 0.0
  outer loop
    vertex 54.4041219286437 -7.991858428704207 -7.451821731553014e-21
    vertex 53.84940573237949 -8.221629400464854 3.0
    vertex 54.4041219286437 -7.991858428704207 3.0
  endloop
endfacet
facet normal -0.49999999999999867 0.8660254037844394 0.0
  outer loop
    vertex 54.4041219286437 -7.991858428704207 3.0
    vertex 54.880467525372744 -7.626345596729058 -7.451821731553014e-21
    vertex 54.4041219286437 -7.991858428704207 -7.451821731553014e-21
  endloop
endfacet
facet normal -0.7071067811865487 0.7071067811865464 0.0
  outer loop
    vertex 54.880467525372744 -7.626345596729058 -7.451821731553014e-21
    vertex 54.4041219286437 -7.991858428704207 3.0
    vertex 54.880467525372744 -7.626345596729058 3.0
  endloop
endfacet
facet normal -0.8660254037844284 0.5000000000000177 0.0
  outer loop
    vertex 55.2459803573479 -7.1499999999999995 3.0
    vertex 54.880467525372744 -7.626345596729058 -7.451821731553014e-21
    vertex 54.880467525372744 -7.626345596729058 3.0
  endloop
endfacet
facet normal -0.7071067811865487 0.7071067811865464 0.0
  outer loop
    vertex 54.880467525372744 -7.626345596729058 -7.451821731553014e-21
    vertex 55.2459803573479 -7.1499999999999995 3.0
    vertex 55.2459803573479 -7.1499999999999995 -7.451821731553014e-21
  endloop
endfacet
facet normal -0.9238795325112691 0.3826834323651327 0.0
  outer loop
    vertex 55.275725602391766 -7.078188625998974 3.0
    vertex 55.2459803573479 -7.1499999999999995 -7.451821731553014e-21
    vertex 55.2459803573479 -7.1499999999999995 3.0
  endloop
endfacet
facet normal -0.8660254037844284 0.5000000000000177 0.0
  outer loop
    vertex 55.2459803573479 -7.1499999999999995 -7.451821731553014e-21
    vertex 55.275725602391766 -7.078188625998974 3.0
    vertex 55.275725602391766 -7.078188625998974 -7.451821731553014e-21
  endloop
endfacet
facet normal -0.9659258262890691 0.258819045102518 0.0
  outer loop
    vertex 55.47575132910855 -6.595283803735796 3.0
    vertex 55.275725602391766 -7.078188625998974 -7.451821731553014e-21
    vertex 55.275725602391766 -7.078188625998974 3.0
  endloop
endfacet
facet normal -0.9238795325112888 0.38268343236508523 0.0
  outer loop
    vertex 55.275725602391766 -7.078188625998974 -7.451821731553014e-21
    vertex 55.47575132910855 -6.595283803735796 3.0
    vertex 55.47575132910855 -6.595283803735796 -7.451821731553014e-21
  endloop
endfacet
facet normal -1.0 0.0 0.0
  outer loop
    vertex 55.55412192864368 -5.999999999999999 3.0
    vertex 55.47575132910855 -6.595283803735796 -7.451821731553014e-21
    vertex 55.47575132910855 -6.595283803735796 3.0
  endloop
endfacet
facet normal -0.9659258262890691 0.258819045102518 0.0
  outer loop
    vertex 55.47575132910855 -6.595283803735796 -7.451821731553014e-21
    vertex 55.55412192864368 -5.999999999999999 3.0
    vertex 55.55412192864368 -5.999999999999999 -7.451821731553014e-21
  endloop
endfacet
facet normal -0.965925826289069 -0.2588190451025183 0.0
  outer loop
    vertex 55.47575132910855 -5.404716196264202 3.0
    vertex 55.55412192864368 -5.999999999999999 -7.451821731553014e-21
    vertex 55.55412192864368 -5.999999999999999 3.0
  endloop
endfacet
facet normal -1.0 0.0 0.0
  outer loop
    vertex 55.55412192864368 -5.999999999999999 -7.451821731553014e-21
    vertex 55.47575132910855 -5.404716196264202 3.0
    vertex 55.47575132910855 -5.404716196264202 -7.451821731553014e-21
  endloop
endfacet
facet normal -0.9238795325112884 -0.3826834323650857 0.0
  outer loop
    vertex 55.275725602391766 -4.921811374001025 3.0
    vertex 55.47575132910855 -5.404716196264202 -7.451821731553014e-21
    vertex 55.47575132910855 -5.404716196264202 3.0
  endloop
endfacet
facet normal -0.965925826289069 -0.2588190451025183 0.0
  outer loop
    vertex 55.47575132910855 -5.404716196264202 -7.451821731553014e-21
    vertex 55.275725602391766 -4.921811374001025 3.0
    vertex 55.275725602391766 -4.921811374001025 -7.451821731553014e-21
  endloop
endfacet
facet normal -0.8660254037844287 -0.5000000000000172 0.0
  outer loop
    vertex 55.2459803573479 -4.85 3.0
    vertex 55.275725602391766 -4.921811374001025 -7.451821731553014e-21
    vertex 55.275725602391766 -4.921811374001025 3.0
  endloop
endfacet
facet normal -0.9238795325112691 -0.3826834323651326 0.0
  outer loop
    vertex 55.275725602391766 -4.921811374001025 -7.451821731553014e-21
    vertex 55.2459803573479 -4.85 3.0
    vertex 55.2459803573479 -4.85 -7.451821731553014e-21
  endloop
endfacet
facet normal -0.707106781186549 -0.707106781186546 0.0
  outer loop
    vertex 54.880467525372744 -4.37365440327094 3.0
    vertex 55.2459803573479 -4.85 -7.451821731553014e-21
    vertex 55.2459803573479 -4.85 3.0
  endloop
endfacet
facet normal -0.8660254037844287 -0.5000000000000172 0.0
  outer loop
    vertex 55.2459803573479 -4.85 -7.451821731553014e-21
    vertex 54.880467525372744 -4.37365440327094 3.0
    vertex 54.880467525372744 -4.37365440327094 -7.451821731553014e-21
  endloop
endfacet
facet normal -0.707106781186549 -0.707106781186546 0.0
  outer loop
    vertex 54.880467525372744 -4.37365440327094 3.0
    vertex 54.4041219286437 -4.00814157129579 -7.451821731553014e-21
    vertex 54.880467525372744 -4.37365440327094 -7.451821731553014e-21
  endloop
endfacet
facet normal -0.49999999999999867 -0.8660254037844394 0.0
  outer loop
    vertex 54.4041219286437 -4.00814157129579 -7.451821731553014e-21
    vertex 54.880467525372744 -4.37365440327094 3.0
    vertex 54.4041219286437 -4.00814157129579 3.0
  endloop
endfacet
facet normal -0.49999999999999867 -0.8660254037844394 0.0
  outer loop
    vertex 54.4041219286437 -4.00814157129579 3.0
    vertex 53.84940573237949 -3.7783705995351426 -7.451821731553014e-21
    vertex 54.4041219286437 -4.00814157129579 -7.451821731553014e-21
  endloop
endfacet
facet normal -0.25881904510252024 -0.9659258262890684 0.0
  outer loop
    vertex 53.84940573237949 -3.7783705995351426 -7.451821731553014e-21
    vertex 54.4041219286437 -4.00814157129579 3.0
    vertex 53.84940573237949 -3.7783705995351426 3.0
  endloop
endfacet
facet normal -0.25881904510252024 -0.9659258262890684 0.0
  outer loop
    vertex 53.84940573237949 -3.7783705995351426 3.0
    vertex 53.254121928643684 -3.7 -7.451821731553014e-21
    vertex 53.84940573237949 -3.7783705995351426 -7.451821731553014e-21
  endloop
endfacet
facet normal 0.0 -1.0 0.0
  outer loop
    vertex 53.254121928643684 -3.7 -7.451821731553014e-21
    vertex 53.84940573237949 -3.7783705995351426 3.0
    vertex 53.254121928643684 -3.7 3.0
  endloop
endfacet
facet normal 0.0 -1.0 0.0
  outer loop
    vertex 53.254121928643684 -3.7 3.0
    vertex 52.6588381249079 -3.7783705995351426 -7.451821731553014e-21
    vertex 53.254121928643684 -3.7 -7.451821731553014e-21
  endloop
endfacet
facet normal 0.2588190451025192 -0.9659258262890686 0.0
  outer loop
    vertex 52.6588381249079 -3.7783705995351426 -7.451821731553014e-21
    vertex 53.254121928643684 -3.7 3.0
    vertex 52.6588381249079 -3.7783705995351426 3.0
  endloop
endfacet
facet normal 0.2588190451025192 -0.9659258262890686 0.0
  outer loop
    vertex 52.6588381249079 -3.7783705995351426 3.0
    vertex 52.1041219286437 -4.0081415712957895 -7.451821731553014e-21
    vertex 52.6588381249079 -3.7783705995351426 -7.451821731553014e-21
  endloop
endfacet
facet normal 0.4999999999999984 -0.8660254037844395 0.0
  outer loop
    vertex 52.1041219286437 -4.0081415712957895 -7.451821731553014e-21
    vertex 52.6588381249079 -3.7783705995351426 3.0
    vertex 52.1041219286437 -4.0081415712957895 3.0
  endloop
endfacet
facet normal 0.4999999999999984 -0.8660254037844395 0.0
  outer loop
    vertex 52.1041219286437 -4.0081415712957895 3.0
    vertex 51.627776331914625 -4.37365440327094 -7.451821731553014e-21
    vertex 52.1041219286437 -4.0081415712957895 -7.451821731553014e-21
  endloop
endfacet
facet normal 0.7071067811865465 -0.7071067811865487 0.0
  outer loop
    vertex 51.627776331914625 -4.37365440327094 -7.451821731553014e-21
    vertex 52.1041219286437 -4.0081415712957895 3.0
    vertex 51.627776331914625 -4.37365440327094 3.0
  endloop
endfacet
facet normal 0.7071067811865465 -0.7071067811865487 0.0
  outer loop
    vertex 51.627776331914625 -4.37365440327094 -7.451821731553014e-21
    vertex 51.26226349993948 -4.849999999999998 3.0
    vertex 51.26226349993948 -4.849999999999998 -7.451821731553014e-21
  endloop
endfacet
facet normal 0.8660254037844434 -0.4999999999999922 0.0
  outer loop
    vertex 51.26226349993948 -4.849999999999998 3.0
    vertex 51.627776331914625 -4.37365440327094 -7.451821731553014e-21
    vertex 51.627776331914625 -4.37365440327094 3.0
  endloop
endfacet
facet normal 0.8660254037844434 -0.4999999999999922 0.0
  outer loop
    vertex 51.26226349993948 -4.849999999999998 -7.451821731553014e-21
    vertex 51.2325182548956 -4.921811374001024 3.0
    vertex 51.2325182548956 -4.921811374001024 -7.451821731553014e-21
  endloop
endfacet
facet normal 0.9238795325112948 -0.38268343236507074 0.0
  outer loop
    vertex 51.2325182548956 -4.921811374001024 3.0
    vertex 51.26226349993948 -4.849999999999998 -7.451821731553014e-21
    vertex 51.26226349993948 -4.849999999999998 3.0
  endloop
endfacet
facet normal 0.9238795325112884 -0.3826834323650857 0.0
  outer loop
    vertex 51.2325182548956 -4.921811374001024 -7.451821731553014e-21
    vertex 51.03249252817884 -5.4047161962642 3.0
    vertex 51.03249252817884 -5.4047161962642 -7.451821731553014e-21
  endloop
endfacet
facet normal 0.9659258262890678 -0.2588190451025227 0.0
  outer loop
    vertex 51.03249252817884 -5.4047161962642 3.0
    vertex 51.2325182548956 -4.921811374001024 -7.451821731553014e-21
    vertex 51.2325182548956 -4.921811374001024 3.0
  endloop
endfacet
facet normal -0.28422913929582266 0.28403564923209285 -0.9157169575477235
  outer loop
    vertex 54.880467525372744 -7.626345596729058 3.0
    vertex 54.4041219286437 -7.991858428704207 3.0
    vertex 53.254121928643684 -6.026139572577181 3.9999999999999996
  endloop
endfacet
facet normal -0.3568301076807632 0.08423575064593482 -0.9303636990799087
  outer loop
    vertex 53.2767594625396 -6.013069786288591 3.9999999999999996
    vertex 55.275725602391766 -7.078188625998974 3.0
    vertex 55.2459803573479 -7.1499999999999995 3.0
  endloop
endfacet
facet normal -0.374610176710246 0.15516861579636523 -0.914106074904307
  outer loop
    vertex 55.275725602391766 -7.078188625998974 3.0
    vertex 53.2767594625396 -6.013069786288591 3.9999999999999996
    vertex 55.47575132910855 -6.595283803735796 3.0
  endloop
endfacet
facet normal -0.20116219650639247 0.34810717696880894 -0.9156173677030869
  outer loop
    vertex 54.4041219286437 -7.991858428704207 3.0
    vertex 53.84940573237949 -8.221629400464854 3.0
    vertex 53.254121928643684 -6.026139572577181 3.9999999999999996
  endloop
endfacet
facet normal -0.4020507567478722 -0.00015798397120959953 -0.9156173677030861
  outer loop
    vertex 55.55412192864368 -5.999999999999999 3.0
    vertex 53.2767594625396 -6.013069786288591 3.9999999999999996
    vertex 55.47575132910855 -5.404716196264202 3.0
  endloop
endfacet
facet normal -0.3483354092285217 -0.20103862186279275 -0.9155577071911455
  outer loop
    vertex 55.2459803573479 -4.85 3.0
    vertex 53.2767594625396 -6.013069786288591 3.9999999999999996
    vertex 53.2767594625396 -5.986930213711407 3.9999999999999996
  endloop
endfacet
facet normal -0.3568301076807632 0.08423575064593482 -0.9303636990799087
  outer loop
    vertex 53.2767594625396 -6.013069786288591 3.9999999999999996
    vertex 55.2459803573479 -4.85 3.0
    vertex 55.275725602391766 -4.921811374001025 3.0
  endloop
endfacet
facet normal -0.3568301076807632 0.08423575064593482 -0.9303636990799087
  outer loop
    vertex 53.2767594625396 -6.013069786288591 3.9999999999999996
    vertex 55.275725602391766 -4.921811374001025 3.0
    vertex 55.47575132910855 -5.404716196264202 3.0
  endloop
endfacet
facet normal -0.3483354092285217 -0.20103862186279275 -0.9155577071911455
  outer loop
    vertex 55.2459803573479 -4.85 3.0
    vertex 53.2767594625396 -5.986930213711407 3.9999999999999996
    vertex 54.880467525372744 -4.37365440327094 3.0
  endloop
endfacet
facet normal -0.2845088034489319 -0.2846246814548204 -0.9154471756834465
  outer loop
    vertex 54.880467525372744 -4.37365440327094 3.0
    vertex 53.2767594625396 -5.986930213711407 3.9999999999999996
    vertex 54.4041219286437 -4.00814157129579 3.0
  endloop
endfacet
facet normal -0.20088856024147647 -0.34826516094001936 -0.9156173677030864
  outer loop
    vertex 54.4041219286437 -4.00814157129579 3.0
    vertex 53.2767594625396 -5.986930213711407 3.9999999999999996
    vertex 53.84940573237949 -3.7783705995351426 3.0
  endloop
endfacet
facet normal -0.10386751816748756 -0.3881674797420148 -0.9157169575477233
  outer loop
    vertex 53.84940573237949 -3.7783705995351426 3.0
    vertex 53.254121928643684 -5.973860427422817 3.9999999999999996
    vertex 53.254121928643684 -3.7 3.0
  endloop
endfacet
facet normal 0.10545379686395995 -0.35115094394930596 -0.9303614949526265
  outer loop
    vertex 53.254121928643684 -5.973860427422817 3.9999999999999996
    vertex 53.84940573237949 -3.7783705995351426 3.0
    vertex 53.2767594625396 -5.986930213711407 3.9999999999999996
  endloop
endfacet
facet normal 0.3568301076807625 -0.08423575064591941 -0.9303636990799103
  outer loop
    vertex 53.23148439474779 -5.986930213711407 3.9999999999999996
    vertex 51.03249252817883 -6.595283803735795 3.0
    vertex 50.95412192864369 -5.999999999999999 3.0
  endloop
endfacet
facet normal 0.3479554838346381 0.20091739834283304 -0.9157287700583346
  outer loop
    vertex 53.23148439474779 -6.013069786288591 3.9999999999999996
    vertex 51.627776331914625 -7.626345596729058 3.0
    vertex 51.26226349993948 -7.149999999999997 3.0
  endloop
endfacet
facet normal 0.28422913929582166 0.28403564923209274 -0.9157169575477239
  outer loop
    vertex 51.627776331914625 -7.626345596729058 3.0
    vertex 53.23148439474779 -6.013069786288591 3.9999999999999996
    vertex 53.254121928643684 -6.026139572577181 3.9999999999999996
  endloop
endfacet
facet normal 0.37461017671024366 -0.15516861579636232 -0.9141060749043084
  outer loop
    vertex 51.2325182548956 -4.921811374001024 3.0
    vertex 53.23148439474779 -5.986930213711407 3.9999999999999996
    vertex 51.03249252817884 -5.4047161962642 3.0
  endloop
endfacet
facet normal 0.3568301076807625 -0.08423575064591941 -0.9303636990799103
  outer loop
    vertex 53.23148439474779 -5.986930213711407 3.9999999999999996
    vertex 51.2325182548956 -4.921811374001024 3.0
    vertex 51.26226349993948 -4.849999999999998 3.0
  endloop
endfacet
facet normal 0.3568301076807625 -0.08423575064591941 -0.9303636990799103
  outer loop
    vertex 53.23148439474779 -5.986930213711407 3.9999999999999996
    vertex 50.95412192864369 -5.999999999999999 3.0
    vertex 51.03249252817884 -5.4047161962642 3.0
  endloop
endfacet
facet normal 0.3568301076807625 -0.08423575064591941 -0.9303636990799103
  outer loop
    vertex 53.23148439474779 -5.986930213711407 3.9999999999999996
    vertex 51.2325182548956 -7.078188625998974 3.0
    vertex 51.03249252817883 -6.595283803735795 3.0
  endloop
endfacet
facet normal 0.374006977751914 0.15467472887710693 -0.9144367166948585
  outer loop
    vertex 51.2325182548956 -7.078188625998974 3.0
    vertex 53.23148439474779 -5.986930213711407 3.9999999999999996
    vertex 51.26226349993948 -7.149999999999997 3.0
  endloop
endfacet
facet normal 0.3479554739667118 0.20091741542997232 -0.9157287700588754
  outer loop
    vertex 51.26226349993948 -7.149999999999997 3.0
    vertex 53.23148439474779 -5.986930213711407 3.9999999999999996
    vertex 53.23148439474779 -6.013069786288591 3.9999999999999996
  endloop
endfacet
facet normal 0.28422913929582133 -0.2840356492320931 -0.9157169575477239
  outer loop
    vertex 51.627776331914625 -4.37365440327094 3.0
    vertex 53.23148439474779 -5.986930213711407 3.9999999999999996
    vertex 51.26226349993948 -4.849999999999998 3.0
  endloop
endfacet
facet normal 0.3568301076807625 -0.08423575064591941 -0.9303636990799103
  outer loop
    vertex 53.23148439474779 -5.986930213711407 3.9999999999999996
    vertex 51.627776331914625 -4.37365440327094 3.0
    vertex 53.254121928643684 -5.973860427422817 3.9999999999999996
  endloop
endfacet
facet normal 3.260154898511982e-14 0.30126301587787646 -0.9535410821061494
  outer loop
    vertex 53.254121928643684 -6.026139572577181 3.9999999999999996
    vertex 52.1041219286437 -7.991858428704207 3.0
    vertex 51.627776331914625 -7.626345596729058 3.0
  endloop
endfacet
facet normal 3.260154898511982e-14 0.30126301587787646 -0.9535410821061494
  outer loop
    vertex 53.254121928643684 -6.026139572577181 3.9999999999999996
    vertex 52.6588381249079 -8.221629400464854 3.0
    vertex 52.1041219286437 -7.991858428704207 3.0
  endloop
endfacet
facet normal -0.4020507567478722 -0.00015798397120959953 -0.9156173677030861
  outer loop
    vertex 55.55412192864368 -5.999999999999999 3.0
    vertex 55.47575132910855 -6.595283803735796 3.0
    vertex 53.2767594625396 -6.013069786288591 3.9999999999999996
  endloop
endfacet
facet normal 0.0 -1.0 0.0
  outer loop
    vertex 68.25412192864368 -7.5 30.0
    vertex 38.254121928643684 -7.5 4.5
    vertex 68.25412192864368 -7.5 4.5
  endloop
endfacet
facet normal 0.0 -1.0 0.0
  outer loop
    vertex 38.254121928643684 -7.5 4.5
    vertex 68.25412192864368 -7.5 30.0
    vertex 38.254121928643684 -7.5 30.0
  endloop
endfacet
facet normal -2.1740761516009746e-18 0.4856429311786318 0.8741572761215379
  outer loop
    vertex 68.25412192864368 -4.500000000000002 4.5
    vertex 38.254121928643684 1.4099832412739487e-15 1.9999999999999998
    vertex 38.254121928643684 -4.500000000000002 4.5
  endloop
endfacet
facet normal -2.1740761516009746e-18 0.4856429311786318 0.8741572761215379
  outer loop
    vertex 38.254121928643684 1.4099832412739487e-15 1.9999999999999998
    vertex 68.25412192864368 -4.500000000000002 4.5
    vertex 68.25412192864368 1.4099832412739487e-15 1.9999999999999998
  endloop
endfacet
facet normal 1.0 0.0 0.0
  outer loop
    vertex 68.25412192864368 1.4099832412739487e-15 -7.451821731553014e-21
    vertex 68.25412192864368 -12.0 1.9999999999999998
    vertex 68.25412192864368 -12.0 -7.451821731553014e-21
  endloop
endfacet
facet normal 1.0 0.0 0.0
  outer loop
    vertex 68.25412192864368 -12.0 1.9999999999999998
    vertex 68.25412192864368 1.4099832412739487e-15 -7.451821731553014e-21
    vertex 68.25412192864368 -7.5 4.5
  endloop
endfacet
facet normal 1.0 0.0 0.0
  outer loop
    vertex 68.25412192864368 -7.5 4.5
    vertex 68.25412192864368 1.4099832412739487e-15 -7.451821731553014e-21
    vertex 68.25412192864368 -4.500000000000002 4.5
  endloop
endfacet
facet normal 1.0 0.0 0.0
  outer loop
    vertex 68.25412192864368 -7.5 4.5
    vertex 68.25412192864368 -4.500000000000002 4.5
    vertex 68.25412192864368 -7.5 30.0
  endloop
endfacet
facet normal 1.0 0.0 0.0
  outer loop
    vertex 68.25412192864368 -4.500000000000002 4.5
    vertex 68.25412192864368 1.4099832412739487e-15 -7.451821731553014e-21
    vertex 68.25412192864368 1.4099832412739487e-15 1.9999999999999998
  endloop
endfacet
facet normal 1.0 0.0 0.0
  outer loop
    vertex 68.25412192864368 -4.500000000000002 30.0
    vertex 68.25412192864368 -7.5 30.0
    vertex 68.25412192864368 -4.500000000000002 4.5
  endloop
endfacet
facet normal -2.1740761516009757e-18 -0.4856429311786321 0.8741572761215377
  outer loop
    vertex 68.25412192864368 -12.0 1.9999999999999998
    vertex 38.254121928643684 -7.5 4.5
    vertex 38.254121928643684 -12.0 1.9999999999999998
  endloop
endfacet
facet normal -2.1740761516009757e-18 -0.4856429311786321 0.8741572761215377
  outer loop
    vertex 38.254121928643684 -7.5 4.5
    vertex 68.25412192864368 -12.0 1.9999999999999998
    vertex 68.25412192864368 -7.5 4.5
  endloop
endfacet
facet normal -1.0 0.0 0.0
  outer loop
    vertex 38.254121928643684 -4.500000000000002 30.0
    vertex 38.254121928643684 -7.5 4.5
    vertex 38.254121928643684 -7.5 30.0
  endloop
endfacet
facet normal -1.0 0.0 0.0
  outer loop
    vertex 38.254121928643684 -7.5 4.5
    vertex 38.254121928643684 -12.0 -7.451821731553014e-21
    vertex 38.254121928643684 -12.0 1.9999999999999998
  endloop
endfacet
facet normal -1.0 0.0 0.0
  outer loop
    vertex 38.254121928643684 -12.0 -7.451821731553014e-21
    vertex 38.254121928643684 -7.5 4.5
    vertex 38.254121928643684 1.4099832412739487e-15 -7.451821731553014e-21
  endloop
endfacet
facet normal -1.0 0.0 0.0
  outer loop
    vertex 38.254121928643684 1.4099832412739487e-15 -7.451821731553014e-21
    vertex 38.254121928643684 -7.5 4.5
    vertex 38.254121928643684 -4.500000000000002 4.5
  endloop
endfacet
facet normal -1.0 0.0 0.0
  outer loop
    vertex 38.254121928643684 -4.500000000000002 4.5
    vertex 38.254121928643684 -7.5 4.5
    vertex 38.254121928643684 -4.500000000000002 30.0
  endloop
endfacet
facet normal -1.0 0.0 0.0
  outer loop
    vertex 38.254121928643684 1.4099832412739487e-15 -7.451821731553014e-21
    vertex 38.254121928643684 -4.500000000000002 4.5
    vertex 38.254121928643684 1.4099832412739487e-15 1.9999999999999998
  endloop
endfacet
facet normal 0.0 1.0 0.0
  outer loop
    vertex 38.254121928643684 -4.500000000000002 30.0
    vertex 68.25412192864368 -4.500000000000002 4.5
    vertex 38.254121928643684 -4.500000000000002 4.5
  endloop
endfacet
facet normal 0.0 1.0 0.0
  outer loop
    vertex 68.25412192864368 -4.500000000000002 4.5
    vertex 38.254121928643684 -4.500000000000002 30.0
    vertex 68.25412192864368 -4.500000000000002 30.0
  endloop
endfacet
endsolid walls
