solid walls
facet normal 0.10545379686395942 -0.3511509439493062 -0.9303614949526265
  outer loop
    vertex 19.590750014462433 -156.5025174403082 3.9999999999999996
    vertex 18.995466210726637 -154.3070276124205 3.0
    vertex 19.590750014462433 -154.22865701288538 3.0
  endloop
endfacet
facet normal -0.10423780295946213 0.38870419211449764 -0.915447175683447
  outer loop
    vertex 20.186033818198226 -158.75028641335024 3.0
    vertex 19.590750014462433 -158.82865701288537 3.0
    vertex 19.590750014462433 -156.55479658546255 3.9999999999999996
  endloop
endfacet
facet normal 0.0 0.40257044659424535 -0.9153890077605857
  outer loop
    vertex 19.590750014462433 -158.82865701288537 3.0
    vertex 18.995466210726637 -158.75028641335024 3.0
    vertex 19.590750014462433 -156.55479658546255 3.9999999999999996
  endloop
endfacet
facet normal 0.10545379686395942 -0.3511509439493062 -0.9303614949526265
  outer loop
    vertex 19.590750014462433 -156.5025174403082 3.9999999999999996
    vertex 17.964404417733373 -154.9023114161563 3.0
    vertex 18.440750014462434 -154.53679858418118 3.0
  endloop
endfacet
facet normal 0.10545379686395942 -0.3511509439493062 -0.9303614949526265
  outer loop
    vertex 19.590750014462433 -156.5025174403082 3.9999999999999996
    vertex 18.440750014462434 -154.53679858418118 3.0
    vertex 18.995466210726637 -154.3070276124205 3.0
  endloop
endfacet
facet normal 0.0 0.0061004215415616505 0.9999813922553835
  outer loop
    vertex 34.59075001446242 -158.5277668003026 40.02982314712323
    vertex 4.590750014462426 -154.52868646192812 40.00542661731618
    vertex 4.590750014462426 -158.5277668003026 40.02982314712323
  endloop
endfacet
facet normal 0.0 0.0061004215415616505 0.9999813922553835
  outer loop
    vertex 4.590750014462426 -154.52868646192812 40.00542661731618
    vertex 34.59075001446242 -158.5277668003026 40.02982314712323
    vertex 34.59075001446242 -154.52868646192812 40.00542661731618
  endloop
endfacet
facet normal 0.0 0.0 -1.0
  outer loop
    vertex 4.590750014462426 -150.52865701288536 0.0
    vertex 18.440750014462434 -154.53679858418118 0.0
    vertex 4.590750014462426 -162.52865701288536 0.0
  endloop
endfacet
facet normal 0.0 0.0 -1.0
  outer loop
    vertex 18.440750014462434 -154.53679858418118 0.0
    vertex 4.590750014462426 -150.52865701288536 0.0
    vertex 18.995466210726637 -154.3070276124205 0.0
  endloop
endfacet
facet normal 0.0 0.0 -1.0
  outer loop
    vertex 18.995466210726637 -154.3070276124205 0.0
    vertex 4.590750014462426 -150.52865701288536 0.0
    vertex 34.59075001446242 -150.52865701288536 0.0
  endloop
endfacet
facet normal 0.0 0.0 -1.0
  outer loop
    vertex 4.590750014462426 -162.52865701288536 0.0
    vertex 18.440750014462434 -154.53679858418118 0.0
    vertex 17.964404417733373 -154.9023114161563 0.0
  endloop
endfacet
facet normal 0.0 0.0 -1.0
  outer loop
    vertex 4.590750014462426 -162.52865701288536 0.0
    vertex 17.964404417733373 -154.9023114161563 0.0
    vertex 17.598891585758224 -155.37865701288538 0.0
  endloop
endfacet
facet normal 0.0 0.0 -1.0
  outer loop
    vertex 4.590750014462426 -162.52865701288536 0.0
    vertex 17.598891585758224 -155.37865701288538 0.0
    vertex 17.569146340714354 -155.4504683868864 0.0
  endloop
endfacet
facet normal 0.0 0.0 -1.0
  outer loop
    vertex 4.590750014462426 -162.52865701288536 0.0
    vertex 17.569146340714354 -155.4504683868864 0.0
    vertex 17.36912061399758 -155.93337320914958 0.0
  endloop
endfacet
facet normal 0.0 0.0 -1.0
  outer loop
    vertex 4.590750014462426 -162.52865701288536 0.0
    vertex 17.36912061399758 -155.93337320914958 0.0
    vertex 17.290750014462432 -156.52865701288536 0.0
  endloop
endfacet
facet normal 0.0 0.0 -1.0
  outer loop
    vertex 18.995466210726637 -154.3070276124205 0.0
    vertex 34.59075001446242 -150.52865701288536 0.0
    vertex 19.590750014462433 -154.22865701288538 0.0
  endloop
endfacet
facet normal 0.0 0.0 -1.0
  outer loop
    vertex 19.590750014462433 -154.22865701288538 0.0
    vertex 34.59075001446242 -150.52865701288536 0.0
    vertex 20.186033818198226 -154.3070276124205 0.0
  endloop
endfacet
facet normal 0.0 0.0 -1.0
  outer loop
    vertex 20.186033818198226 -154.3070276124205 0.0
    vertex 34.59075001446242 -150.52865701288536 0.0
    vertex 20.74075001446243 -154.53679858418118 0.0
  endloop
endfacet
facet normal 0.0 0.0 -1.0
  outer loop
    vertex 20.74075001446243 -154.53679858418118 0.0
    vertex 34.59075001446242 -150.52865701288536 0.0
    vertex 21.217095611191493 -154.9023114161563 0.0
  endloop
endfacet
facet normal 0.0 0.0 -1.0
  outer loop
    vertex 21.217095611191493 -154.9023114161563 0.0
    vertex 34.59075001446242 -150.52865701288536 0.0
    vertex 21.582608443166638 -155.37865701288538 0.0
  endloop
endfacet
facet normal 0.0 0.0 -1.0
  outer loop
    vertex 21.582608443166638 -155.37865701288538 0.0
    vertex 34.59075001446242 -150.52865701288536 0.0
    vertex 21.61235368821051 -155.4504683868864 0.0
  endloop
endfacet
facet normal 0.0 0.0 -1.0
  outer loop
    vertex 21.61235368821051 -155.4504683868864 0.0
    vertex 34.59075001446242 -150.52865701288536 0.0
    vertex 21.812379414927285 -155.93337320914958 0.0
  endloop
endfacet
facet normal 0.0 0.0 -1.0
  outer loop
    vertex 21.812379414927285 -155.93337320914958 0.0
    vertex 34.59075001446242 -150.52865701288536 0.0
    vertex 21.890750014462427 -156.52865701288536 0.0
  endloop
endfacet
facet normal 0.0 0.0 -1.0
  outer loop
    vertex 4.590750014462426 -162.52865701288536 0.0
    vertex 18.995466210726637 -158.75028641335024 0.0
    vertex 34.59075001446242 -162.52865701288536 0.0
  endloop
endfacet
facet normal 0.0 0.0 -1.0
  outer loop
    vertex 18.995466210726637 -158.75028641335024 0.0
    vertex 4.590750014462426 -162.52865701288536 0.0
    vertex 18.440750014462434 -158.52051544158957 0.0
  endloop
endfacet
facet normal 0.0 0.0 -1.0
  outer loop
    vertex 18.440750014462434 -158.52051544158957 0.0
    vertex 4.590750014462426 -162.52865701288536 0.0
    vertex 17.964404417733373 -158.15500260961443 0.0
  endloop
endfacet
facet normal 0.0 0.0 -1.0
  outer loop
    vertex 17.964404417733373 -158.15500260961443 0.0
    vertex 4.590750014462426 -162.52865701288536 0.0
    vertex 17.598891585758224 -157.67865701288537 0.0
  endloop
endfacet
facet normal 0.0 0.0 -1.0
  outer loop
    vertex 17.598891585758224 -157.67865701288537 0.0
    vertex 4.590750014462426 -162.52865701288536 0.0
    vertex 17.569146340714354 -157.60684563888435 0.0
  endloop
endfacet
facet normal 0.0 0.0 -1.0
  outer loop
    vertex 17.569146340714354 -157.60684563888435 0.0
    vertex 4.590750014462426 -162.52865701288536 0.0
    vertex 17.369120613997573 -157.12394081662117 0.0
  endloop
endfacet
facet normal 0.0 0.0 -1.0
  outer loop
    vertex 17.369120613997573 -157.12394081662117 0.0
    vertex 4.590750014462426 -162.52865701288536 0.0
    vertex 17.290750014462432 -156.52865701288536 0.0
  endloop
endfacet
facet normal 0.0 0.0 -1.0
  outer loop
    vertex 34.59075001446242 -162.52865701288536 0.0
    vertex 18.995466210726637 -158.75028641335024 0.0
    vertex 19.590750014462433 -158.82865701288537 0.0
  endloop
endfacet
facet normal 0.0 0.0 -1.0
  outer loop
    vertex 34.59075001446242 -162.52865701288536 0.0
    vertex 19.590750014462433 -158.82865701288537 0.0
    vertex 20.186033818198226 -158.75028641335024 0.0
  endloop
endfacet
facet normal 0.0 0.0 -1.0
  outer loop
    vertex 34.59075001446242 -162.52865701288536 0.0
    vertex 20.186033818198226 -158.75028641335024 0.0
    vertex 20.74075001446243 -158.52051544158957 0.0
  endloop
endfacet
facet normal 0.0 0.0 -1.0
  outer loop
    vertex 34.59075001446242 -162.52865701288536 0.0
    vertex 20.74075001446243 -158.52051544158957 0.0
    vertex 21.217095611191493 -158.15500260961443 0.0
  endloop
endfacet
facet normal 0.0 0.0 -1.0
  outer loop
    vertex 34.59075001446242 -162.52865701288536 0.0
    vertex 21.217095611191493 -158.15500260961443 0.0
    vertex 21.582608443166638 -157.67865701288537 0.0
  endloop
endfacet
facet normal 0.0 0.0 -1.0
  outer loop
    vertex 34.59075001446242 -162.52865701288536 0.0
    vertex 21.582608443166638 -157.67865701288537 0.0
    vertex 21.61235368821051 -157.60684563888435 0.0
  endloop
endfacet
facet normal 0.0 0.0 -1.0
  outer loop
    vertex 34.59075001446242 -162.52865701288536 0.0
    vertex 21.61235368821051 -157.60684563888435 0.0
    vertex 21.812379414927285 -157.12394081662117 0.0
  endloop
endfacet
facet normal 0.0 0.0 -1.0
  outer loop
    vertex 34.59075001446242 -162.52865701288536 0.0
    vertex 21.812379414927285 -157.12394081662117 0.0
    vertex 21.890750014462427 -156.52865701288536 0.0
  endloop
endfacet
facet normal 0.0 0.0 -1.0
  outer loop
    vertex 34.59075001446242 -162.52865701288536 0.0
    vertex 21.890750014462427 -156.52865701288536 0.0
    vertex 34.59075001446242 -150.52865701288536 0.0
  endloop
endfacet
facet normal 0.0 -1.0 0.0
  outer loop
    vertex 34.59075001446242 -162.52865701288536 1.9999999999999998
    vertex 4.590750014462426 -162.52865701288536 0.0
    vertex 34.59075001446242 -162.52865701288536 0.0
  endloop
endfacet
facet normal 0.0 -1.0 0.0
  outer loop
    vertex 4.590750014462426 -162.52865701288536 0.0
    vertex 34.59075001446242 -162.52865701288536 1.9999999999999998
    vertex 4.590750014462426 -162.52865701288536 1.9999999999999998
  endloop
endfacet
facet normal 0.0 1.0 0.0
  outer loop
    vertex 4.590750014462426 -150.52865701288536 1.9999999999999998
    vertex 34.59075001446242 -150.52865701288536 0.0
    vertex 4.590750014462426 -150.52865701288536 0.0
  endloop
endfacet
facet normal 0.0 1.0 0.0
  outer loop
    vertex 34.59075001446242 -150.52865701288536 0.0
    vertex 4.590750014462426 -150.52865701288536 1.9999999999999998
    vertex 34.59075001446242 -150.52865701288536 1.9999999999999998
  endloop
endfacet
facet normal -0.3568301076807631 0.0842357506459349 -0.9303636990799087
  outer loop
    vertex 19.61338754835835 -156.54172679917397 3.9999999999999996
    vertex 21.217095611191493 -158.15500260961443 3.0
    vertex 19.590750014462433 -156.55479658546255 3.9999999999999996
  endloop
endfacet
facet normal -0.28422913929582255 0.2840356492320924 -0.9157169575477238
  outer loop
    vertex 21.217095611191493 -158.15500260961443 3.0
    vertex 19.61338754835835 -156.54172679917397 3.9999999999999996
    vertex 21.582608443166638 -157.67865701288537 3.0
  endloop
endfacet
facet normal 0.9659258262890679 -0.2588190451025227 0.0
  outer loop
    vertex 17.36912061399758 -155.93337320914958 0.0
    vertex 17.290750014462432 -156.52865701288536 3.0
    vertex 17.290750014462432 -156.52865701288536 0.0
  endloop
endfacet
facet normal 1.0 -4.3486216290756914e-15 0.0
  outer loop
    vertex 17.290750014462432 -156.52865701288536 3.0
    vertex 17.36912061399758 -155.93337320914958 0.0
    vertex 17.36912061399758 -155.93337320914958 3.0
  endloop
endfacet
facet normal 1.0 -4.3486216290756914e-15 0.0
  outer loop
    vertex 17.290750014462432 -156.52865701288536 0.0
    vertex 17.369120613997573 -157.12394081662117 3.0
    vertex 17.369120613997573 -157.12394081662117 0.0
  endloop
endfacet
facet normal 0.9659258262890679 0.25881904510252224 0.0
  outer loop
    vertex 17.369120613997573 -157.12394081662117 3.0
    vertex 17.290750014462432 -156.52865701288536 0.0
    vertex 17.290750014462432 -156.52865701288536 3.0
  endloop
endfacet
facet normal 0.9659258262890679 0.25881904510252224 0.0
  outer loop
    vertex 17.369120613997573 -157.12394081662117 0.0
    vertex 17.569146340714354 -157.60684563888435 3.0
    vertex 17.569146340714354 -157.60684563888435 0.0
  endloop
endfacet
facet normal 0.9238795325112854 0.38268343236509295 0.0
  outer loop
    vertex 17.569146340714354 -157.60684563888435 3.0
    vertex 17.369120613997573 -157.12394081662117 0.0
    vertex 17.369120613997573 -157.12394081662117 3.0
  endloop
endfacet
facet normal 0.9238795325112894 0.3826834323650835 0.0
  outer loop
    vertex 17.569146340714354 -157.60684563888435 0.0
    vertex 17.598891585758224 -157.67865701288537 3.0
    vertex 17.598891585758224 -157.67865701288537 0.0
  endloop
endfacet
facet normal 0.8660254037844405 0.4999999999999969 0.0
  outer loop
    vertex 17.598891585758224 -157.67865701288537 3.0
    vertex 17.569146340714354 -157.60684563888435 0.0
    vertex 17.569146340714354 -157.60684563888435 3.0
  endloop
endfacet
facet normal 0.8660254037844405 0.4999999999999969 0.0
  outer loop
    vertex 17.598891585758224 -157.67865701288537 0.0
    vertex 17.964404417733373 -158.15500260961443 3.0
    vertex 17.964404417733373 -158.15500260961443 0.0
  endloop
endfacet
facet normal 0.707106781186547 0.7071067811865482 0.0
  outer loop
    vertex 17.964404417733373 -158.15500260961443 3.0
    vertex 17.598891585758224 -157.67865701288537 0.0
    vertex 17.598891585758224 -157.67865701288537 3.0
  endloop
endfacet
facet normal 0.707106781186547 0.7071067811865482 0.0
  outer loop
    vertex 17.964404417733373 -158.15500260961443 3.0
    vertex 18.440750014462434 -158.52051544158957 0.0
    vertex 17.964404417733373 -158.15500260961443 0.0
  endloop
endfacet
facet normal 0.49999999999999867 0.8660254037844394 0.0
  outer loop
    vertex 18.440750014462434 -158.52051544158957 0.0
    vertex 17.964404417733373 -158.15500260961443 3.0
    vertex 18.440750014462434 -158.52051544158957 3.0
  endloop
endfacet
facet normal 0.49999999999999867 0.8660254037844394 0.0
  outer loop
    vertex 18.440750014462434 -158.52051544158957 3.0
    vertex 18.995466210726637 -158.75028641335024 0.0
    vertex 18.440750014462434 -158.52051544158957 0.0
  endloop
endfacet
facet normal 0.25881904510252135 0.965925826289068 0.0
  outer loop
    vertex 18.995466210726637 -158.75028641335024 0.0
    vertex 18.440750014462434 -158.52051544158957 3.0
    vertex 18.995466210726637 -158.75028641335024 3.0
  endloop
endfacet
facet normal 0.25881904510252135 0.965925826289068 0.0
  outer loop
    vertex 18.995466210726637 -158.75028641335024 3.0
    vertex 19.590750014462433 -158.82865701288537 0.0
    vertex 18.995466210726637 -158.75028641335024 0.0
  endloop
endfacet
facet normal 0.0 1.0 0.0
  outer loop
    vertex 19.590750014462433 -158.82865701288537 0.0
    vertex 18.995466210726637 -158.75028641335024 3.0
    vertex 19.590750014462433 -158.82865701288537 3.0
  endloop
endfacet
facet normal 0.0 1.0 0.0
  outer loop
    vertex 19.590750014462433 -158.82865701288537 3.0
    vertex 20.186033818198226 -158.75028641335024 0.0
    vertex 19.590750014462433 -158.82865701288537 0.0
  endloop
endfacet
facet normal -0.25881904510252135 0.965925826289068 0.0
  outer loop
    vertex 20.186033818198226 -158.75028641335024 0.0
    vertex 19.590750014462433 -158.82865701288537 3.0
    vertex 20.186033818198226 -158.75028641335024 3.0
  endloop
endfacet
facet normal -0.25881904510252135 0.965925826289068 0.0
  outer loop
    vertex 20.186033818198226 -158.75028641335024 3.0
    vertex 20.74075001446243 -158.52051544158957 0.0
    vertex 20.186033818198226 -158.75028641335024 0.0
  endloop
endfacet
facet normal -0.49999999999999867 0.8660254037844394 0.0
  outer loop
    vertex 20.74075001446243 -158.52051544158957 0.0
    vertex 20.186033818198226 -158.75028641335024 3.0
    vertex 20.74075001446243 -158.52051544158957 3.0
  endloop
endfacet
facet normal -0.49999999999999867 0.8660254037844394 0.0
  outer loop
    vertex 20.74075001446243 -158.52051544158957 3.0
    vertex 21.217095611191493 -158.15500260961443 0.0
    vertex 20.74075001446243 -158.52051544158957 0.0
  endloop
endfacet
facet normal -0.7071067811865486 0.7071067811865466 0.0
  outer loop
    vertex 21.217095611191493 -158.15500260961443 0.0
    vertex 20.74075001446243 -158.52051544158957 3.0
    vertex 21.217095611191493 -158.15500260961443 3.0
  endloop
endfacet
facet normal -0.8660254037844282 0.500000000000018 0.0
  outer loop
    vertex 21.582608443166638 -157.67865701288537 3.0
    vertex 21.217095611191493 -158.15500260961443 0.0
    vertex 21.217095611191493 -158.15500260961443 3.0
  endloop
endfacet
facet normal -0.7071067811865486 0.7071067811865466 0.0
  outer loop
    vertex 21.217095611191493 -158.15500260961443 0.0
    vertex 21.582608443166638 -157.67865701288537 3.0
    vertex 21.582608443166638 -157.67865701288537 0.0
  endloop
endfacet
facet normal -0.9238795325112691 0.3826834323651326 0.0
  outer loop
    vertex 21.61235368821051 -157.60684563888435 3.0
    vertex 21.582608443166638 -157.67865701288537 0.0
    vertex 21.582608443166638 -157.67865701288537 3.0
  endloop
endfacet
facet normal -0.8660254037844282 0.500000000000018 0.0
  outer loop
    vertex 21.582608443166638 -157.67865701288537 0.0
    vertex 21.61235368821051 -157.60684563888435 3.0
    vertex 21.61235368821051 -157.60684563888435 0.0
  endloop
endfacet
facet normal -0.9659258262890691 0.25881904510251774 0.0
  outer loop
    vertex 21.812379414927285 -157.12394081662117 3.0
    vertex 21.61235368821051 -157.60684563888435 0.0
    vertex 21.61235368821051 -157.60684563888435 3.0
  endloop
endfacet
facet normal -0.9238795325112888 0.3826834323650846 0.0
  outer loop
    vertex 21.61235368821051 -157.60684563888435 0.0
    vertex 21.812379414927285 -157.12394081662117 3.0
    vertex 21.812379414927285 -157.12394081662117 0.0
  endloop
endfacet
facet normal -1.0 0.0 0.0
  outer loop
    vertex 21.890750014462427 -156.52865701288536 3.0
    vertex 21.812379414927285 -157.12394081662117 0.0
    vertex 21.812379414927285 -157.12394081662117 3.0
  endloop
endfacet
facet normal -0.9659258262890691 0.25881904510251774 0.0
  outer loop
    vertex 21.812379414927285 -157.12394081662117 0.0
    vertex 21.890750014462427 -156.52865701288536 3.0
    vertex 21.890750014462427 -156.52865701288536 0.0
  endloop
endfacet
facet normal -0.965925826289069 -0.2588190451025183 0.0
  outer loop
    vertex 21.812379414927285 -155.93337320914958 3.0
    vertex 21.890750014462427 -156.52865701288536 0.0
    vertex 21.890750014462427 -156.52865701288536 3.0
  endloop
endfacet
facet normal -1.0 0.0 0.0
  outer loop
    vertex 21.890750014462427 -156.52865701288536 0.0
    vertex 21.812379414927285 -155.93337320914958 3.0
    vertex 21.812379414927285 -155.93337320914958 0.0
  endloop
endfacet
facet normal -0.9238795325112886 -0.3826834323650857 0.0
  outer loop
    vertex 21.61235368821051 -155.4504683868864 3.0
    vertex 21.812379414927285 -155.93337320914958 0.0
    vertex 21.812379414927285 -155.93337320914958 3.0
  endloop
endfacet
facet normal -0.965925826289069 -0.2588190451025183 0.0
  outer loop
    vertex 21.812379414927285 -155.93337320914958 0.0
    vertex 21.61235368821051 -155.4504683868864 3.0
    vertex 21.61235368821051 -155.4504683868864 0.0
  endloop
endfacet
facet normal -0.8660254037844287 -0.5000000000000173 0.0
  outer loop
    vertex 21.582608443166638 -155.37865701288538 3.0
    vertex 21.61235368821051 -155.4504683868864 0.0
    vertex 21.61235368821051 -155.4504683868864 3.0
  endloop
endfacet
facet normal -0.9238795325112691 -0.3826834323651327 0.0
  outer loop
    vertex 21.61235368821051 -155.4504683868864 0.0
    vertex 21.582608443166638 -155.37865701288538 3.0
    vertex 21.582608443166638 -155.37865701288538 0.0
  endloop
endfacet
facet normal -0.707106781186549 -0.707106781186546 0.0
  outer loop
    vertex 21.217095611191493 -154.9023114161563 3.0
    vertex 21.582608443166638 -155.37865701288538 0.0
    vertex 21.582608443166638 -155.37865701288538 3.0
  endloop
endfacet
facet normal -0.8660254037844287 -0.5000000000000173 0.0
  outer loop
    vertex 21.582608443166638 -155.37865701288538 0.0
    vertex 21.217095611191493 -154.9023114161563 3.0
    vertex 21.217095611191493 -154.9023114161563 0.0
  endloop
endfacet
facet normal -0.707106781186549 -0.707106781186546 0.0
  outer loop
    vertex 21.217095611191493 -154.9023114161563 3.0
    vertex 20.74075001446243 -154.53679858418118 0.0
    vertex 21.217095611191493 -154.9023114161563 0.0
  endloop
endfacet
facet normal -0.49999999999999867 -0.8660254037844394 0.0
  outer loop
    vertex 20.74075001446243 -154.53679858418118 0.0
    vertex 21.217095611191493 -154.9023114161563 3.0
    vertex 20.74075001446243 -154.53679858418118 3.0
  endloop
endfacet
facet normal -0.49999999999999867 -0.8660254037844394 0.0
  outer loop
    vertex 20.74075001446243 -154.53679858418118 3.0
    vertex 20.186033818198226 -154.3070276124205 0.0
    vertex 20.74075001446243 -154.53679858418118 0.0
  endloop
endfacet
facet normal -0.25881904510252024 -0.9659258262890684 0.0
  outer loop
    vertex 20.186033818198226 -154.3070276124205 0.0
    vertex 20.74075001446243 -154.53679858418118 3.0
    vertex 20.186033818198226 -154.3070276124205 3.0
  endloop
endfacet
facet normal -0.25881904510252024 -0.9659258262890684 0.0
  outer loop
    vertex 20.186033818198226 -154.3070276124205 3.0
    vertex 19.590750014462433 -154.22865701288538 0.0
    vertex 20.186033818198226 -154.3070276124205 0.0
  endloop
endfacet
facet normal 0.0 -1.0 0.0
  outer loop
    vertex 19.590750014462433 -154.22865701288538 0.0
    vertex 20.186033818198226 -154.3070276124205 3.0
    vertex 19.590750014462433 -154.22865701288538 3.0
  endloop
endfacet
facet normal 0.0 -1.0 0.0
  outer loop
    vertex 19.590750014462433 -154.22865701288538 3.0
    vertex 18.995466210726637 -154.3070276124205 0.0
    vertex 19.590750014462433 -154.22865701288538 0.0
  endloop
endfacet
facet normal 0.25881904510251924 -0.9659258262890686 0.0
  outer loop
    vertex 18.995466210726637 -154.3070276124205 0.0
    vertex 19.590750014462433 -154.22865701288538 3.0
    vertex 18.995466210726637 -154.3070276124205 3.0
  endloop
endfacet
facet normal 0.25881904510251924 -0.9659258262890686 0.0
  outer loop
    vertex 18.995466210726637 -154.3070276124205 3.0
    vertex 18.440750014462434 -154.53679858418118 0.0
    vertex 18.995466210726637 -154.3070276124205 0.0
  endloop
endfacet
facet normal 0.4999999999999986 -0.8660254037844395 0.0
  outer loop
    vertex 18.440750014462434 -154.53679858418118 0.0
    vertex 18.995466210726637 -154.3070276124205 3.0
    vertex 18.440750014462434 -154.53679858418118 3.0
  endloop
endfacet
facet normal 0.4999999999999986 -0.8660254037844395 0.0
  outer loop
    vertex 18.440750014462434 -154.53679858418118 3.0
    vertex 17.964404417733373 -154.9023114161563 0.0
    vertex 18.440750014462434 -154.53679858418118 0.0
  endloop
endfacet
facet normal 0.7071067811865465 -0.7071067811865487 0.0
  outer loop
    vertex 17.964404417733373 -154.9023114161563 0.0
    vertex 18.440750014462434 -154.53679858418118 3.0
    vertex 17.964404417733373 -154.9023114161563 3.0
  endloop
endfacet
facet normal 0.7071067811865465 -0.7071067811865487 0.0
  outer loop
    vertex 17.964404417733373 -154.9023114161563 0.0
    vertex 17.598891585758224 -155.37865701288538 3.0
    vertex 17.598891585758224 -155.37865701288538 0.0
  endloop
endfacet
facet normal 0.8660254037844433 -0.4999999999999922 0.0
  outer loop
    vertex 17.598891585758224 -155.37865701288538 3.0
    vertex 17.964404417733373 -154.9023114161563 0.0
    vertex 17.964404417733373 -154.9023114161563 3.0
  endloop
endfacet
facet normal 0.8660254037844433 -0.4999999999999922 0.0
  outer loop
    vertex 17.598891585758224 -155.37865701288538 0.0
    vertex 17.569146340714354 -155.4504683868864 3.0
    vertex 17.569146340714354 -155.4504683868864 0.0
  endloop
endfacet
facet normal 0.9238795325112946 -0.3826834323650707 0.0
  outer loop
    vertex 17.569146340714354 -155.4504683868864 3.0
    vertex 17.598891585758224 -155.37865701288538 0.0
    vertex 17.598891585758224 -155.37865701288538 3.0
  endloop
endfacet
facet normal 0.9238795325112886 -0.3826834323650857 0.0
  outer loop
    vertex 17.569146340714354 -155.4504683868864 0.0
    vertex 17.36912061399758 -155.93337320914958 3.0
    vertex 17.36912061399758 -155.93337320914958 0.0
  endloop
endfacet
facet normal 0.9659258262890679 -0.2588190451025227 0.0
  outer loop
    vertex 17.36912061399758 -155.93337320914958 3.0
    vertex 17.569146340714354 -155.4504683868864 0.0
    vertex 17.569146340714354 -155.4504683868864 3.0
  endloop
endfacet
facet normal -0.28422913929582255 0.2840356492320924 -0.9157169575477238
  outer loop
    vertex 21.217095611191493 -158.15500260961443 3.0
    vertex 20.74075001446243 -158.52051544158957 3.0
    vertex 19.590750014462433 -156.55479658546255 3.9999999999999996
  endloop
endfacet
facet normal -0.388746606408395 0.10407951065967769 -0.9154471756834462
  outer loop
    vertex 21.812379414927285 -157.12394081662117 3.0
    vertex 21.582608443166638 -157.67865701288537 3.0
    vertex 19.61338754835835 -156.54172679917397 3.9999999999999996
  endloop
endfacet
facet normal -0.34825636116370595 0.20116405316042074 -0.9155602277431484
  outer loop
    vertex 21.582608443166638 -157.67865701288537 3.0
    vertex 21.812379414927285 -157.12394081662117 3.0
    vertex 21.61235368821051 -157.60684563888435 3.0
  endloop
endfacet
facet normal -0.20116219650639228 0.34810717696880905 -0.915617367703087
  outer loop
    vertex 20.74075001446243 -158.52051544158957 3.0
    vertex 20.186033818198226 -158.75028641335024 3.0
    vertex 19.590750014462433 -156.55479658546255 3.9999999999999996
  endloop
endfacet
facet normal -0.4020507567478722 -0.00015798397120981217 -0.915617367703086
  outer loop
    vertex 21.890750014462427 -156.52865701288536 3.0
    vertex 19.61338754835835 -156.54172679917397 3.9999999999999996
    vertex 21.812379414927285 -155.93337320914958 3.0
  endloop
endfacet
facet normal -0.34833540922852274 -0.2010386218627906 -0.9155577071911456
  outer loop
    vertex 21.582608443166638 -155.37865701288538 3.0
    vertex 19.61338754835835 -156.54172679917397 3.9999999999999996
    vertex 19.61338754835835 -156.51558722659678 3.9999999999999996
  endloop
endfacet
facet normal -0.3568301076807631 0.0842357506459349 -0.9303636990799087
  outer loop
    vertex 19.61338754835835 -156.54172679917397 3.9999999999999996
    vertex 21.582608443166638 -155.37865701288538 3.0
    vertex 21.812379414927285 -155.93337320914958 3.0
  endloop
endfacet
facet normal -0.3880915480202192 -0.10415409248678241 -0.9157165911861184
  outer loop
    vertex 21.812379414927285 -155.93337320914958 3.0
    vertex 21.582608443166638 -155.37865701288538 3.0
    vertex 21.61235368821051 -155.4504683868864 3.0
  endloop
endfacet
facet normal -0.34833540922852274 -0.2010386218627906 -0.9155577071911456
  outer loop
    vertex 21.582608443166638 -155.37865701288538 3.0
    vertex 19.61338754835835 -156.51558722659678 3.9999999999999996
    vertex 21.217095611191493 -154.9023114161563 3.0
  endloop
endfacet
facet normal -0.2845088034489319 -0.28462468145482034 -0.9154471756834466
  outer loop
    vertex 21.217095611191493 -154.9023114161563 3.0
    vertex 19.61338754835835 -156.51558722659678 3.9999999999999996
    vertex 20.74075001446243 -154.53679858418118 3.0
  endloop
endfacet
facet normal -0.2008885602414769 -0.34826516094001925 -0.9156173677030865
  outer loop
    vertex 20.74075001446243 -154.53679858418118 3.0
    vertex 19.61338754835835 -156.51558722659678 3.9999999999999996
    vertex 20.186033818198226 -154.3070276124205 3.0
  endloop
endfacet
facet normal -0.10386751816748717 -0.388167479742015 -0.9157169575477234
  outer loop
    vertex 20.186033818198226 -154.3070276124205 3.0
    vertex 19.590750014462433 -156.5025174403082 3.9999999999999996
    vertex 19.590750014462433 -154.22865701288538 3.0
  endloop
endfacet
facet normal 0.10545379686395942 -0.3511509439493062 -0.9303614949526265
  outer loop
    vertex 19.590750014462433 -156.5025174403082 3.9999999999999996
    vertex 20.186033818198226 -154.3070276124205 3.0
    vertex 19.61338754835835 -156.51558722659678 3.9999999999999996
  endloop
endfacet
facet normal 0.35683010768076245 -0.08423575064592019 -0.9303636990799102
  outer loop
    vertex 19.568112480566537 -156.51558722659678 3.9999999999999996
    vertex 17.369120613997573 -157.12394081662117 3.0
    vertex 17.290750014462432 -156.52865701288536 3.0
  endloop
endfacet
facet normal 0.34795548383463815 0.20091739834283287 -0.9157287700583345
  outer loop
    vertex 19.568112480566537 -156.54172679917397 3.9999999999999996
    vertex 17.964404417733373 -158.15500260961443 3.0
    vertex 17.598891585758224 -157.67865701288537 3.0
  endloop
endfacet
facet normal 0.28422913929582105 0.28403564923209307 -0.9157169575477239
  outer loop
    vertex 17.964404417733373 -158.15500260961443 3.0
    vertex 19.568112480566537 -156.54172679917397 3.9999999999999996
    vertex 19.590750014462433 -156.55479658546255 3.9999999999999996
  endloop
endfacet
facet normal 0.37461017671024355 -0.15516861579636257 -0.9141060749043084
  outer loop
    vertex 17.569146340714354 -155.4504683868864 3.0
    vertex 19.568112480566537 -156.51558722659678 3.9999999999999996
    vertex 17.36912061399758 -155.93337320914958 3.0
  endloop
endfacet
facet normal 0.35683010768076245 -0.08423575064592019 -0.9303636990799102
  outer loop
    vertex 19.568112480566537 -156.51558722659678 3.9999999999999996
    vertex 17.569146340714354 -155.4504683868864 3.0
    vertex 17.598891585758224 -155.37865701288538 3.0
  endloop
endfacet
facet normal 0.35683010768076245 -0.08423575064592019 -0.9303636990799102
  outer loop
    vertex 19.568112480566537 -156.51558722659678 3.9999999999999996
    vertex 17.290750014462432 -156.52865701288536 3.0
    vertex 17.36912061399758 -155.93337320914958 3.0
  endloop
endfacet
facet normal 0.35683010768076245 -0.08423575064592019 -0.9303636990799102
  outer loop
    vertex 19.568112480566537 -156.51558722659678 3.9999999999999996
    vertex 17.569146340714354 -157.60684563888435 3.0
    vertex 17.369120613997573 -157.12394081662117 3.0
  endloop
endfacet
facet normal 0.3740069777519147 0.1546747288771059 -0.9144367166948583
  outer loop
    vertex 17.569146340714354 -157.60684563888435 3.0
    vertex 19.568112480566537 -156.51558722659678 3.9999999999999996
    vertex 17.598891585758224 -157.67865701288537 3.0
  endloop
endfacet
facet normal 0.3479554739667117 0.2009174154299722 -0.9157287700588754
  outer loop
    vertex 17.598891585758224 -157.67865701288537 3.0
    vertex 19.568112480566537 -156.51558722659678 3.9999999999999996
    vertex 19.568112480566537 -156.54172679917397 3.9999999999999996
  endloop
endfacet
facet normal 0.2842291392958213 -0.2840356492320932 -0.9157169575477239
  outer loop
    vertex 17.964404417733373 -154.9023114161563 3.0
    vertex 19.568112480566537 -156.51558722659678 3.9999999999999996
    vertex 17.598891585758224 -155.37865701288538 3.0
  endloop
endfacet
facet normal 0.35683010768076245 -0.08423575064592019 -0.9303636990799102
  outer loop
    vertex 19.568112480566537 -156.51558722659678 3.9999999999999996
    vertex 17.964404417733373 -154.9023114161563 3.0
    vertex 19.590750014462433 -156.5025174403082 3.9999999999999996
  endloop
endfacet
facet normal 3.2007765352259885e-14 0.30126301587787674 -0.9535410821061494
  outer loop
    vertex 19.590750014462433 -156.55479658546255 3.9999999999999996
    vertex 18.440750014462434 -158.52051544158957 3.0
    vertex 17.964404417733373 -158.15500260961443 3.0
  endloop
endfacet
facet normal 3.2007765352259885e-14 0.30126301587787674 -0.9535410821061494
  outer loop
    vertex 19.590750014462433 -156.55479658546255 3.9999999999999996
    vertex 18.995466210726637 -158.75028641335024 3.0
    vertex 18.440750014462434 -158.52051544158957 3.0
  endloop
endfacet
facet normal -0.4020507567478722 -0.00015798397120981217 -0.915617367703086
  outer loop
    vertex 21.890750014462427 -156.52865701288536 3.0
    vertex 21.812379414927285 -157.12394081662117 3.0
    vertex 19.61338754835835 -156.54172679917397 3.9999999999999996
  endloop
endfacet
facet normal 1.0 0.0 0.0
  outer loop
    vertex 34.59075001446242 -150.52865701288536 0.0
    vertex 34.59075001446242 -162.52865701288536 1.9999999999999998
    vertex 34.59075001446242 -162.52865701288536 0.0
  endloop
endfacet
facet normal 1.0 0.0 0.0
  outer loop
    vertex 34.59075001446242 -162.52865701288536 1.9999999999999998
    vertex 34.59075001446242 -150.52865701288536 0.0
    vertex 34.59075001446242 -158.5277668003026 4.529823147123221
  endloop
endfacet
facet normal 1.0 0.0 0.0
  outer loop
    vertex 34.59075001446242 -158.5277668003026 4.529823147123221
    vertex 34.59075001446242 -150.52865701288536 0.0
    vertex 34.59075001446242 -154.52868646192812 4.505426617316192
  endloop
endfacet
facet normal 1.0 0.0 0.0
  outer loop
    vertex 34.59075001446242 -158.5277668003026 4.529823147123221
    vertex 34.59075001446242 -154.52868646192812 4.505426617316192
    vertex 34.59075001446242 -158.5277668003026 40.02982314712323
  endloop
endfacet
facet normal 1.0 0.0 0.0
  outer loop
    vertex 34.59075001446242 -154.52868646192812 4.505426617316192
    vertex 34.59075001446242 -150.52865701288536 0.0
    vertex 34.59075001446242 -150.52865701288536 1.9999999999999998
  endloop
endfacet
facet normal 1.0 0.0 0.0
  outer loop
    vertex 34.59075001446242 -154.52868646192812 40.00542661731618
    vertex 34.59075001446242 -158.5277668003026 40.02982314712323
    vertex 34.59075001446242 -154.52868646192812 4.505426617316192
  endloop
endfacet
facet normal 0.0 -0.5344376772254161 0.8452078851749445
  outer loop
    vertex 34.59075001446242 -162.52865701288536 1.9999999999999998
    vertex 4.590750014462426 -158.5277668003026 4.529823147123221
    vertex 4.590750014462426 -162.52865701288536 1.9999999999999998
  endloop
endfacet
facet normal 0.0 -0.5344376772254161 0.8452078851749445
  outer loop
    vertex 4.590750014462426 -158.5277668003026 4.529823147123221
    vertex 34.59075001446242 -162.52865701288536 1.9999999999999998
    vertex 34.59075001446242 -158.5277668003026 4.529823147123221
  endloop
endfacet
facet normal 0.0 -1.0 0.0
  outer loop
    vertex 34.59075001446242 -158.5277668003026 40.02982314712323
    vertex 4.590750014462426 -158.5277668003026 4.529823147123221
    vertex 34.59075001446242 -158.5277668003026 4.529823147123221
  endloop
endfacet
facet normal 0.0 -1.0 0.0
  outer loop
    vertex 4.590750014462426 -158.5277668003026 4.529823147123221
    vertex 34.59075001446242 -158.5277668003026 40.02982314712323
    vertex 4.590750014462426 -158.5277668003026 40.02982314712323
  endloop
endfacet
facet normal -1.0 0.0 0.0
  outer loop
    vertex 4.590750014462426 -154.52868646192812 40.00542661731618
    vertex 4.590750014462426 -158.5277668003026 4.529823147123221
    vertex 4.590750014462426 -158.5277668003026 40.02982314712323
  endloop
endfacet
facet normal -1.0 0.0 0.0
  outer loop
    vertex 4.590750014462426 -158.5277668003026 4.529823147123221
    vertex 4.590750014462426 -162.52865701288536 0.0
    vertex 4.590750014462426 -162.52865701288536 1.9999999999999998
  endloop
endfacet
facet normal -1.0 0.0 0.0
  outer loop
    vertex 4.590750014462426 -162.52865701288536 0.0
    vertex 4.590750014462426 -158.5277668003026 4.529823147123221
    vertex 4.590750014462426 -150.52865701288536 0.0
  endloop
endfacet
facet normal -1.0 0.0 0.0
  outer loop
    vertex 4.590750014462426 -150.52865701288536 0.0
    vertex 4.590750014462426 -158.5277668003026 4.529823147123221
    vertex 4.590750014462426 -154.52868646192812 4.505426617316192
  endloop
endfacet
facet normal -1.0 0.0 0.0
  outer loop
    vertex 4.590750014462426 -154.52868646192812 4.505426617316192
    vertex 4.590750014462426 -158.5277668003026 4.529823147123221
    vertex 4.590750014462426 -154.52868646192812 40.00542661731618
  endloop
endfacet
facet normal -1.0 0.0 0.0
  outer loop
    vertex 4.590750014462426 -150.52865701288536 0.0
    vertex 4.590750014462426 -154.52868646192812 4.505426617316192
    vertex 4.590750014462426 -150.52865701288536 1.9999999999999998
  endloop
endfacet
facet normal 0.0 0.5308226598369291 0.8474829224259611
  outer loop
    vertex 34.59075001446242 -154.52868646192812 4.505426617316192
    vertex 4.590750014462426 -150.52865701288536 1.9999999999999998
    vertex 4.590750014462426 -154.52868646192812 4.505426617316192
  endloop
endfacet
facet normal 0.0 0.5308226598369291 0.8474829224259611
  outer loop
    vertex 4.590750014462426 -150.52865701288536 1.9999999999999998
    vertex 34.59075001446242 -154.52868646192812 4.505426617316192
    vertex 34.59075001446242 -150.52865701288536 1.9999999999999998
  endloop
endfacet
facet normal 0.0 1.0 0.0
  outer loop
    vertex 4.590750014462426 -154.52868646192812 40.00542661731618
    vertex 34.59075001446242 -154.52868646192812 4.505426617316192
    vertex 4.590750014462426 -154.52868646192812 4.505426617316192
  endloop
endfacet
facet normal 0.0 1.0 0.0
  outer loop
    vertex 34.59075001446242 -154.52868646192812 4.505426617316192
    vertex 4.590750014462426 -154.52868646192812 40.00542661731618
    vertex 34.59075001446242 -154.52868646192812 40.00542661731618
  endloop
endfacet
endsolid walls
