solid walls
facet normal 0.10545379686395963 -0.3511509439493061 -0.9303614949526265
  outer loop
    vertex 180.1314527457445 -5.973860427422847 3.9999999999999996
    vertex 179.53616894200871 -3.7783705995351835 3.0
    vertex 180.1314527457445 -3.70000000000003 3.0
  endloop
endfacet
facet normal -0.10423780295946232 0.3887041921144977 -0.9154471756834471
  outer loop
    vertex 180.7267365494803 -8.22162940046489 3.0
    vertex 180.1314527457445 -8.300000000000043 3.0
    vertex 180.1314527457445 -6.026139572577227 3.9999999999999996
  endloop
endfacet
facet normal -8.14090125273422e-17 0.40257044659424535 -0.9153890077605857
  outer loop
    vertex 180.1314527457445 -8.300000000000043 3.0
    vertex 179.53616894200871 -8.22162940046489 3.0
    vertex 180.1314527457445 -6.026139572577227 3.9999999999999996
  endloop
endfacet
facet normal 0.10545379686395963 -0.3511509439493061 -0.9303614949526265
  outer loop
    vertex 180.1314527457445 -5.973860427422847 3.9999999999999996
    vertex 178.50510714901546 -4.373654403270967 3.0
    vertex 178.98145274574452 -4.008141571295833 3.0
  endloop
endfacet
facet normal 0.10545379686395963 -0.3511509439493061 -0.9303614949526265
  outer loop
    vertex 180.1314527457445 -5.973860427422847 3.9999999999999996
    vertex 178.98145274574452 -4.008141571295833 3.0
    vertex 179.53616894200871 -3.7783705995351835 3.0
  endloop
endfacet
facet normal 0.0 -1.0 0.0
  outer loop
    vertex 210.13145274574453 -12.000000000000037 1.9999999999999998
    vertex 150.1314527457445 -12.000000000000037 0.0
    vertex 210.13145274574453 -12.000000000000037 0.0
  endloop
endfacet
facet normal 0.0 -1.0 0.0
  outer loop
    vertex 150.1314527457445 -12.000000000000037 0.0
    vertex 210.13145274574453 -12.000000000000037 1.9999999999999998
    vertex 150.1314527457445 -12.000000000000037 1.9999999999999998
  endloop
endfacet
facet normal -0.35683010768076306 0.08423575064593496 -0.9303636990799086
  outer loop
    vertex 180.15409027964043 -6.0130697862886375 3.9999999999999996
    vertex 181.75779834247356 -7.6263455967290845 3.0
    vertex 180.1314527457445 -6.026139572577227 3.9999999999999996
  endloop
endfacet
facet normal -0.2842291392958226 0.2840356492320924 -0.9157169575477236
  outer loop
    vertex 181.75779834247356 -7.6263455967290845 3.0
    vertex 180.15409027964043 -6.0130697862886375 3.9999999999999996
    vertex 182.12331117444873 -7.150000000000035 3.0
  endloop
endfacet
facet normal 0.9659258262890679 -0.2588190451025227 0.0
  outer loop
    vertex 177.90982334527968 -5.404716196264243 0.0
    vertex 177.8314527457445 -6.000000000000026 3.0
    vertex 177.8314527457445 -6.000000000000026 0.0
  endloop
endfacet
facet normal 1.0 -4.3486216290756914e-15 0.0
  outer loop
    vertex 177.8314527457445 -6.000000000000026 3.0
    vertex 177.90982334527968 -5.404716196264243 0.0
    vertex 177.90982334527968 -5.404716196264243 3.0
  endloop
endfacet
facet normal 1.0 -4.3486216290756914e-15 0.0
  outer loop
    vertex 177.8314527457445 -6.000000000000026 0.0
    vertex 177.90982334527968 -6.595283803735831 3.0
    vertex 177.90982334527968 -6.595283803735831 0.0
  endloop
endfacet
facet normal 0.9659258262890679 0.25881904510252224 0.0
  outer loop
    vertex 177.90982334527968 -6.595283803735831 3.0
    vertex 177.8314527457445 -6.000000000000026 0.0
    vertex 177.8314527457445 -6.000000000000026 3.0
  endloop
endfacet
facet normal 0.9659258262890679 0.25881904510252224 0.0
  outer loop
    vertex 177.90982334527968 -6.595283803735831 0.0
    vertex 178.10984907199642 -7.078188625999016 3.0
    vertex 178.10984907199642 -7.078188625999016 0.0
  endloop
endfacet
facet normal 0.9238795325112854 0.38268343236509295 0.0
  outer loop
    vertex 178.10984907199642 -7.078188625999016 3.0
    vertex 177.90982334527968 -6.595283803735831 0.0
    vertex 177.90982334527968 -6.595283803735831 3.0
  endloop
endfacet
facet normal 0.9238795325112894 0.3826834323650835 0.0
  outer loop
    vertex 178.10984907199642 -7.078188625999016 0.0
    vertex 178.13959431704032 -7.150000000000035 3.0
    vertex 178.13959431704032 -7.150000000000035 0.0
  endloop
endfacet
facet normal 0.8660254037844405 0.4999999999999969 0.0
  outer loop
    vertex 178.13959431704032 -7.150000000000035 3.0
    vertex 178.10984907199642 -7.078188625999016 0.0
    vertex 178.10984907199642 -7.078188625999016 3.0
  endloop
endfacet
facet normal 0.8660254037844405 0.4999999999999969 0.0
  outer loop
    vertex 178.13959431704032 -7.150000000000035 0.0
    vertex 178.50510714901546 -7.6263455967290845 3.0
    vertex 178.50510714901546 -7.6263455967290845 0.0
  endloop
endfacet
facet normal 0.707106781186547 0.7071067811865482 0.0
  outer loop
    vertex 178.50510714901546 -7.6263455967290845 3.0
    vertex 178.13959431704032 -7.150000000000035 0.0
    vertex 178.13959431704032 -7.150000000000035 3.0
  endloop
endfacet
facet normal 0.707106781186547 0.7071067811865482 0.0
  outer loop
    vertex 178.50510714901546 -7.6263455967290845 3.0
    vertex 178.98145274574452 -7.991858428704241 0.0
    vertex 178.50510714901546 -7.6263455967290845 0.0
  endloop
endfacet
facet normal 0.49999999999999867 0.8660254037844394 0.0
  outer loop
    vertex 178.98145274574452 -7.991858428704241 0.0
    vertex 178.50510714901546 -7.6263455967290845 3.0
    vertex 178.98145274574452 -7.991858428704241 3.0
  endloop
endfacet
facet normal 0.49999999999999867 0.8660254037844394 0.0
  outer loop
    vertex 178.98145274574452 -7.991858428704241 3.0
    vertex 179.53616894200871 -8.22162940046489 0.0
    vertex 178.98145274574452 -7.991858428704241 0.0
  endloop
endfacet
facet normal 0.25881904510252135 0.965925826289068 0.0
  outer loop
    vertex 179.53616894200871 -8.22162940046489 0.0
    vertex 178.98145274574452 -7.991858428704241 3.0
    vertex 179.53616894200871 -8.22162940046489 3.0
  endloop
endfacet
facet normal 0.25881904510252135 0.965925826289068 0.0
  outer loop
    vertex 179.53616894200871 -8.22162940046489 3.0
    vertex 180.1314527457445 -8.300000000000043 0.0
    vertex 179.53616894200871 -8.22162940046489 0.0
  endloop
endfacet
facet normal 0.0 1.0 0.0
  outer loop
    vertex 180.1314527457445 -8.300000000000043 0.0
    vertex 179.53616894200871 -8.22162940046489 3.0
    vertex 180.1314527457445 -8.300000000000043 3.0
  endloop
endfacet
facet normal 0.0 1.0 0.0
  outer loop
    vertex 180.1314527457445 -8.300000000000043 3.0
    vertex 180.7267365494803 -8.22162940046489 0.0
    vertex 180.1314527457445 -8.300000000000043 0.0
  endloop
endfacet
facet normal -0.25881904510252135 0.965925826289068 0.0
  outer loop
    vertex 180.7267365494803 -8.22162940046489 0.0
    vertex 180.1314527457445 -8.300000000000043 3.0
    vertex 180.7267365494803 -8.22162940046489 3.0
  endloop
endfacet
facet normal -0.25881904510252135 0.965925826289068 0.0
  outer loop
    vertex 180.7267365494803 -8.22162940046489 3.0
    vertex 181.28145274574453 -7.991858428704241 0.0
    vertex 180.7267365494803 -8.22162940046489 0.0
  endloop
endfacet
facet normal -0.49999999999999867 0.8660254037844394 0.0
  outer loop
    vertex 181.28145274574453 -7.991858428704241 0.0
    vertex 180.7267365494803 -8.22162940046489 3.0
    vertex 181.28145274574453 -7.991858428704241 3.0
  endloop
endfacet
facet normal -0.49999999999999867 0.8660254037844394 0.0
  outer loop
    vertex 181.28145274574453 -7.991858428704241 3.0
    vertex 181.75779834247356 -7.6263455967290845 0.0
    vertex 181.28145274574453 -7.991858428704241 0.0
  endloop
endfacet
facet normal -0.7071067811865486 0.7071067811865466 0.0
  outer loop
    vertex 181.75779834247356 -7.6263455967290845 0.0
    vertex 181.28145274574453 -7.991858428704241 3.0
    vertex 181.75779834247356 -7.6263455967290845 3.0
  endloop
endfacet
facet normal -0.8660254037844282 0.500000000000018 0.0
  outer loop
    vertex 182.12331117444873 -7.150000000000035 3.0
    vertex 181.75779834247356 -7.6263455967290845 0.0
    vertex 181.75779834247356 -7.6263455967290845 3.0
  endloop
endfacet
facet normal -0.7071067811865486 0.7071067811865466 0.0
  outer loop
    vertex 181.75779834247356 -7.6263455967290845 0.0
    vertex 182.12331117444873 -7.150000000000035 3.0
    vertex 182.12331117444873 -7.150000000000035 0.0
  endloop
endfacet
facet normal -0.9238795325112691 0.3826834323651326 0.0
  outer loop
    vertex 182.1530564194926 -7.078188625999016 3.0
    vertex 182.12331117444873 -7.150000000000035 0.0
    vertex 182.12331117444873 -7.150000000000035 3.0
  endloop
endfacet
facet normal -0.8660254037844282 0.500000000000018 0.0
  outer loop
    vertex 182.12331117444873 -7.150000000000035 0.0
    vertex 182.1530564194926 -7.078188625999016 3.0
    vertex 182.1530564194926 -7.078188625999016 0.0
  endloop
endfacet
facet normal -0.9659258262890691 0.25881904510251774 0.0
  outer loop
    vertex 182.35308214620937 -6.595283803735831 3.0
    vertex 182.1530564194926 -7.078188625999016 0.0
    vertex 182.1530564194926 -7.078188625999016 3.0
  endloop
endfacet
facet normal -0.9238795325112888 0.3826834323650846 0.0
  outer loop
    vertex 182.1530564194926 -7.078188625999016 0.0
    vertex 182.35308214620937 -6.595283803735831 3.0
    vertex 182.35308214620937 -6.595283803735831 0.0
  endloop
endfacet
facet normal -1.0 0.0 0.0
  outer loop
    vertex 182.4314527457445 -6.000000000000026 3.0
    vertex 182.35308214620937 -6.595283803735831 0.0
    vertex 182.35308214620937 -6.595283803735831 3.0
  endloop
endfacet
facet normal -0.9659258262890691 0.25881904510251774 0.0
  outer loop
    vertex 182.35308214620937 -6.595283803735831 0.0
    vertex 182.4314527457445 -6.000000000000026 3.0
    vertex 182.4314527457445 -6.000000000000026 0.0
  endloop
endfacet
facet normal -0.965925826289069 -0.2588190451025183 0.0
  outer loop
    vertex 182.35308214620937 -5.404716196264243 3.0
    vertex 182.4314527457445 -6.000000000000026 0.0
    vertex 182.4314527457445 -6.000000000000026 3.0
  endloop
endfacet
facet normal -1.0 0.0 0.0
  outer loop
    vertex 182.4314527457445 -6.000000000000026 0.0
    vertex 182.35308214620937 -5.404716196264243 3.0
    vertex 182.35308214620937 -5.404716196264243 0.0
  endloop
endfacet
facet normal -0.9238795325112886 -0.3826834323650857 0.0
  outer loop
    vertex 182.1530564194926 -4.921811374001058 3.0
    vertex 182.35308214620937 -5.404716196264243 0.0
    vertex 182.35308214620937 -5.404716196264243 3.0
  endloop
endfacet
facet normal -0.965925826289069 -0.2588190451025183 0.0
  outer loop
    vertex 182.35308214620937 -5.404716196264243 0.0
    vertex 182.1530564194926 -4.921811374001058 3.0
    vertex 182.1530564194926 -4.921811374001058 0.0
  endloop
endfacet
facet normal -0.8660254037844287 -0.5000000000000173 0.0
  outer loop
    vertex 182.12331117444873 -4.850000000000039 3.0
    vertex 182.1530564194926 -4.921811374001058 0.0
    vertex 182.1530564194926 -4.921811374001058 3.0
  endloop
endfacet
facet normal -0.9238795325112691 -0.3826834323651327 0.0
  outer loop
    vertex 182.1530564194926 -4.921811374001058 0.0
    vertex 182.12331117444873 -4.850000000000039 3.0
    vertex 182.12331117444873 -4.850000000000039 0.0
  endloop
endfacet
facet normal -0.707106781186549 -0.707106781186546 0.0
  outer loop
    vertex 181.75779834247356 -4.373654403270967 3.0
    vertex 182.12331117444873 -4.850000000000039 0.0
    vertex 182.12331117444873 -4.850000000000039 3.0
  endloop
endfacet
facet normal -0.8660254037844287 -0.5000000000000173 0.0
  outer loop
    vertex 182.12331117444873 -4.850000000000039 0.0
    vertex 181.75779834247356 -4.373654403270967 3.0
    vertex 181.75779834247356 -4.373654403270967 0.0
  endloop
endfacet
facet normal -0.707106781186549 -0.707106781186546 0.0
  outer loop
    vertex 181.75779834247356 -4.373654403270967 3.0
    vertex 181.28145274574453 -4.008141571295833 0.0
    vertex 181.75779834247356 -4.373654403270967 0.0
  endloop
endfacet
facet normal -0.49999999999999867 -0.8660254037844394 0.0
  outer loop
    vertex 181.28145274574453 -4.008141571295833 0.0
    vertex 181.75779834247356 -4.373654403270967 3.0
    vertex 181.28145274574453 -4.008141571295833 3.0
  endloop
endfacet
facet normal -0.49999999999999867 -0.8660254037844394 0.0
  outer loop
    vertex 181.28145274574453 -4.008141571295833 3.0
    vertex 180.7267365494803 -3.7783705995351835 0.0
    vertex 181.28145274574453 -4.008141571295833 0.0
  endloop
endfacet
facet normal -0.25881904510252024 -0.9659258262890684 0.0
  outer loop
    vertex 180.7267365494803 -3.7783705995351835 0.0
    vertex 181.28145274574453 -4.008141571295833 3.0
    vertex 180.7267365494803 -3.7783705995351835 3.0
  endloop
endfacet
facet normal -0.25881904510252024 -0.9659258262890684 0.0
  outer loop
    vertex 180.7267365494803 -3.7783705995351835 3.0
    vertex 180.1314527457445 -3.70000000000003 0.0
    vertex 180.7267365494803 -3.7783705995351835 0.0
  endloop
endfacet
facet normal 0.0 -1.0 0.0
  outer loop
    vertex 180.1314527457445 -3.70000000000003 0.0
    vertex 180.7267365494803 -3.7783705995351835 3.0
    vertex 180.1314527457445 -3.70000000000003 3.0
  endloop
endfacet
facet normal 0.0 -1.0 0.0
  outer loop
    vertex 180.1314527457445 -3.70000000000003 3.0
    vertex 179.53616894200871 -3.7783705995351835 0.0
    vertex 180.1314527457445 -3.70000000000003 0.0
  endloop
endfacet
facet normal 0.25881904510251924 -0.9659258262890686 0.0
  outer loop
    vertex 179.53616894200871 -3.7783705995351835 0.0
    vertex 180.1314527457445 -3.70000000000003 3.0
    vertex 179.53616894200871 -3.7783705995351835 3.0
  endloop
endfacet
facet normal 0.25881904510251924 -0.9659258262890686 0.0
  outer loop
    vertex 179.53616894200871 -3.7783705995351835 3.0
    vertex 178.98145274574452 -4.008141571295833 0.0
    vertex 179.53616894200871 -3.7783705995351835 0.0
  endloop
endfacet
facet normal 0.4999999999999986 -0.8660254037844395 0.0
  outer loop
    vertex 178.98145274574452 -4.008141571295833 0.0
    vertex 179.53616894200871 -3.7783705995351835 3.0
    vertex 178.98145274574452 -4.008141571295833 3.0
  endloop
endfacet
facet normal 0.4999999999999986 -0.8660254037844395 0.0
  outer loop
    vertex 178.98145274574452 -4.008141571295833 3.0
    vertex 178.50510714901546 -4.373654403270967 0.0
    vertex 178.98145274574452 -4.008141571295833 0.0
  endloop
endfacet
facet normal 0.7071067811865465 -0.7071067811865487 0.0
  outer loop
    vertex 178.50510714901546 -4.373654403270967 0.0
    vertex 178.98145274574452 -4.008141571295833 3.0
    vertex 178.50510714901546 -4.373654403270967 3.0
  endloop
endfacet
facet normal 0.7071067811865465 -0.7071067811865487 0.0
  outer loop
    vertex 178.50510714901546 -4.373654403270967 0.0
    vertex 178.13959431704032 -4.850000000000039 3.0
    vertex 178.13959431704032 -4.850000000000039 0.0
  endloop
endfacet
facet normal 0.8660254037844433 -0.4999999999999922 0.0
  outer loop
    vertex 178.13959431704032 -4.850000000000039 3.0
    vertex 178.50510714901546 -4.373654403270967 0.0
    vertex 178.50510714901546 -4.373654403270967 3.0
  endloop
endfacet
facet normal 0.8660254037844433 -0.4999999999999922 0.0
  outer loop
    vertex 178.13959431704032 -4.850000000000039 0.0
    vertex 178.10984907199642 -4.921811374001058 3.0
    vertex 178.10984907199642 -4.921811374001058 0.0
  endloop
endfacet
facet normal 0.9238795325112946 -0.3826834323650707 0.0
  outer loop
    vertex 178.10984907199642 -4.921811374001058 3.0
    vertex 178.13959431704032 -4.850000000000039 0.0
    vertex 178.13959431704032 -4.850000000000039 3.0
  endloop
endfacet
facet normal 0.9238795325112886 -0.3826834323650857 0.0
  outer loop
    vertex 178.10984907199642 -4.921811374001058 0.0
    vertex 177.90982334527968 -5.404716196264243 3.0
    vertex 177.90982334527968 -5.404716196264243 0.0
  endloop
endfacet
facet normal 0.9659258262890679 -0.2588190451025227 0.0
  outer loop
    vertex 177.90982334527968 -5.404716196264243 3.0
    vertex 178.10984907199642 -4.921811374001058 0.0
    vertex 178.10984907199642 -4.921811374001058 3.0
  endloop
endfacet
facet normal -0.2842291392958226 0.2840356492320924 -0.9157169575477236
  outer loop
    vertex 181.75779834247356 -7.6263455967290845 3.0
    vertex 181.28145274574453 -7.991858428704241 3.0
    vertex 180.1314527457445 -6.026139572577227 3.9999999999999996
  endloop
endfacet
facet normal -0.35683010768076306 0.08423575064593496 -0.9303636990799086
  outer loop
    vertex 180.15409027964043 -6.0130697862886375 3.9999999999999996
    vertex 182.1530564194926 -7.078188625999016 3.0
    vertex 182.12331117444873 -7.150000000000035 3.0
  endloop
endfacet
facet normal -0.3746101767102463 0.15516861579636487 -0.914106074904307
  outer loop
    vertex 182.1530564194926 -7.078188625999016 3.0
    vertex 180.15409027964043 -6.0130697862886375 3.9999999999999996
    vertex 182.35308214620937 -6.595283803735831 3.0
  endloop
endfacet
facet normal -0.20116219650639222 0.34810717696880905 -0.915617367703087
  outer loop
    vertex 181.28145274574453 -7.991858428704241 3.0
    vertex 180.7267365494803 -8.22162940046489 3.0
    vertex 180.1314527457445 -6.026139572577227 3.9999999999999996
  endloop
endfacet
facet normal -0.4020507567478722 -0.00015798397120981992 -0.915617367703086
  outer loop
    vertex 182.4314527457445 -6.000000000000026 3.0
    vertex 180.15409027964043 -6.0130697862886375 3.9999999999999996
    vertex 182.35308214620937 -5.404716196264243 3.0
  endloop
endfacet
facet normal -0.34833540922852185 -0.20103862186279225 -0.9155577071911456
  outer loop
    vertex 182.12331117444873 -4.850000000000039 3.0
    vertex 180.15409027964043 -6.0130697862886375 3.9999999999999996
    vertex 180.15409027964043 -5.986930213711436 3.9999999999999996
  endloop
endfacet
facet normal -0.35683010768076306 0.08423575064593496 -0.9303636990799086
  outer loop
    vertex 180.15409027964043 -6.0130697862886375 3.9999999999999996
    vertex 182.12331117444873 -4.850000000000039 3.0
    vertex 182.1530564194926 -4.921811374001058 3.0
  endloop
endfacet
facet normal -0.35683010768076306 0.08423575064593496 -0.9303636990799086
  outer loop
    vertex 180.15409027964043 -6.0130697862886375 3.9999999999999996
    vertex 182.1530564194926 -4.921811374001058 3.0
    vertex 182.35308214620937 -5.404716196264243 3.0
  endloop
endfacet
facet normal -0.34833540922852185 -0.20103862186279225 -0.9155577071911456
  outer loop
    vertex 182.12331117444873 -4.850000000000039 3.0
    vertex 180.15409027964043 -5.986930213711436 3.9999999999999996
    vertex 181.75779834247356 -4.373654403270967 3.0
  endloop
endfacet
facet normal -0.2845088034489319 -0.2846246814548203 -0.9154471756834465
  outer loop
    vertex 181.75779834247356 -4.373654403270967 3.0
    vertex 180.15409027964043 -5.986930213711436 3.9999999999999996
    vertex 181.28145274574453 -4.008141571295833 3.0
  endloop
endfacet
facet normal -0.2008885602414768 -0.34826516094001925 -0.9156173677030864
  outer loop
    vertex 181.28145274574453 -4.008141571295833 3.0
    vertex 180.15409027964043 -5.986930213711436 3.9999999999999996
    vertex 180.7267365494803 -3.7783705995351835 3.0
  endloop
endfacet
facet normal -0.10386751816748735 -0.3881674797420149 -0.9157169575477233
  outer loop
    vertex 180.7267365494803 -3.7783705995351835 3.0
    vertex 180.1314527457445 -5.973860427422847 3.9999999999999996
    vertex 180.1314527457445 -3.70000000000003 3.0
  endloop
endfacet
facet normal 0.10545379686395963 -0.3511509439493061 -0.9303614949526265
  outer loop
    vertex 180.1314527457445 -5.973860427422847 3.9999999999999996
    vertex 180.7267365494803 -3.7783705995351835 3.0
    vertex 180.15409027964043 -5.986930213711436 3.9999999999999996
  endloop
endfacet
facet normal 0.35683010768076256 -0.08423575064592012 -0.9303636990799103
  outer loop
    vertex 180.10881521184862 -5.986930213711436 3.9999999999999996
    vertex 177.90982334527968 -6.595283803735831 3.0
    vertex 177.8314527457445 -6.000000000000026 3.0
  endloop
endfacet
facet normal 0.3479554838346382 0.20091739834283276 -0.9157287700583345
  outer loop
    vertex 180.10881521184862 -6.0130697862886375 3.9999999999999996
    vertex 178.50510714901546 -7.6263455967290845 3.0
    vertex 178.13959431704032 -7.150000000000035 3.0
  endloop
endfacet
facet normal 0.28422913929582094 0.2840356492320932 -0.9157169575477239
  outer loop
    vertex 178.50510714901546 -7.6263455967290845 3.0
    vertex 180.10881521184862 -6.0130697862886375 3.9999999999999996
    vertex 180.1314527457445 -6.026139572577227 3.9999999999999996
  endloop
endfacet
facet normal 0.37461017671024355 -0.15516861579636257 -0.9141060749043084
  outer loop
    vertex 178.10984907199642 -4.921811374001058 3.0
    vertex 180.10881521184862 -5.986930213711436 3.9999999999999996
    vertex 177.90982334527968 -5.404716196264243 3.0
  endloop
endfacet
facet normal 0.35683010768076256 -0.08423575064592012 -0.9303636990799103
  outer loop
    vertex 180.10881521184862 -5.986930213711436 3.9999999999999996
    vertex 178.10984907199642 -4.921811374001058 3.0
    vertex 178.13959431704032 -4.850000000000039 3.0
  endloop
endfacet
facet normal 0.35683010768076256 -0.08423575064592012 -0.9303636990799103
  outer loop
    vertex 180.10881521184862 -5.986930213711436 3.9999999999999996
    vertex 177.8314527457445 -6.000000000000026 3.0
    vertex 177.90982334527968 -5.404716196264243 3.0
  endloop
endfacet
facet normal 0.35683010768076256 -0.08423575064592012 -0.9303636990799103
  outer loop
    vertex 180.10881521184862 -5.986930213711436 3.9999999999999996
    vertex 178.10984907199642 -7.078188625999016 3.0
    vertex 177.90982334527968 -6.595283803735831 3.0
  endloop
endfacet
facet normal 0.3740069777519147 0.1546747288771059 -0.9144367166948583
  outer loop
    vertex 178.10984907199642 -7.078188625999016 3.0
    vertex 180.10881521184862 -5.986930213711436 3.9999999999999996
    vertex 178.13959431704032 -7.150000000000035 3.0
  endloop
endfacet
facet normal 0.3479554739667132 0.20091741542996983 -0.9157287700588755
  outer loop
    vertex 178.13959431704032 -7.150000000000035 3.0
    vertex 180.10881521184862 -5.986930213711436 3.9999999999999996
    vertex 180.10881521184862 -6.0130697862886375 3.9999999999999996
  endloop
endfacet
facet normal 0.28422913929582116 -0.2840356492320933 -0.9157169575477239
  outer loop
    vertex 178.50510714901546 -4.373654403270967 3.0
    vertex 180.10881521184862 -5.986930213711436 3.9999999999999996
    vertex 178.13959431704032 -4.850000000000039 3.0
  endloop
endfacet
facet normal 0.35683010768076256 -0.08423575064592012 -0.9303636990799103
  outer loop
    vertex 180.10881521184862 -5.986930213711436 3.9999999999999996
    vertex 178.50510714901546 -4.373654403270967 3.0
    vertex 180.1314527457445 -5.973860427422847 3.9999999999999996
  endloop
endfacet
facet normal 3.240362110749987e-14 0.3012630158778767 -0.9535410821061493
  outer loop
    vertex 180.1314527457445 -6.026139572577227 3.9999999999999996
    vertex 178.98145274574452 -7.991858428704241 3.0
    vertex 178.50510714901546 -7.6263455967290845 3.0
  endloop
endfacet
facet normal 3.240362110749987e-14 0.3012630158778767 -0.9535410821061493
  outer loop
    vertex 180.1314527457445 -6.026139572577227 3.9999999999999996
    vertex 179.53616894200871 -8.22162940046489 3.0
    vertex 178.98145274574452 -7.991858428704241 3.0
  endloop
endfacet
facet normal -0.4020507567478722 -0.00015798397120981992 -0.915617367703086
  outer loop
    vertex 182.4314527457445 -6.000000000000026 3.0
    vertex 182.35308214620937 -6.595283803735831 3.0
    vertex 180.15409027964043 -6.0130697862886375 3.9999999999999996
  endloop
endfacet
facet normal 0.0 -0.5344376772254161 0.8452078851749445
  outer loop
    vertex 210.13145274574453 -12.000000000000037 1.9999999999999998
    vertex 150.1314527457445 -7.999109787417265 4.529823147123221
    vertex 150.1314527457445 -12.000000000000037 1.9999999999999998
  endloop
endfacet
facet normal 0.0 -0.5344376772254161 0.8452078851749445
  outer loop
    vertex 150.1314527457445 -7.999109787417265 4.529823147123221
    vertex 210.13145274574453 -12.000000000000037 1.9999999999999998
    vertex 210.13145274574453 -7.999109787417265 4.529823147123221
  endloop
endfacet
facet normal 0.0 1.0 0.0
  outer loop
    vertex 150.1314527457445 -4.000029449042771 4.505426617316192
    vertex 171.63145274574453 -4.000029449042771 15.005426617316184
    vertex 210.13145274574453 -4.000029449042771 4.505426617316192
  endloop
endfacet
facet normal 0.0 1.0 0.0
  outer loop
    vertex 171.63145274574453 -4.000029449042771 15.005426617316184
    vertex 150.1314527457445 -4.000029449042771 4.505426617316192
    vertex 150.1314527457445 -4.000029449042771 40.00542661731618
  endloop
endfacet
facet normal 0.0 1.0 0.0
  outer loop
    vertex 171.63145274574453 -4.000029449042771 15.005426617316184
    vertex 150.1314527457445 -4.000029449042771 40.00542661731618
    vertex 171.63145274574453 -4.000029449042771 28.005426617316186
  endloop
endfacet
facet normal 0.0 1.0 0.0
  outer loop
    vertex 171.63145274574453 -4.000029449042771 28.005426617316186
    vertex 150.1314527457445 -4.000029449042771 40.00542661731618
    vertex 172.4125385800083 -4.000029449042771 28.62231216018531
  endloop
endfacet
facet normal 0.0 1.0 0.0
  outer loop
    vertex 172.4125385800083 -4.000029449042771 28.62231216018531
    vertex 150.1314527457445 -4.000029449042771 40.00542661731618
    vertex 173.22814361265645 -4.000029449042771 29.192778008599955
  endloop
endfacet
facet normal 0.0 1.0 0.0
  outer loop
    vertex 173.22814361265645 -4.000029449042771 29.192778008599955
    vertex 150.1314527457445 -4.000029449042771 40.00542661731618
    vertex 174.0755127533273 -4.000029449042771 29.714897145318034
  endloop
endfacet
facet normal 0.0 1.0 0.0
  outer loop
    vertex 174.0755127533273 -4.000029449042771 29.714897145318034
    vertex 150.1314527457445 -4.000029449042771 40.00542661731618
    vertex 174.951783613415 -4.000029449042771 30.186905866900165
  endloop
endfacet
facet normal 0.0 1.0 0.0
  outer loop
    vertex 174.951783613415 -4.000029449042771 30.186905866900165
    vertex 150.1314527457445 -4.000029449042771 40.00542661731618
    vertex 175.85399617513616 -4.000029449042771 30.607209741449278
  endloop
endfacet
facet normal 0.0 1.0 0.0
  outer loop
    vertex 175.85399617513616 -4.000029449042771 30.607209741449278
    vertex 150.1314527457445 -4.000029449042771 40.00542661731618
    vertex 176.77910279038474 -4.000029449042771 30.97438899455568
  endloop
endfacet
facet normal 0.0 1.0 0.0
  outer loop
    vertex 176.77910279038474 -4.000029449042771 30.97438899455568
    vertex 150.1314527457445 -4.000029449042771 40.00542661731618
    vertex 177.72397847559978 -4.000029449042771 31.28720330525424
  endloop
endfacet
facet normal 0.0 1.0 0.0
  outer loop
    vertex 177.72397847559978 -4.000029449042771 31.28720330525424
    vertex 150.1314527457445 -4.000029449042771 40.00542661731618
    vertex 178.68543146787016 -4.000029449042771 31.544595995792967
  endloop
endfacet
facet normal 0.0 1.0 0.0
  outer loop
    vertex 178.68543146787016 -4.000029449042771 31.544595995792967
    vertex 150.1314527457445 -4.000029449042771 40.00542661731618
    vertex 179.66021400661788 -4.000029449042771 31.745697601060073
  endloop
endfacet
facet normal 0.0 1.0 0.0
  outer loop
    vertex 179.66021400661788 -4.000029449042771 31.745697601060073
    vertex 150.1314527457445 -4.000029449042771 40.00542661731618
    vertex 180.64503330443998 -4.000029449042771 31.889828805612158
  endloop
endfacet
facet normal 0.0 1.0 0.0
  outer loop
    vertex 180.64503330443998 -4.000029449042771 31.889828805612158
    vertex 150.1314527457445 -4.000029449042771 40.00542661731618
    vertex 181.6365626700498 -4.000029449042771 31.976502738382223
  endloop
endfacet
facet normal 0.0 1.0 0.0
  outer loop
    vertex 181.6365626700498 -4.000029449042771 31.976502738382223
    vertex 150.1314527457445 -4.000029449042771 40.00542661731618
    vertex 182.63145274574453 -4.000029449042771 32.00542661731619
  endloop
endfacet
facet normal 0.0 1.0 0.0
  outer loop
    vertex 210.13145274574453 -4.000029449042771 4.505426617316192
    vertex 193.63145274574453 -4.000029449042771 15.005426617316184
    vertex 210.13145274574453 -4.000029449042771 40.00542661731618
  endloop
endfacet
facet normal 0.0 1.0 0.0
  outer loop
    vertex 193.63145274574453 -4.000029449042771 15.005426617316184
    vertex 210.13145274574453 -4.000029449042771 4.505426617316192
    vertex 171.63145274574453 -4.000029449042771 15.005426617316184
  endloop
endfacet
facet normal 0.0 1.0 0.0
  outer loop
    vertex 210.13145274574453 -4.000029449042771 40.00542661731618
    vertex 193.63145274574453 -4.000029449042771 15.005426617316184
    vertex 193.63145274574453 -4.000029449042771 28.005426617316186
  endloop
endfacet
facet normal 0.0 1.0 0.0
  outer loop
    vertex 210.13145274574453 -4.000029449042771 40.00542661731618
    vertex 193.63145274574453 -4.000029449042771 28.005426617316186
    vertex 192.85036691148076 -4.000029449042771 28.6223121601853
  endloop
endfacet
facet normal 0.0 1.0 0.0
  outer loop
    vertex 210.13145274574453 -4.000029449042771 40.00542661731618
    vertex 192.85036691148076 -4.000029449042771 28.6223121601853
    vertex 192.03476187883263 -4.000029449042771 29.19277800859995
  endloop
endfacet
facet normal 0.0 1.0 0.0
  outer loop
    vertex 210.13145274574453 -4.000029449042771 40.00542661731618
    vertex 192.03476187883263 -4.000029449042771 29.19277800859995
    vertex 191.18739273816178 -4.000029449042771 29.71489714531802
  endloop
endfacet
facet normal 0.0 1.0 0.0
  outer loop
    vertex 210.13145274574453 -4.000029449042771 40.00542661731618
    vertex 191.18739273816178 -4.000029449042771 29.71489714531802
    vertex 190.3111218780741 -4.000029449042771 30.18690586690016
  endloop
endfacet
facet normal 0.0 1.0 0.0
  outer loop
    vertex 210.13145274574453 -4.000029449042771 40.00542661731618
    vertex 190.3111218780741 -4.000029449042771 30.18690586690016
    vertex 189.40890931635292 -4.000029449042771 30.607209741449267
  endloop
endfacet
facet normal 0.0 1.0 0.0
  outer loop
    vertex 210.13145274574453 -4.000029449042771 40.00542661731618
    vertex 189.40890931635292 -4.000029449042771 30.607209741449267
    vertex 188.48380270110434 -4.000029449042771 30.974388994555667
  endloop
endfacet
facet normal 0.0 1.0 0.0
  outer loop
    vertex 210.13145274574453 -4.000029449042771 40.00542661731618
    vertex 188.48380270110434 -4.000029449042771 30.974388994555667
    vertex 187.53892701588927 -4.000029449042771 31.28720330525423
  endloop
endfacet
facet normal 0.0 1.0 0.0
  outer loop
    vertex 210.13145274574453 -4.000029449042771 40.00542661731618
    vertex 187.53892701588927 -4.000029449042771 31.28720330525423
    vertex 186.5774740236189 -4.000029449042771 31.544595995792953
  endloop
endfacet
facet normal 0.0 1.0 0.0
  outer loop
    vertex 210.13145274574453 -4.000029449042771 40.00542661731618
    vertex 186.5774740236189 -4.000029449042771 31.544595995792953
    vertex 185.60269148487117 -4.000029449042771 31.745697601060062
  endloop
endfacet
facet normal 0.0 1.0 0.0
  outer loop
    vertex 210.13145274574453 -4.000029449042771 40.00542661731618
    vertex 185.60269148487117 -4.000029449042771 31.745697601060062
    vertex 184.61787218704907 -4.000029449042771 31.889828805612144
  endloop
endfacet
facet normal 0.0 1.0 0.0
  outer loop
    vertex 210.13145274574453 -4.000029449042771 40.00542661731618
    vertex 184.61787218704907 -4.000029449042771 31.889828805612144
    vertex 183.62634282143924 -4.000029449042771 31.97650273838222
  endloop
endfacet
facet normal 0.0 1.0 0.0
  outer loop
    vertex 210.13145274574453 -4.000029449042771 40.00542661731618
    vertex 183.62634282143924 -4.000029449042771 31.97650273838222
    vertex 182.63145274574453 -4.000029449042771 32.00542661731619
  endloop
endfacet
facet normal 0.0 1.0 0.0
  outer loop
    vertex 210.13145274574453 -4.000029449042771 40.00542661731618
    vertex 182.63145274574453 -4.000029449042771 32.00542661731619
    vertex 150.1314527457445 -4.000029449042771 40.00542661731618
  endloop
endfacet
facet normal 0.0 -1.0 0.0
  outer loop
    vertex 210.13145274574453 -7.999109787417265 4.529823147123221
    vertex 193.63145274574453 -7.999109787417265 15.005426617316184
    vertex 150.1314527457445 -7.999109787417265 4.529823147123221
  endloop
endfacet
facet normal 0.0 -1.0 0.0
  outer loop
    vertex 193.63145274574453 -7.999109787417265 15.005426617316184
    vertex 210.13145274574453 -7.999109787417265 4.529823147123221
    vertex 210.13145274574453 -7.999109787417265 40.02982314712323
  endloop
endfacet
facet normal 0.0 -1.0 0.0
  outer loop
    vertex 193.63145274574453 -7.999109787417265 15.005426617316184
    vertex 210.13145274574453 -7.999109787417265 40.02982314712323
    vertex 193.63145274574453 -7.999109787417243 28.005426617316186
  endloop
endfacet
facet normal 0.0 -1.0 0.0
  outer loop
    vertex 193.63145274574453 -7.999109787417243 28.005426617316186
    vertex 210.13145274574453 -7.999109787417265 40.02982314712323
    vertex 192.85036691148076 -7.999109787417243 28.6223121601853
  endloop
endfacet
facet normal 0.0 -1.0 0.0
  outer loop
    vertex 192.85036691148076 -7.999109787417243 28.6223121601853
    vertex 210.13145274574453 -7.999109787417265 40.02982314712323
    vertex 192.03476187883263 -7.999109787417243 29.19277800859995
  endloop
endfacet
facet normal 0.0 -1.0 0.0
  outer loop
    vertex 192.03476187883263 -7.999109787417243 29.19277800859995
    vertex 210.13145274574453 -7.999109787417265 40.02982314712323
    vertex 191.18739273816178 -7.999109787417243 29.71489714531802
  endloop
endfacet
facet normal 0.0 -1.0 0.0
  outer loop
    vertex 191.18739273816178 -7.999109787417243 29.71489714531802
    vertex 210.13145274574453 -7.999109787417265 40.02982314712323
    vertex 190.3111218780741 -7.999109787417243 30.18690586690016
  endloop
endfacet
facet normal 0.0 -1.0 0.0
  outer loop
    vertex 190.3111218780741 -7.999109787417243 30.18690586690016
    vertex 210.13145274574453 -7.999109787417265 40.02982314712323
    vertex 189.40890931635292 -7.999109787417243 30.607209741449267
  endloop
endfacet
facet normal 0.0 -1.0 0.0
  outer loop
    vertex 189.40890931635292 -7.999109787417243 30.607209741449267
    vertex 210.13145274574453 -7.999109787417265 40.02982314712323
    vertex 188.48380270110434 -7.999109787417243 30.974388994555667
  endloop
endfacet
facet normal 0.0 -1.0 0.0
  outer loop
    vertex 188.48380270110434 -7.999109787417243 30.974388994555667
    vertex 210.13145274574453 -7.999109787417265 40.02982314712323
    vertex 187.53892701588927 -7.999109787417243 31.28720330525423
  endloop
endfacet
facet normal 0.0 -1.0 0.0
  outer loop
    vertex 187.53892701588927 -7.999109787417243 31.28720330525423
    vertex 210.13145274574453 -7.999109787417265 40.02982314712323
    vertex 186.5774740236189 -7.999109787417243 31.544595995792953
  endloop
endfacet
facet normal 0.0 -1.0 0.0
  outer loop
    vertex 186.5774740236189 -7.999109787417243 31.544595995792953
    vertex 210.13145274574453 -7.999109787417265 40.02982314712323
    vertex 185.60269148487117 -7.999109787417243 31.745697601060062
  endloop
endfacet
facet normal 0.0 -1.0 0.0
  outer loop
    vertex 185.60269148487117 -7.999109787417243 31.745697601060062
    vertex 210.13145274574453 -7.999109787417265 40.02982314712323
    vertex 184.61787218704907 -7.999109787417243 31.889828805612144
  endloop
endfacet
facet normal 0.0 -1.0 0.0
  outer loop
    vertex 184.61787218704907 -7.999109787417243 31.889828805612144
    vertex 210.13145274574453 -7.999109787417265 40.02982314712323
    vertex 183.62634282143924 -7.999109787417243 31.97650273838222
  endloop
endfacet
facet normal 0.0 -1.0 0.0
  outer loop
    vertex 183.62634282143924 -7.999109787417243 31.97650273838222
    vertex 210.13145274574453 -7.999109787417265 40.02982314712323
    vertex 182.63145274574453 -7.999109787417243 32.00542661731619
  endloop
endfacet
facet normal 0.0 -1.0 0.0
  outer loop
    vertex 150.1314527457445 -7.999109787417265 4.529823147123221
    vertex 171.63145274574453 -7.999109787417265 15.005426617316184
    vertex 150.1314527457445 -7.999109787417265 40.02982314712323
  endloop
endfacet
facet normal 0.0 -1.0 0.0
  outer loop
    vertex 171.63145274574453 -7.999109787417265 15.005426617316184
    vertex 150.1314527457445 -7.999109787417265 4.529823147123221
    vertex 193.63145274574453 -7.999109787417265 15.005426617316184
  endloop
endfacet
facet normal 0.0 -1.0 0.0
  outer loop
    vertex 150.1314527457445 -7.999109787417265 40.02982314712323
    vertex 171.63145274574453 -7.999109787417265 15.005426617316184
    vertex 171.63145274574453 -7.999109787417243 28.005426617316186
  endloop
endfacet
facet normal 0.0 -1.0 0.0
  outer loop
    vertex 150.1314527457445 -7.999109787417265 40.02982314712323
    vertex 171.63145274574453 -7.999109787417243 28.005426617316186
    vertex 172.4125385800083 -7.999109787417243 28.62231216018531
  endloop
endfacet
facet normal 0.0 -1.0 0.0
  outer loop
    vertex 150.1314527457445 -7.999109787417265 40.02982314712323
    vertex 172.4125385800083 -7.999109787417243 28.62231216018531
    vertex 173.22814361265645 -7.999109787417243 29.192778008599955
  endloop
endfacet
facet normal 0.0 -1.0 0.0
  outer loop
    vertex 150.1314527457445 -7.999109787417265 40.02982314712323
    vertex 173.22814361265645 -7.999109787417243 29.192778008599955
    vertex 174.0755127533273 -7.999109787417243 29.714897145318034
  endloop
endfacet
facet normal 0.0 -1.0 0.0
  outer loop
    vertex 150.1314527457445 -7.999109787417265 40.02982314712323
    vertex 174.0755127533273 -7.999109787417243 29.714897145318034
    vertex 174.951783613415 -7.999109787417243 30.186905866900165
  endloop
endfacet
facet normal 0.0 -1.0 0.0
  outer loop
    vertex 150.1314527457445 -7.999109787417265 40.02982314712323
    vertex 174.951783613415 -7.999109787417243 30.186905866900165
    vertex 175.85399617513616 -7.999109787417243 30.607209741449278
  endloop
endfacet
facet normal 0.0 -1.0 0.0
  outer loop
    vertex 150.1314527457445 -7.999109787417265 40.02982314712323
    vertex 175.85399617513616 -7.999109787417243 30.607209741449278
    vertex 176.77910279038474 -7.999109787417243 30.97438899455568
  endloop
endfacet
facet normal 0.0 -1.0 0.0
  outer loop
    vertex 150.1314527457445 -7.999109787417265 40.02982314712323
    vertex 176.77910279038474 -7.999109787417243 30.97438899455568
    vertex 177.72397847559978 -7.999109787417243 31.28720330525424
  endloop
endfacet
facet normal 0.0 -1.0 0.0
  outer loop
    vertex 150.1314527457445 -7.999109787417265 40.02982314712323
    vertex 177.72397847559978 -7.999109787417243 31.28720330525424
    vertex 178.68543146787016 -7.999109787417243 31.544595995792967
  endloop
endfacet
facet normal 0.0 -1.0 0.0
  outer loop
    vertex 150.1314527457445 -7.999109787417265 40.02982314712323
    vertex 178.68543146787016 -7.999109787417243 31.544595995792967
    vertex 179.66021400661788 -7.999109787417243 31.745697601060073
  endloop
endfacet
facet normal 0.0 -1.0 0.0
  outer loop
    vertex 150.1314527457445 -7.999109787417265 40.02982314712323
    vertex 179.66021400661788 -7.999109787417243 31.745697601060073
    vertex 180.64503330443998 -7.999109787417243 31.889828805612158
  endloop
endfacet
facet normal 0.0 -1.0 0.0
  outer loop
    vertex 150.1314527457445 -7.999109787417265 40.02982314712323
    vertex 180.64503330443998 -7.999109787417243 31.889828805612158
    vertex 181.6365626700498 -7.999109787417243 31.976502738382223
  endloop
endfacet
facet normal 0.0 -1.0 0.0
  outer loop
    vertex 150.1314527457445 -7.999109787417265 40.02982314712323
    vertex 181.6365626700498 -7.999109787417243 31.976502738382223
    vertex 182.63145274574453 -7.999109787417243 32.00542661731619
  endloop
endfacet
facet normal 0.0 -1.0 0.0
  outer loop
    vertex 150.1314527457445 -7.999109787417265 40.02982314712323
    vertex 182.63145274574453 -7.999109787417243 32.00542661731619
    vertex 210.13145274574453 -7.999109787417265 40.02982314712323
  endloop
endfacet
facet normal 1.0 0.0 0.0
  outer loop
    vertex 210.13145274574453 -3.665956427312267e-14 0.0
    vertex 210.13145274574453 -12.000000000000037 1.9999999999999998
    vertex 210.13145274574453 -12.000000000000037 0.0
  endloop
endfacet
facet normal 1.0 0.0 0.0
  outer loop
    vertex 210.13145274574453 -12.000000000000037 1.9999999999999998
    vertex 210.13145274574453 -3.665956427312267e-14 0.0
    vertex 210.13145274574453 -7.999109787417265 4.529823147123221
  endloop
endfacet
facet normal 1.0 0.0 0.0
  outer loop
    vertex 210.13145274574453 -7.999109787417265 4.529823147123221
    vertex 210.13145274574453 -3.665956427312267e-14 0.0
    vertex 210.13145274574453 -4.000029449042771 4.505426617316192
  endloop
endfacet
facet normal 1.0 0.0 0.0
  outer loop
    vertex 210.13145274574453 -7.999109787417265 4.529823147123221
    vertex 210.13145274574453 -4.000029449042771 4.505426617316192
    vertex 210.13145274574453 -7.999109787417265 40.02982314712323
  endloop
endfacet
facet normal 1.0 0.0 0.0
  outer loop
    vertex 210.13145274574453 -4.000029449042771 4.505426617316192
    vertex 210.13145274574453 -3.665956427312267e-14 0.0
    vertex 210.13145274574453 -3.665956427312267e-14 1.9999999999999998
  endloop
endfacet
facet normal 1.0 0.0 0.0
  outer loop
    vertex 210.13145274574453 -4.000029449042771 40.00542661731618
    vertex 210.13145274574453 -7.999109787417265 40.02982314712323
    vertex 210.13145274574453 -4.000029449042771 4.505426617316192
  endloop
endfacet
facet normal 0.0 0.5308226598369291 0.8474829224259611
  outer loop
    vertex 210.13145274574453 -4.000029449042771 4.505426617316192
    vertex 150.1314527457445 -3.665956427312267e-14 1.9999999999999998
    vertex 150.1314527457445 -4.000029449042771 4.505426617316192
  endloop
endfacet
facet normal 0.0 0.5308226598369291 0.8474829224259611
  outer loop
    vertex 150.1314527457445 -3.665956427312267e-14 1.9999999999999998
    vertex 210.13145274574453 -4.000029449042771 4.505426617316192
    vertex 210.13145274574453 -3.665956427312267e-14 1.9999999999999998
  endloop
endfacet
facet normal -0.6197921008689445 -5.032957873198887e-31 -0.7847660490238221
  outer loop
    vertex 193.63145274574453 -4.000029449042771 28.005426617316186
    vertex 192.85036691148076 -7.999109787417243 28.6223121601853
    vertex 192.85036691148076 -4.000029449042771 28.6223121601853
  endloop
endfacet
facet normal -0.5967249147875191 -2.517542184266889e-31 -0.8024458711164436
  outer loop
    vertex 192.85036691148076 -7.999109787417243 28.6223121601853
    vertex 193.63145274574453 -4.000029449042771 28.005426617316186
    vertex 193.63145274574453 -7.999109787417243 28.005426617316186
  endloop
endfacet
facet normal -0.5967249147875191 -2.517542184266889e-31 -0.8024458711164436
  outer loop
    vertex 192.85036691148076 -4.000029449042771 28.6223121601853
    vertex 192.03476187883263 -7.999109787417243 29.19277800859995
    vertex 192.03476187883263 -4.000029449042771 29.19277800859995
  endloop
endfacet
facet normal -0.5490983435379913 0.0 -0.8357577454764235
  outer loop
    vertex 192.03476187883263 -7.999109787417243 29.19277800859995
    vertex 192.85036691148076 -4.000029449042771 28.6223121601853
    vertex 192.85036691148076 -7.999109787417243 28.6223121601853
  endloop
endfacet
facet normal -0.5490983435379913 0.0 -0.8357577454764235
  outer loop
    vertex 192.03476187883263 -4.000029449042771 29.19277800859995
    vertex 191.18739273816178 -7.999109787417243 29.71489714531802
    vertex 191.18739273816178 -4.000029449042771 29.71489714531802
  endloop
endfacet
facet normal -0.4996169338637809 0.0 -0.8662464541898884
  outer loop
    vertex 191.18739273816178 -7.999109787417243 29.71489714531802
    vertex 192.03476187883263 -4.000029449042771 29.19277800859995
    vertex 192.03476187883263 -7.999109787417243 29.19277800859995
  endloop
endfacet
facet normal -0.4996169338637809 0.0 -0.8662464541898884
  outer loop
    vertex 191.18739273816178 -4.000029449042771 29.71489714531802
    vertex 190.3111218780741 -7.999109787417243 30.18690586690016
    vertex 190.3111218780741 -4.000029449042771 30.18690586690016
  endloop
endfacet
facet normal -0.4484478325447909 0.0 -0.8938090072749767
  outer loop
    vertex 190.3111218780741 -7.999109787417243 30.18690586690016
    vertex 191.18739273816178 -4.000029449042771 29.71489714531802
    vertex 191.18739273816178 -7.999109787417243 29.71489714531802
  endloop
endfacet
facet normal -0.4484478325447909 0.0 -0.8938090072749767
  outer loop
    vertex 190.3111218780741 -4.000029449042771 30.18690586690016
    vertex 189.40890931635292 -7.999109787417243 30.607209741449267
    vertex 189.40890931635292 -4.000029449042771 30.607209741449267
  endloop
endfacet
facet normal -0.3957638873347953 0.0 -0.9183522992194508
  outer loop
    vertex 189.40890931635292 -7.999109787417243 30.607209741449267
    vertex 190.3111218780741 -4.000029449042771 30.18690586690016
    vertex 190.3111218780741 -7.999109787417243 30.18690586690016
  endloop
endfacet
facet normal -0.3957638873347953 0.0 -0.9183522992194508
  outer loop
    vertex 189.40890931635292 -4.000029449042771 30.607209741449267
    vertex 188.48380270110434 -7.999109787417243 30.974388994555667
    vertex 188.48380270110434 -4.000029449042771 30.974388994555667
  endloop
endfacet
facet normal -0.34174306308670527 0.0 -0.9397934234884369
  outer loop
    vertex 188.48380270110434 -7.999109787417243 30.974388994555667
    vertex 189.40890931635292 -4.000029449042771 30.607209741449267
    vertex 189.40890931635292 -7.999109787417243 30.607209741449267
  endloop
endfacet
facet normal -0.05809577084348996 -1.366807868749996e-19 -0.9983110143688192
  outer loop
    vertex 183.62634282143924 -4.000029449042771 31.97650273838222
    vertex 182.63145274574453 -7.999109787417243 32.00542661731619
    vertex 182.63145274574453 -4.000029449042771 32.00542661731619
  endloop
endfacet
facet normal -0.02906015856099948 -2.7324612342806405e-19 -0.9995776644085289
  outer loop
    vertex 182.63145274574453 -7.999109787417243 32.00542661731619
    vertex 183.62634282143924 -4.000029449042771 31.97650273838222
    vertex 183.62634282143924 -7.999109787417243 31.97650273838222
  endloop
endfacet
facet normal -0.34174306308670527 0.0 -0.9397934234884369
  outer loop
    vertex 188.48380270110434 -4.000029449042771 30.974388994555667
    vertex 187.53892701588927 -7.999109787417243 31.28720330525423
    vertex 187.53892701588927 -4.000029449042771 31.28720330525423
  endloop
endfacet
facet normal -0.28656784059239404 0.0 -0.9580599525803238
  outer loop
    vertex 187.53892701588927 -7.999109787417243 31.28720330525423
    vertex 188.48380270110434 -4.000029449042771 30.974388994555667
    vertex 188.48380270110434 -7.999109787417243 30.974388994555667
  endloop
endfacet
facet normal -0.28656784059239404 0.0 -0.9580599525803238
  outer loop
    vertex 187.53892701588927 -4.000029449042771 31.28720330525423
    vertex 186.5774740236189 -7.999109787417243 31.544595995792953
    vertex 186.5774740236189 -4.000029449042771 31.544595995792953
  endloop
endfacet
facet normal -0.23042460016784666 0.0 -0.9730901826847747
  outer loop
    vertex 186.5774740236189 -7.999109787417243 31.544595995792953
    vertex 187.53892701588927 -4.000029449042771 31.28720330525423
    vertex 187.53892701588927 -7.999109787417243 31.28720330525423
  endloop
endfacet
facet normal -0.23042460016784666 0.0 -0.9730901826847747
  outer loop
    vertex 186.5774740236189 -4.000029449042771 31.544595995792953
    vertex 185.60269148487117 -7.999109787417243 31.745697601060062
    vertex 185.60269148487117 -4.000029449042771 31.745697601060062
  endloop
endfacet
facet normal -0.17350299206578926 0.0 -0.9848333421164308
  outer loop
    vertex 185.60269148487117 -7.999109787417243 31.745697601060062
    vertex 186.5774740236189 -4.000029449042771 31.544595995792953
    vertex 186.5774740236189 -7.999109787417243 31.544595995792953
  endloop
endfacet
facet normal -0.17350299206578926 0.0 -0.9848333421164308
  outer loop
    vertex 185.60269148487117 -4.000029449042771 31.745697601060062
    vertex 184.61787218704907 -7.999109787417243 31.889828805612144
    vertex 184.61787218704907 -4.000029449042771 31.889828805612144
  endloop
endfacet
facet normal -0.11599529584260172 0.0 -0.9932497628202019
  outer loop
    vertex 184.61787218704907 -7.999109787417243 31.889828805612144
    vertex 185.60269148487117 -4.000029449042771 31.745697601060062
    vertex 185.60269148487117 -7.999109787417243 31.745697601060062
  endloop
endfacet
facet normal -0.11599529584260172 0.0 -0.9932497628202019
  outer loop
    vertex 184.61787218704907 -4.000029449042771 31.889828805612144
    vertex 183.62634282143924 -7.999109787417243 31.97650273838222
    vertex 183.62634282143924 -4.000029449042771 31.97650273838222
  endloop
endfacet
facet normal -0.05809577084348996 -1.366807868749996e-19 -0.9983110143688192
  outer loop
    vertex 183.62634282143924 -7.999109787417243 31.97650273838222
    vertex 184.61787218704907 -4.000029449042771 31.889828805612144
    vertex 184.61787218704907 -7.999109787417243 31.889828805612144
  endloop
endfacet
facet normal 0.1735029920657893 0.0 -0.9848333421164308
  outer loop
    vertex 179.66021400661788 -4.000029449042771 31.745697601060073
    vertex 178.68543146787016 -7.999109787417243 31.544595995792967
    vertex 178.68543146787016 -4.000029449042771 31.544595995792967
  endloop
endfacet
facet normal 0.2304246001678466 0.0 -0.9730901826847748
  outer loop
    vertex 178.68543146787016 -7.999109787417243 31.544595995792967
    vertex 179.66021400661788 -4.000029449042771 31.745697601060073
    vertex 179.66021400661788 -7.999109787417243 31.745697601060073
  endloop
endfacet
facet normal 0.4996169338637807 0.0 -0.8662464541898883
  outer loop
    vertex 174.0755127533273 -4.000029449042771 29.714897145318034
    vertex 173.22814361265645 -7.999109787417243 29.192778008599955
    vertex 173.22814361265645 -4.000029449042771 29.192778008599955
  endloop
endfacet
facet normal 0.5490983435379914 0.0 -0.8357577454764232
  outer loop
    vertex 173.22814361265645 -7.999109787417243 29.192778008599955
    vertex 174.0755127533273 -4.000029449042771 29.714897145318034
    vertex 174.0755127533273 -7.999109787417243 29.714897145318034
  endloop
endfacet
facet normal 0.05809577084348151 -7.228015510780134e-33 -0.9983110143688197
  outer loop
    vertex 181.6365626700498 -4.000029449042771 31.976502738382223
    vertex 180.64503330443998 -7.999109787417243 31.889828805612158
    vertex 180.64503330443998 -4.000029449042771 31.889828805612158
  endloop
endfacet
facet normal 0.1159952958425989 0.0 -0.9932497628202022
  outer loop
    vertex 180.64503330443998 -7.999109787417243 31.889828805612158
    vertex 181.6365626700498 -4.000029449042771 31.976502738382223
    vertex 181.6365626700498 -7.999109787417243 31.976502738382223
  endloop
endfacet
facet normal 0.28656784059239837 0.0 -0.9580599525803224
  outer loop
    vertex 177.72397847559978 -4.000029449042771 31.28720330525424
    vertex 176.77910279038474 -7.999109787417243 30.97438899455568
    vertex 176.77910279038474 -4.000029449042771 30.97438899455568
  endloop
endfacet
facet normal 0.34174306308670493 0.0 -0.939793423488437
  outer loop
    vertex 176.77910279038474 -7.999109787417243 30.97438899455568
    vertex 177.72397847559978 -4.000029449042771 31.28720330525424
    vertex 177.72397847559978 -7.999109787417243 31.28720330525424
  endloop
endfacet
facet normal 0.0 0.0061004215415616505 0.9999813922553835
  outer loop
    vertex 210.13145274574453 -7.999109787417265 40.02982314712323
    vertex 150.1314527457445 -4.000029449042771 40.00542661731618
    vertex 150.1314527457445 -7.999109787417265 40.02982314712323
  endloop
endfacet
facet normal 0.0 0.0061004215415616505 0.9999813922553835
  outer loop
    vertex 150.1314527457445 -4.000029449042771 40.00542661731618
    vertex 210.13145274574453 -7.999109787417265 40.02982314712323
    vertex 210.13145274574453 -4.000029449042771 40.00542661731618
  endloop
endfacet
facet normal 0.34174306308670493 0.0 -0.939793423488437
  outer loop
    vertex 176.77910279038474 -4.000029449042771 30.97438899455568
    vertex 175.85399617513616 -7.999109787417243 30.607209741449278
    vertex 175.85399617513616 -4.000029449042771 30.607209741449278
  endloop
endfacet
facet normal 0.39576388733479795 0.0 -0.9183522992194495
  outer loop
    vertex 175.85399617513616 -7.999109787417243 30.607209741449278
    vertex 176.77910279038474 -4.000029449042771 30.97438899455568
    vertex 176.77910279038474 -7.999109787417243 30.97438899455568
  endloop
endfacet
facet normal 0.44844783254479303 0.0 -0.8938090072749755
  outer loop
    vertex 174.951783613415 -4.000029449042771 30.186905866900165
    vertex 174.0755127533273 -7.999109787417243 29.714897145318034
    vertex 174.0755127533273 -4.000029449042771 29.714897145318034
  endloop
endfacet
facet normal 0.4996169338637807 0.0 -0.8662464541898883
  outer loop
    vertex 174.0755127533273 -7.999109787417243 29.714897145318034
    vertex 174.951783613415 -4.000029449042771 30.186905866900165
    vertex 174.951783613415 -7.999109787417243 30.186905866900165
  endloop
endfacet
facet normal 0.02906015856099382 -1.4449925725148454e-32 -0.9995776644085291
  outer loop
    vertex 182.63145274574453 -4.000029449042771 32.00542661731619
    vertex 181.6365626700498 -7.999109787417243 31.976502738382223
    vertex 181.6365626700498 -4.000029449042771 31.976502738382223
  endloop
endfacet
facet normal 0.05809577084348151 -7.228015510780134e-33 -0.9983110143688197
  outer loop
    vertex 181.6365626700498 -7.999109787417243 31.976502738382223
    vertex 182.63145274574453 -4.000029449042771 32.00542661731619
    vertex 182.63145274574453 -7.999109787417243 32.00542661731619
  endloop
endfacet
facet normal 0.5490983435379914 0.0 -0.8357577454764232
  outer loop
    vertex 173.22814361265645 -4.000029449042771 29.192778008599955
    vertex 172.4125385800083 -7.999109787417243 28.62231216018531
    vertex 172.4125385800083 -4.000029449042771 28.62231216018531
  endloop
endfacet
facet normal 0.5967249147875209 -5.65625382859122e-32 -0.8024458711164423
  outer loop
    vertex 172.4125385800083 -7.999109787417243 28.62231216018531
    vertex 173.22814361265645 -4.000029449042771 29.192778008599955
    vertex 173.22814361265645 -7.999109787417243 29.192778008599955
  endloop
endfacet
facet normal 0.5967249147875209 -5.65625382859122e-32 -0.8024458711164423
  outer loop
    vertex 172.4125385800083 -4.000029449042771 28.62231216018531
    vertex 171.63145274574453 -7.999109787417243 28.005426617316186
    vertex 171.63145274574453 -4.000029449042771 28.005426617316186
  endloop
endfacet
facet normal 0.6197921008689514 -1.1307729982570023e-31 -0.7847660490238167
  outer loop
    vertex 171.63145274574453 -7.999109787417243 28.005426617316186
    vertex 172.4125385800083 -4.000029449042771 28.62231216018531
    vertex 172.4125385800083 -7.999109787417243 28.62231216018531
  endloop
endfacet
facet normal 0.2304246001678466 0.0 -0.9730901826847748
  outer loop
    vertex 178.68543146787016 -4.000029449042771 31.544595995792967
    vertex 177.72397847559978 -7.999109787417243 31.28720330525424
    vertex 177.72397847559978 -4.000029449042771 31.28720330525424
  endloop
endfacet
facet normal 0.28656784059239837 0.0 -0.9580599525803224
  outer loop
    vertex 177.72397847559978 -7.999109787417243 31.28720330525424
    vertex 178.68543146787016 -4.000029449042771 31.544595995792967
    vertex 178.68543146787016 -7.999109787417243 31.544595995792967
  endloop
endfacet
facet normal 0.1159952958425989 0.0 -0.9932497628202022
  outer loop
    vertex 180.64503330443998 -4.000029449042771 31.889828805612158
    vertex 179.66021400661788 -7.999109787417243 31.745697601060073
    vertex 179.66021400661788 -4.000029449042771 31.745697601060073
  endloop
endfacet
facet normal 0.1735029920657893 0.0 -0.9848333421164308
  outer loop
    vertex 179.66021400661788 -7.999109787417243 31.745697601060073
    vertex 180.64503330443998 -4.000029449042771 31.889828805612158
    vertex 180.64503330443998 -7.999109787417243 31.889828805612158
  endloop
endfacet
facet normal 0.39576388733479795 0.0 -0.9183522992194495
  outer loop
    vertex 175.85399617513616 -4.000029449042771 30.607209741449278
    vertex 174.951783613415 -7.999109787417243 30.186905866900165
    vertex 174.951783613415 -4.000029449042771 30.186905866900165
  endloop
endfacet
facet normal 0.44844783254479303 0.0 -0.8938090072749755
  outer loop
    vertex 174.951783613415 -7.999109787417243 30.186905866900165
    vertex 175.85399617513616 -4.000029449042771 30.607209741449278
    vertex 175.85399617513616 -7.999109787417243 30.607209741449278
  endloop
endfacet
facet normal -1.0 0.0 0.0
  outer loop
    vertex 150.1314527457445 -4.000029449042771 40.00542661731618
    vertex 150.1314527457445 -7.999109787417265 4.529823147123221
    vertex 150.1314527457445 -7.999109787417265 40.02982314712323
  endloop
endfacet
facet normal -1.0 0.0 0.0
  outer loop
    vertex 150.1314527457445 -7.999109787417265 4.529823147123221
    vertex 150.1314527457445 -12.000000000000037 0.0
    vertex 150.1314527457445 -12.000000000000037 1.9999999999999998
  endloop
endfacet
facet normal -1.0 0.0 0.0
  outer loop
    vertex 150.1314527457445 -12.000000000000037 0.0
    vertex 150.1314527457445 -7.999109787417265 4.529823147123221
    vertex 150.1314527457445 -3.665956427312267e-14 0.0
  endloop
endfacet
facet normal -1.0 0.0 0.0
  outer loop
    vertex 150.1314527457445 -3.665956427312267e-14 0.0
    vertex 150.1314527457445 -7.999109787417265 4.529823147123221
    vertex 150.1314527457445 -4.000029449042771 4.505426617316192
  endloop
endfacet
facet normal -1.0 0.0 0.0
  outer loop
    vertex 150.1314527457445 -4.000029449042771 4.505426617316192
    vertex 150.1314527457445 -7.999109787417265 4.529823147123221
    vertex 150.1314527457445 -4.000029449042771 40.00542661731618
  endloop
endfacet
facet normal -1.0 0.0 0.0
  outer loop
    vertex 150.1314527457445 -3.665956427312267e-14 0.0
    vertex 150.1314527457445 -4.000029449042771 4.505426617316192
    vertex 150.1314527457445 -3.665956427312267e-14 1.9999999999999998
  endloop
endfacet
facet normal 0.0 0.0 -1.0
  outer loop
    vertex 150.1314527457445 -3.665956427312267e-14 0.0
    vertex 179.53616894200871 -3.7783705995351835 0.0
    vertex 150.1314527457445 -12.000000000000037 0.0
  endloop
endfacet
facet normal 0.0 0.0 -1.0
  outer loop
    vertex 179.53616894200871 -3.7783705995351835 0.0
    vertex 150.1314527457445 -3.665956427312267e-14 0.0
    vertex 180.1314527457445 -3.70000000000003 0.0
  endloop
endfacet
facet normal 0.0 0.0 -1.0
  outer loop
    vertex 180.1314527457445 -3.70000000000003 0.0
    vertex 150.1314527457445 -3.665956427312267e-14 0.0
    vertex 210.13145274574453 -3.665956427312267e-14 0.0
  endloop
endfacet
facet normal 0.0 0.0 -1.0
  outer loop
    vertex 150.1314527457445 -12.000000000000037 0.0
    vertex 179.53616894200871 -3.7783705995351835 0.0
    vertex 178.98145274574452 -4.008141571295833 0.0
  endloop
endfacet
facet normal 0.0 0.0 -1.0
  outer loop
    vertex 150.1314527457445 -12.000000000000037 0.0
    vertex 178.98145274574452 -4.008141571295833 0.0
    vertex 178.50510714901546 -4.373654403270967 0.0
  endloop
endfacet
facet normal 0.0 0.0 -1.0
  outer loop
    vertex 150.1314527457445 -12.000000000000037 0.0
    vertex 178.50510714901546 -4.373654403270967 0.0
    vertex 178.13959431704032 -4.850000000000039 0.0
  endloop
endfacet
facet normal 0.0 0.0 -1.0
  outer loop
    vertex 150.1314527457445 -12.000000000000037 0.0
    vertex 178.13959431704032 -4.850000000000039 0.0
    vertex 178.10984907199642 -4.921811374001058 0.0
  endloop
endfacet
facet normal 0.0 0.0 -1.0
  outer loop
    vertex 150.1314527457445 -12.000000000000037 0.0
    vertex 178.10984907199642 -4.921811374001058 0.0
    vertex 177.90982334527968 -5.404716196264243 0.0
  endloop
endfacet
facet normal 0.0 0.0 -1.0
  outer loop
    vertex 150.1314527457445 -12.000000000000037 0.0
    vertex 177.90982334527968 -5.404716196264243 0.0
    vertex 177.8314527457445 -6.000000000000026 0.0
  endloop
endfacet
facet normal 0.0 0.0 -1.0
  outer loop
    vertex 180.1314527457445 -3.70000000000003 0.0
    vertex 210.13145274574453 -3.665956427312267e-14 0.0
    vertex 180.7267365494803 -3.7783705995351835 0.0
  endloop
endfacet
facet normal 0.0 0.0 -1.0
  outer loop
    vertex 180.7267365494803 -3.7783705995351835 0.0
    vertex 210.13145274574453 -3.665956427312267e-14 0.0
    vertex 181.28145274574453 -4.008141571295833 0.0
  endloop
endfacet
facet normal 0.0 0.0 -1.0
  outer loop
    vertex 181.28145274574453 -4.008141571295833 0.0
    vertex 210.13145274574453 -3.665956427312267e-14 0.0
    vertex 181.75779834247356 -4.373654403270967 0.0
  endloop
endfacet
facet normal 0.0 0.0 -1.0
  outer loop
    vertex 181.75779834247356 -4.373654403270967 0.0
    vertex 210.13145274574453 -3.665956427312267e-14 0.0
    vertex 182.12331117444873 -4.850000000000039 0.0
  endloop
endfacet
facet normal 0.0 0.0 -1.0
  outer loop
    vertex 182.12331117444873 -4.850000000000039 0.0
    vertex 210.13145274574453 -3.665956427312267e-14 0.0
    vertex 182.1530564194926 -4.921811374001058 0.0
  endloop
endfacet
facet normal 0.0 0.0 -1.0
  outer loop
    vertex 182.1530564194926 -4.921811374001058 0.0
    vertex 210.13145274574453 -3.665956427312267e-14 0.0
    vertex 182.35308214620937 -5.404716196264243 0.0
  endloop
endfacet
facet normal 0.0 0.0 -1.0
  outer loop
    vertex 182.35308214620937 -5.404716196264243 0.0
    vertex 210.13145274574453 -3.665956427312267e-14 0.0
    vertex 182.4314527457445 -6.000000000000026 0.0
  endloop
endfacet
facet normal 0.0 0.0 -1.0
  outer loop
    vertex 150.1314527457445 -12.000000000000037 0.0
    vertex 180.1314527457445 -8.300000000000043 0.0
    vertex 210.13145274574453 -12.000000000000037 0.0
  endloop
endfacet
facet normal 0.0 0.0 -1.0
  outer loop
    vertex 180.1314527457445 -8.300000000000043 0.0
    vertex 150.1314527457445 -12.000000000000037 0.0
    vertex 179.53616894200871 -8.22162940046489 0.0
  endloop
endfacet
facet normal 0.0 0.0 -1.0
  outer loop
    vertex 179.53616894200871 -8.22162940046489 0.0
    vertex 150.1314527457445 -12.000000000000037 0.0
    vertex 178.98145274574452 -7.991858428704241 0.0
  endloop
endfacet
facet normal 0.0 0.0 -1.0
  outer loop
    vertex 178.98145274574452 -7.991858428704241 0.0
    vertex 150.1314527457445 -12.000000000000037 0.0
    vertex 178.50510714901546 -7.6263455967290845 0.0
  endloop
endfacet
facet normal 0.0 0.0 -1.0
  outer loop
    vertex 178.50510714901546 -7.6263455967290845 0.0
    vertex 150.1314527457445 -12.000000000000037 0.0
    vertex 178.13959431704032 -7.150000000000035 0.0
  endloop
endfacet
facet normal 0.0 0.0 -1.0
  outer loop
    vertex 178.13959431704032 -7.150000000000035 0.0
    vertex 150.1314527457445 -12.000000000000037 0.0
    vertex 178.10984907199642 -7.078188625999016 0.0
  endloop
endfacet
facet normal 0.0 0.0 -1.0
  outer loop
    vertex 178.10984907199642 -7.078188625999016 0.0
    vertex 150.1314527457445 -12.000000000000037 0.0
    vertex 177.90982334527968 -6.595283803735831 0.0
  endloop
endfacet
facet normal 0.0 0.0 -1.0
  outer loop
    vertex 177.90982334527968 -6.595283803735831 0.0
    vertex 150.1314527457445 -12.000000000000037 0.0
    vertex 177.8314527457445 -6.000000000000026 0.0
  endloop
endfacet
facet normal 0.0 0.0 -1.0
  outer loop
    vertex 210.13145274574453 -12.000000000000037 0.0
    vertex 180.1314527457445 -8.300000000000043 0.0
    vertex 180.7267365494803 -8.22162940046489 0.0
  endloop
endfacet
facet normal 0.0 0.0 -1.0
  outer loop
    vertex 210.13145274574453 -12.000000000000037 0.0
    vertex 180.7267365494803 -8.22162940046489 0.0
    vertex 181.28145274574453 -7.991858428704241 0.0
  endloop
endfacet
facet normal 0.0 0.0 -1.0
  outer loop
    vertex 210.13145274574453 -12.000000000000037 0.0
    vertex 181.28145274574453 -7.991858428704241 0.0
    vertex 181.75779834247356 -7.6263455967290845 0.0
  endloop
endfacet
facet normal 0.0 0.0 -1.0
  outer loop
    vertex 210.13145274574453 -12.000000000000037 0.0
    vertex 181.75779834247356 -7.6263455967290845 0.0
    vertex 182.12331117444873 -7.150000000000035 0.0
  endloop
endfacet
facet normal 0.0 0.0 -1.0
  outer loop
    vertex 210.13145274574453 -12.000000000000037 0.0
    vertex 182.12331117444873 -7.150000000000035 0.0
    vertex 182.1530564194926 -7.078188625999016 0.0
  endloop
endfacet
facet normal 0.0 0.0 -1.0
  outer loop
    vertex 210.13145274574453 -12.000000000000037 0.0
    vertex 182.1530564194926 -7.078188625999016 0.0
    vertex 182.35308214620937 -6.595283803735831 0.0
  endloop
endfacet
facet normal 0.0 0.0 -1.0
  outer loop
    vertex 210.13145274574453 -12.000000000000037 0.0
    vertex 182.35308214620937 -6.595283803735831 0.0
    vertex 182.4314527457445 -6.000000000000026 0.0
  endloop
endfacet
facet normal 0.0 0.0 -1.0
  outer loop
    vertex 210.13145274574453 -12.000000000000037 0.0
    vertex 182.4314527457445 -6.000000000000026 0.0
    vertex 210.13145274574453 -3.665956427312267e-14 0.0
  endloop
endfacet
facet normal 0.0 1.0 0.0
  outer loop
    vertex 150.1314527457445 -3.665956427312267e-14 1.9999999999999998
    vertex 210.13145274574453 -3.665956427312267e-14 0.0
    vertex 150.1314527457445 -3.665956427312267e-14 0.0
  endloop
endfacet
facet normal 0.0 1.0 0.0
  outer loop
    vertex 210.13145274574453 -3.665956427312267e-14 0.0
    vertex 150.1314527457445 -3.665956427312267e-14 1.9999999999999998
    vertex 210.13145274574453 -3.665956427312267e-14 1.9999999999999998
  endloop
endfacet
facet normal -1.0 0.0 0.0
  outer loop
    vertex 193.63145274574453 -7.999109787417243 28.005426617316186
    vertex 193.63145274574453 -4.000029449042771 15.005426617316184
    vertex 193.63145274574453 -7.999109787417265 15.005426617316184
  endloop
endfacet
facet normal -1.0 0.0 0.0
  outer loop
    vertex 193.63145274574453 -4.000029449042771 15.005426617316184
    vertex 193.63145274574453 -7.999109787417243 28.005426617316186
    vertex 193.63145274574453 -4.000029449042771 28.005426617316186
  endloop
endfacet
facet normal 1.0 0.0 0.0
  outer loop
    vertex 171.63145274574453 -4.000029449042771 15.005426617316184
    vertex 171.63145274574453 -7.999109787417243 28.005426617316186
    vertex 171.63145274574453 -7.999109787417265 15.005426617316184
  endloop
endfacet
facet normal 1.0 0.0 0.0
  outer loop
    vertex 171.63145274574453 -7.999109787417243 28.005426617316186
    vertex 171.63145274574453 -4.000029449042771 15.005426617316184
    vertex 171.63145274574453 -4.000029449042771 28.005426617316186
  endloop
endfacet
facet normal 0.0 0.0 1.0
  outer loop
    vertex 193.63145274574453 -7.999109787417265 15.005426617316184
    vertex 171.63145274574453 -4.000029449042771 15.005426617316184
    vertex 171.63145274574453 -7.999109787417265 15.005426617316184
  endloop
endfacet
facet normal 0.0 0.0 1.0
  outer loop
    vertex 171.63145274574453 -4.000029449042771 15.005426617316184
    vertex 193.63145274574453 -7.999109787417265 15.005426617316184
    vertex 193.63145274574453 -4.000029449042771 15.005426617316184
  endloop
endfacet
endsolid walls
