solid walls
facet normal 0.10545379686395977 -0.35115094394930607 -0.9303614949526265
  outer loop
    vertex 15.000000000000007 -5.973860427422828 3.9999999999999996
    vertex 14.404716196264213 -3.778370599535154 3.0
    vertex 15.000000000000007 -3.7000000000000117 3.0
  endloop
endfacet
facet normal -0.10423780295946215 0.3887041921144975 -0.9154471756834471
  outer loop
    vertex 15.595283803735802 -8.221629400464867 3.0
    vertex 15.000000000000007 -8.30000000000001 3.0
    vertex 15.000000000000007 -6.0261395725771925 3.9999999999999996
  endloop
endfacet
facet normal 1.2929666695518925e-16 0.40257044659424535 -0.9153890077605857
  outer loop
    vertex 15.000000000000007 -8.30000000000001 3.0
    vertex 14.404716196264213 -8.221629400464867 3.0
    vertex 15.000000000000007 -6.0261395725771925 3.9999999999999996
  endloop
endfacet
facet normal 0.10545379686395977 -0.35115094394930607 -0.9303614949526265
  outer loop
    vertex 15.000000000000007 -5.973860427422828 3.9999999999999996
    vertex 13.373654403270947 -4.373654403270951 3.0
    vertex 13.850000000000009 -4.008141571295801 3.0
  endloop
endfacet
facet normal 0.10545379686395977 -0.35115094394930607 -0.9303614949526265
  outer loop
    vertex 15.000000000000007 -5.973860427422828 3.9999999999999996
    vertex 13.850000000000009 -4.008141571295801 3.0
    vertex 14.404716196264213 -3.778370599535154 3.0
  endloop
endfacet
facet normal 0.0 0.0 1.0
  outer loop
    vertex 30.0 -7.5000000000000115 20.0
    vertex 0.0 -4.500000000000013 20.0
    vertex 0.0 -7.5000000000000115 20.0
  endloop
endfacet
facet normal 0.0 0.0 1.0
  outer loop
    vertex 0.0 -4.500000000000013 20.0
    vertex 30.0 -7.5000000000000115 20.0
    vertex 30.0 -4.500000000000013 20.0
  endloop
endfacet
facet normal 0.0 0.0 -1.0
  outer loop
    vertex 0.0 -9.86988268891764e-15 0.0
    vertex 13.850000000000009 -4.008141571295801 0.0
    vertex 0.0 -12.000000000000012 0.0
  endloop
endfacet
facet normal 0.0 0.0 -1.0
  outer loop
    vertex 13.850000000000009 -4.008141571295801 0.0
    vertex 0.0 -9.86988268891764e-15 0.0
    vertex 14.404716196264213 -3.778370599535154 0.0
  endloop
endfacet
facet normal 0.0 0.0 -1.0
  outer loop
    vertex 14.404716196264213 -3.778370599535154 0.0
    vertex 0.0 -9.86988268891764e-15 0.0
    vertex 30.0 -9.86988268891764e-15 0.0
  endloop
endfacet
facet normal 0.0 0.0 -1.0
  outer loop
    vertex 0.0 -12.000000000000012 0.0
    vertex 13.850000000000009 -4.008141571295801 0.0
    vertex 13.373654403270947 -4.373654403270951 0.0
  endloop
endfacet
facet normal 0.0 0.0 -1.0
  outer loop
    vertex 0.0 -12.000000000000012 0.0
    vertex 13.373654403270947 -4.373654403270951 0.0
    vertex 13.008141571295797 -4.850000000000009 0.0
  endloop
endfacet
facet normal 0.0 0.0 -1.0
  outer loop
    vertex 0.0 -12.000000000000012 0.0
    vertex 13.008141571295797 -4.850000000000009 0.0
    vertex 12.778370599535153 -5.404716196264212 0.0
  endloop
endfacet
facet normal 0.0 0.0 -1.0
  outer loop
    vertex 0.0 -12.000000000000012 0.0
    vertex 12.778370599535153 -5.404716196264212 0.0
    vertex 12.700000000000005 -6.00000000000001 0.0
  endloop
endfacet
facet normal 0.0 0.0 -1.0
  outer loop
    vertex 12.778370599535153 -5.404716196264212 0.0
    vertex 13.008141571295797 -4.850000000000009 0.0
    vertex 12.978396326251927 -4.921811374001035 0.0
  endloop
endfacet
facet normal 0.0 0.0 -1.0
  outer loop
    vertex 14.404716196264213 -3.778370599535154 0.0
    vertex 30.0 -9.86988268891764e-15 0.0
    vertex 15.000000000000007 -3.7000000000000117 0.0
  endloop
endfacet
facet normal 0.0 0.0 -1.0
  outer loop
    vertex 15.000000000000007 -3.7000000000000117 0.0
    vertex 30.0 -9.86988268891764e-15 0.0
    vertex 15.595283803735802 -3.778370599535154 0.0
  endloop
endfacet
facet normal 0.0 0.0 -1.0
  outer loop
    vertex 15.595283803735802 -3.778370599535154 0.0
    vertex 30.0 -9.86988268891764e-15 0.0
    vertex 16.150000000000006 -4.008141571295802 0.0
  endloop
endfacet
facet normal 0.0 0.0 -1.0
  outer loop
    vertex 16.150000000000006 -4.008141571295802 0.0
    vertex 30.0 -9.86988268891764e-15 0.0
    vertex 16.626345596729067 -4.373654403270951 0.0
  endloop
endfacet
facet normal 0.0 0.0 -1.0
  outer loop
    vertex 16.626345596729067 -4.373654403270951 0.0
    vertex 30.0 -9.86988268891764e-15 0.0
    vertex 16.99185842870421 -4.850000000000011 0.0
  endloop
endfacet
facet normal 0.0 0.0 -1.0
  outer loop
    vertex 16.99185842870421 -4.850000000000011 0.0
    vertex 30.0 -9.86988268891764e-15 0.0
    vertex 17.021603673748086 -4.921811374001036 0.0
  endloop
endfacet
facet normal 0.0 0.0 -1.0
  outer loop
    vertex 17.021603673748086 -4.921811374001036 0.0
    vertex 30.0 -9.86988268891764e-15 0.0
    vertex 17.22162940046486 -5.4047161962642125 0.0
  endloop
endfacet
facet normal 0.0 0.0 -1.0
  outer loop
    vertex 17.22162940046486 -5.4047161962642125 0.0
    vertex 30.0 -9.86988268891764e-15 0.0
    vertex 17.3 -6.00000000000001 0.0
  endloop
endfacet
facet normal 0.0 0.0 -1.0
  outer loop
    vertex 0.0 -12.000000000000012 0.0
    vertex 14.404716196264213 -8.221629400464867 0.0
    vertex 30.0 -12.000000000000012 0.0
  endloop
endfacet
facet normal 0.0 0.0 -1.0
  outer loop
    vertex 14.404716196264213 -8.221629400464867 0.0
    vertex 0.0 -12.000000000000012 0.0
    vertex 13.850000000000009 -7.9918584287042185 0.0
  endloop
endfacet
facet normal 0.0 0.0 -1.0
  outer loop
    vertex 13.850000000000009 -7.9918584287042185 0.0
    vertex 0.0 -12.000000000000012 0.0
    vertex 13.373654403270947 -7.626345596729069 0.0
  endloop
endfacet
facet normal 0.0 0.0 -1.0
  outer loop
    vertex 13.373654403270947 -7.626345596729069 0.0
    vertex 0.0 -12.000000000000012 0.0
    vertex 13.008141571295797 -7.150000000000008 0.0
  endloop
endfacet
facet normal 0.0 0.0 -1.0
  outer loop
    vertex 13.008141571295797 -7.150000000000008 0.0
    vertex 0.0 -12.000000000000012 0.0
    vertex 12.778370599535148 -6.595283803735806 0.0
  endloop
endfacet
facet normal 0.0 0.0 -1.0
  outer loop
    vertex 12.778370599535148 -6.595283803735806 0.0
    vertex 0.0 -12.000000000000012 0.0
    vertex 12.700000000000005 -6.00000000000001 0.0
  endloop
endfacet
facet normal 0.0 0.0 -1.0
  outer loop
    vertex 13.008141571295797 -7.150000000000008 0.0
    vertex 12.778370599535148 -6.595283803735806 0.0
    vertex 12.978396326251927 -7.078188625998985 0.0
  endloop
endfacet
facet normal 0.0 0.0 -1.0
  outer loop
    vertex 30.0 -12.000000000000012 0.0
    vertex 14.404716196264213 -8.221629400464867 0.0
    vertex 15.000000000000007 -8.30000000000001 0.0
  endloop
endfacet
facet normal 0.0 0.0 -1.0
  outer loop
    vertex 30.0 -12.000000000000012 0.0
    vertex 15.000000000000007 -8.30000000000001 0.0
    vertex 15.595283803735802 -8.221629400464867 0.0
  endloop
endfacet
facet normal 0.0 0.0 -1.0
  outer loop
    vertex 30.0 -12.000000000000012 0.0
    vertex 15.595283803735802 -8.221629400464867 0.0
    vertex 16.150000000000006 -7.9918584287042185 0.0
  endloop
endfacet
facet normal 0.0 0.0 -1.0
  outer loop
    vertex 30.0 -12.000000000000012 0.0
    vertex 16.150000000000006 -7.9918584287042185 0.0
    vertex 16.626345596729067 -7.626345596729069 0.0
  endloop
endfacet
facet normal 0.0 0.0 -1.0
  outer loop
    vertex 30.0 -12.000000000000012 0.0
    vertex 16.626345596729067 -7.626345596729069 0.0
    vertex 16.99185842870421 -7.150000000000011 0.0
  endloop
endfacet
facet normal 0.0 0.0 -1.0
  outer loop
    vertex 30.0 -12.000000000000012 0.0
    vertex 16.99185842870421 -7.150000000000011 0.0
    vertex 17.021603673748086 -7.078188625998985 0.0
  endloop
endfacet
facet normal 0.0 0.0 -1.0
  outer loop
    vertex 30.0 -12.000000000000012 0.0
    vertex 17.021603673748086 -7.078188625998985 0.0
    vertex 17.22162940046486 -6.595283803735807 0.0
  endloop
endfacet
facet normal 0.0 0.0 -1.0
  outer loop
    vertex 30.0 -12.000000000000012 0.0
    vertex 17.22162940046486 -6.595283803735807 0.0
    vertex 17.3 -6.00000000000001 0.0
  endloop
endfacet
facet normal 0.0 0.0 -1.0
  outer loop
    vertex 30.0 -12.000000000000012 0.0
    vertex 17.3 -6.00000000000001 0.0
    vertex 30.0 -9.86988268891764e-15 0.0
  endloop
endfacet
facet normal 0.0 -1.0 0.0
  outer loop
    vertex 30.0 -12.000000000000012 1.9999999999999998
    vertex 0.0 -12.000000000000012 0.0
    vertex 30.0 -12.000000000000012 0.0
  endloop
endfacet
facet normal 0.0 -1.0 0.0
  outer loop
    vertex 0.0 -12.000000000000012 0.0
    vertex 30.0 -12.000000000000012 1.9999999999999998
    vertex 0.0 -12.000000000000012 1.9999999999999998
  endloop
endfacet
facet normal 0.0 1.0 0.0
  outer loop
    vertex 0.0 -9.86988268891764e-15 1.9999999999999998
    vertex 30.0 -9.86988268891764e-15 0.0
    vertex 0.0 -9.86988268891764e-15 0.0
  endloop
endfacet
facet normal 0.0 1.0 0.0
  outer loop
    vertex 30.0 -9.86988268891764e-15 0.0
    vertex 0.0 -9.86988268891764e-15 1.9999999999999998
    vertex 30.0 -9.86988268891764e-15 1.9999999999999998
  endloop
endfacet
facet normal -0.35683010768076323 0.08423575064593479 -0.9303636990799086
  outer loop
    vertex 15.022637533895924 -6.013069786288603 3.9999999999999996
    vertex 16.626345596729067 -7.626345596729069 3.0
    vertex 15.000000000000007 -6.0261395725771925 3.9999999999999996
  endloop
endfacet
facet normal -0.2842291392958226 0.2840356492320929 -0.9157169575477235
  outer loop
    vertex 16.626345596729067 -7.626345596729069 3.0
    vertex 15.022637533895924 -6.013069786288603 3.9999999999999996
    vertex 16.99185842870421 -7.150000000000011 3.0
  endloop
endfacet
facet normal 0.9659258262890678 -0.2588190451025227 0.0
  outer loop
    vertex 12.778370599535153 -5.404716196264212 0.0
    vertex 12.700000000000005 -6.00000000000001 3.0
    vertex 12.700000000000005 -6.00000000000001 0.0
  endloop
endfacet
facet normal 1.0 -4.339710519180043e-15 0.0
  outer loop
    vertex 12.700000000000005 -6.00000000000001 3.0
    vertex 12.778370599535153 -5.404716196264212 0.0
    vertex 12.778370599535153 -5.404716196264212 3.0
  endloop
endfacet
facet normal 1.0 -4.339710519180043e-15 0.0
  outer loop
    vertex 12.700000000000005 -6.00000000000001 0.0
    vertex 12.778370599535148 -6.595283803735806 3.0
    vertex 12.778370599535148 -6.595283803735806 0.0
  endloop
endfacet
facet normal 0.9659258262890679 0.25881904510252224 0.0
  outer loop
    vertex 12.778370599535148 -6.595283803735806 3.0
    vertex 12.700000000000005 -6.00000000000001 0.0
    vertex 12.700000000000005 -6.00000000000001 3.0
  endloop
endfacet
facet normal 0.9659258262890679 0.25881904510252224 0.0
  outer loop
    vertex 12.778370599535148 -6.595283803735806 0.0
    vertex 12.978396326251927 -7.078188625998985 3.0
    vertex 12.978396326251927 -7.078188625998985 0.0
  endloop
endfacet
facet normal 0.9238795325112854 0.38268343236509295 0.0
  outer loop
    vertex 12.978396326251927 -7.078188625998985 3.0
    vertex 12.778370599535148 -6.595283803735806 0.0
    vertex 12.778370599535148 -6.595283803735806 3.0
  endloop
endfacet
facet normal 0.9238795325112894 0.3826834323650835 0.0
  outer loop
    vertex 12.978396326251927 -7.078188625998985 0.0
    vertex 13.008141571295797 -7.150000000000008 3.0
    vertex 13.008141571295797 -7.150000000000008 0.0
  endloop
endfacet
facet normal 0.8660254037844405 0.4999999999999969 0.0
  outer loop
    vertex 13.008141571295797 -7.150000000000008 3.0
    vertex 12.978396326251927 -7.078188625998985 0.0
    vertex 12.978396326251927 -7.078188625998985 3.0
  endloop
endfacet
facet normal 0.8660254037844405 0.4999999999999969 0.0
  outer loop
    vertex 13.008141571295797 -7.150000000000008 0.0
    vertex 13.373654403270947 -7.626345596729069 3.0
    vertex 13.373654403270947 -7.626345596729069 0.0
  endloop
endfacet
facet normal 0.707106781186547 0.7071067811865482 0.0
  outer loop
    vertex 13.373654403270947 -7.626345596729069 3.0
    vertex 13.008141571295797 -7.150000000000008 0.0
    vertex 13.008141571295797 -7.150000000000008 3.0
  endloop
endfacet
facet normal 0.707106781186547 0.7071067811865482 0.0
  outer loop
    vertex 13.373654403270947 -7.626345596729069 3.0
    vertex 13.850000000000009 -7.9918584287042185 0.0
    vertex 13.373654403270947 -7.626345596729069 0.0
  endloop
endfacet
facet normal 0.49999999999999867 0.8660254037844394 0.0
  outer loop
    vertex 13.850000000000009 -7.9918584287042185 0.0
    vertex 13.373654403270947 -7.626345596729069 3.0
    vertex 13.850000000000009 -7.9918584287042185 3.0
  endloop
endfacet
facet normal 0.49999999999999867 0.8660254037844394 0.0
  outer loop
    vertex 13.850000000000009 -7.9918584287042185 3.0
    vertex 14.404716196264213 -8.221629400464867 0.0
    vertex 13.850000000000009 -7.9918584287042185 0.0
  endloop
endfacet
facet normal 0.2588190451025208 0.9659258262890683 0.0
  outer loop
    vertex 14.404716196264213 -8.221629400464867 0.0
    vertex 13.850000000000009 -7.9918584287042185 3.0
    vertex 14.404716196264213 -8.221629400464867 3.0
  endloop
endfacet
facet normal 0.2588190451025208 0.9659258262890683 0.0
  outer loop
    vertex 14.404716196264213 -8.221629400464867 3.0
    vertex 15.000000000000007 -8.30000000000001 0.0
    vertex 14.404716196264213 -8.221629400464867 0.0
  endloop
endfacet
facet normal 0.0 1.0 0.0
  outer loop
    vertex 15.000000000000007 -8.30000000000001 0.0
    vertex 14.404716196264213 -8.221629400464867 3.0
    vertex 15.000000000000007 -8.30000000000001 3.0
  endloop
endfacet
facet normal 0.0 1.0 0.0
  outer loop
    vertex 15.000000000000007 -8.30000000000001 3.0
    vertex 15.595283803735802 -8.221629400464867 0.0
    vertex 15.000000000000007 -8.30000000000001 0.0
  endloop
endfacet
facet normal -0.2588190451025208 0.9659258262890683 0.0
  outer loop
    vertex 15.595283803735802 -8.221629400464867 0.0
    vertex 15.000000000000007 -8.30000000000001 3.0
    vertex 15.595283803735802 -8.221629400464867 3.0
  endloop
endfacet
facet normal -0.2588190451025208 0.9659258262890683 0.0
  outer loop
    vertex 15.595283803735802 -8.221629400464867 3.0
    vertex 16.150000000000006 -7.9918584287042185 0.0
    vertex 15.595283803735802 -8.221629400464867 0.0
  endloop
endfacet
facet normal -0.49999999999999867 0.8660254037844394 0.0
  outer loop
    vertex 16.150000000000006 -7.9918584287042185 0.0
    vertex 15.595283803735802 -8.221629400464867 3.0
    vertex 16.150000000000006 -7.9918584287042185 3.0
  endloop
endfacet
facet normal -0.49999999999999867 0.8660254037844394 0.0
  outer loop
    vertex 16.150000000000006 -7.9918584287042185 3.0
    vertex 16.626345596729067 -7.626345596729069 0.0
    vertex 16.150000000000006 -7.9918584287042185 0.0
  endloop
endfacet
facet normal -0.7071067811865487 0.7071067811865464 0.0
  outer loop
    vertex 16.626345596729067 -7.626345596729069 0.0
    vertex 16.150000000000006 -7.9918584287042185 3.0
    vertex 16.626345596729067 -7.626345596729069 3.0
  endloop
endfacet
facet normal -0.8660254037844284 0.5000000000000177 0.0
  outer loop
    vertex 16.99185842870421 -7.150000000000011 3.0
    vertex 16.626345596729067 -7.626345596729069 0.0
    vertex 16.626345596729067 -7.626345596729069 3.0
  endloop
endfacet
facet normal -0.7071067811865487 0.7071067811865464 0.0
  outer loop
    vertex 16.626345596729067 -7.626345596729069 0.0
    vertex 16.99185842870421 -7.150000000000011 3.0
    vertex 16.99185842870421 -7.150000000000011 0.0
  endloop
endfacet
facet normal -0.9238795325112691 0.3826834323651327 0.0
  outer loop
    vertex 17.021603673748086 -7.078188625998985 3.0
    vertex 16.99185842870421 -7.150000000000011 0.0
    vertex 16.99185842870421 -7.150000000000011 3.0
  endloop
endfacet
facet normal -0.8660254037844284 0.5000000000000177 0.0
  outer loop
    vertex 16.99185842870421 -7.150000000000011 0.0
    vertex 17.021603673748086 -7.078188625998985 3.0
    vertex 17.021603673748086 -7.078188625998985 0.0
  endloop
endfacet
facet normal -0.965925826289069 0.2588190451025181 0.0
  outer loop
    vertex 17.22162940046486 -6.595283803735807 3.0
    vertex 17.021603673748086 -7.078188625998985 0.0
    vertex 17.021603673748086 -7.078188625998985 3.0
  endloop
endfacet
facet normal -0.9238795325112886 0.3826834323650851 0.0
  outer loop
    vertex 17.021603673748086 -7.078188625998985 0.0
    vertex 17.22162940046486 -6.595283803735807 3.0
    vertex 17.22162940046486 -6.595283803735807 0.0
  endloop
endfacet
facet normal -1.0 0.0 0.0
  outer loop
    vertex 17.3 -6.00000000000001 3.0
    vertex 17.22162940046486 -6.595283803735807 0.0
    vertex 17.22162940046486 -6.595283803735807 3.0
  endloop
endfacet
facet normal -0.965925826289069 0.2588190451025181 0.0
  outer loop
    vertex 17.22162940046486 -6.595283803735807 0.0
    vertex 17.3 -6.00000000000001 3.0
    vertex 17.3 -6.00000000000001 0.0
  endloop
endfacet
facet normal -0.965925826289069 -0.2588190451025183 0.0
  outer loop
    vertex 17.22162940046486 -5.4047161962642125 3.0
    vertex 17.3 -6.00000000000001 0.0
    vertex 17.3 -6.00000000000001 3.0
  endloop
endfacet
facet normal -1.0 0.0 0.0
  outer loop
    vertex 17.3 -6.00000000000001 0.0
    vertex 17.22162940046486 -5.4047161962642125 3.0
    vertex 17.22162940046486 -5.4047161962642125 0.0
  endloop
endfacet
facet normal -0.9238795325112884 -0.3826834323650857 0.0
  outer loop
    vertex 17.021603673748086 -4.921811374001036 3.0
    vertex 17.22162940046486 -5.4047161962642125 0.0
    vertex 17.22162940046486 -5.4047161962642125 3.0
  endloop
endfacet
facet normal -0.965925826289069 -0.2588190451025183 0.0
  outer loop
    vertex 17.22162940046486 -5.4047161962642125 0.0
    vertex 17.021603673748086 -4.921811374001036 3.0
    vertex 17.021603673748086 -4.921811374001036 0.0
  endloop
endfacet
facet normal -0.8660254037844287 -0.5000000000000172 0.0
  outer loop
    vertex 16.99185842870421 -4.850000000000011 3.0
    vertex 17.021603673748086 -4.921811374001036 0.0
    vertex 17.021603673748086 -4.921811374001036 3.0
  endloop
endfacet
facet normal -0.9238795325112691 -0.3826834323651326 0.0
  outer loop
    vertex 17.021603673748086 -4.921811374001036 0.0
    vertex 16.99185842870421 -4.850000000000011 3.0
    vertex 16.99185842870421 -4.850000000000011 0.0
  endloop
endfacet
facet normal -0.707106781186549 -0.707106781186546 0.0
  outer loop
    vertex 16.626345596729067 -4.373654403270951 3.0
    vertex 16.99185842870421 -4.850000000000011 0.0
    vertex 16.99185842870421 -4.850000000000011 3.0
  endloop
endfacet
facet normal -0.8660254037844287 -0.5000000000000172 0.0
  outer loop
    vertex 16.99185842870421 -4.850000000000011 0.0
    vertex 16.626345596729067 -4.373654403270951 3.0
    vertex 16.626345596729067 -4.373654403270951 0.0
  endloop
endfacet
facet normal -0.707106781186549 -0.707106781186546 0.0
  outer loop
    vertex 16.626345596729067 -4.373654403270951 3.0
    vertex 16.150000000000006 -4.008141571295802 0.0
    vertex 16.626345596729067 -4.373654403270951 0.0
  endloop
endfacet
facet normal -0.49999999999999867 -0.8660254037844394 0.0
  outer loop
    vertex 16.150000000000006 -4.008141571295802 0.0
    vertex 16.626345596729067 -4.373654403270951 3.0
    vertex 16.150000000000006 -4.008141571295802 3.0
  endloop
endfacet
facet normal -0.49999999999999867 -0.8660254037844394 0.0
  outer loop
    vertex 16.150000000000006 -4.008141571295802 3.0
    vertex 15.595283803735802 -3.778370599535154 0.0
    vertex 16.150000000000006 -4.008141571295802 0.0
  endloop
endfacet
facet normal -0.25881904510252024 -0.9659258262890684 0.0
  outer loop
    vertex 15.595283803735802 -3.778370599535154 0.0
    vertex 16.150000000000006 -4.008141571295802 3.0
    vertex 15.595283803735802 -3.778370599535154 3.0
  endloop
endfacet
facet normal -0.25881904510252024 -0.9659258262890684 0.0
  outer loop
    vertex 15.595283803735802 -3.778370599535154 3.0
    vertex 15.000000000000007 -3.7000000000000117 0.0
    vertex 15.595283803735802 -3.778370599535154 0.0
  endloop
endfacet
facet normal 0.0 -1.0 0.0
  outer loop
    vertex 15.000000000000007 -3.7000000000000117 0.0
    vertex 15.595283803735802 -3.778370599535154 3.0
    vertex 15.000000000000007 -3.7000000000000117 3.0
  endloop
endfacet
facet normal 0.0 -1.0 0.0
  outer loop
    vertex 15.000000000000007 -3.7000000000000117 3.0
    vertex 14.404716196264213 -3.778370599535154 0.0
    vertex 15.000000000000007 -3.7000000000000117 0.0
  endloop
endfacet
facet normal 0.2588190451025192 -0.9659258262890686 0.0
  outer loop
    vertex 14.404716196264213 -3.778370599535154 0.0
    vertex 15.000000000000007 -3.7000000000000117 3.0
    vertex 14.404716196264213 -3.778370599535154 3.0
  endloop
endfacet
facet normal 0.2588190451025192 -0.9659258262890686 0.0
  outer loop
    vertex 14.404716196264213 -3.778370599535154 3.0
    vertex 13.850000000000009 -4.008141571295801 0.0
    vertex 14.404716196264213 -3.778370599535154 0.0
  endloop
endfacet
facet normal 0.4999999999999984 -0.8660254037844395 0.0
  outer loop
    vertex 13.850000000000009 -4.008141571295801 0.0
    vertex 14.404716196264213 -3.778370599535154 3.0
    vertex 13.850000000000009 -4.008141571295801 3.0
  endloop
endfacet
facet normal 0.4999999999999984 -0.8660254037844395 0.0
  outer loop
    vertex 13.850000000000009 -4.008141571295801 3.0
    vertex 13.373654403270947 -4.373654403270951 0.0
    vertex 13.850000000000009 -4.008141571295801 0.0
  endloop
endfacet
facet normal 0.7071067811865465 -0.7071067811865487 0.0
  outer loop
    vertex 13.373654403270947 -4.373654403270951 0.0
    vertex 13.850000000000009 -4.008141571295801 3.0
    vertex 13.373654403270947 -4.373654403270951 3.0
  endloop
endfacet
facet normal 0.7071067811865465 -0.7071067811865487 0.0
  outer loop
    vertex 13.373654403270947 -4.373654403270951 0.0
    vertex 13.008141571295797 -4.850000000000009 3.0
    vertex 13.008141571295797 -4.850000000000009 0.0
  endloop
endfacet
facet normal 0.8660254037844433 -0.4999999999999922 0.0
  outer loop
    vertex 13.008141571295797 -4.850000000000009 3.0
    vertex 13.373654403270947 -4.373654403270951 0.0
    vertex 13.373654403270947 -4.373654403270951 3.0
  endloop
endfacet
facet normal 0.8660254037844433 -0.4999999999999922 0.0
  outer loop
    vertex 13.008141571295797 -4.850000000000009 0.0
    vertex 12.978396326251927 -4.921811374001035 3.0
    vertex 12.978396326251927 -4.921811374001035 0.0
  endloop
endfacet
facet normal 0.9238795325112946 -0.38268343236507063 0.0
  outer loop
    vertex 12.978396326251927 -4.921811374001035 3.0
    vertex 13.008141571295797 -4.850000000000009 0.0
    vertex 13.008141571295797 -4.850000000000009 3.0
  endloop
endfacet
facet normal 0.9238795325112884 -0.3826834323650857 0.0
  outer loop
    vertex 12.978396326251927 -4.921811374001035 0.0
    vertex 12.778370599535153 -5.404716196264212 3.0
    vertex 12.778370599535153 -5.404716196264212 0.0
  endloop
endfacet
facet normal 0.9659258262890678 -0.2588190451025227 0.0
  outer loop
    vertex 12.778370599535153 -5.404716196264212 3.0
    vertex 12.978396326251927 -4.921811374001035 0.0
    vertex 12.978396326251927 -4.921811374001035 3.0
  endloop
endfacet
facet normal -0.2842291392958226 0.2840356492320929 -0.9157169575477235
  outer loop
    vertex 16.626345596729067 -7.626345596729069 3.0
    vertex 16.150000000000006 -7.9918584287042185 3.0
    vertex 15.000000000000007 -6.0261395725771925 3.9999999999999996
  endloop
endfacet
facet normal -0.38874660640839476 0.10407951065967788 -0.9154471756834462
  outer loop
    vertex 17.22162940046486 -6.595283803735807 3.0
    vertex 16.99185842870421 -7.150000000000011 3.0
    vertex 15.022637533895924 -6.013069786288603 3.9999999999999996
  endloop
endfacet
facet normal -0.34825636116370523 0.2011640531604219 -0.9155602277431483
  outer loop
    vertex 16.99185842870421 -7.150000000000011 3.0
    vertex 17.22162940046486 -6.595283803735807 3.0
    vertex 17.021603673748086 -7.078188625998985 3.0
  endloop
endfacet
facet normal -0.20116219650639255 0.34810717696880894 -0.9156173677030869
  outer loop
    vertex 16.150000000000006 -7.9918584287042185 3.0
    vertex 15.595283803735802 -8.221629400464867 3.0
    vertex 15.000000000000007 -6.0261395725771925 3.9999999999999996
  endloop
endfacet
facet normal -0.40205075674787216 -0.00015798397120960622 -0.915617367703086
  outer loop
    vertex 17.3 -6.00000000000001 3.0
    vertex 15.022637533895924 -6.013069786288603 3.9999999999999996
    vertex 17.22162940046486 -5.4047161962642125 3.0
  endloop
endfacet
facet normal -0.34833540922852263 -0.20103862186279103 -0.9155577071911455
  outer loop
    vertex 16.99185842870421 -4.850000000000011 3.0
    vertex 15.022637533895924 -6.013069786288603 3.9999999999999996
    vertex 15.022637533895924 -5.9869302137114175 3.9999999999999996
  endloop
endfacet
facet normal -0.35683010768076323 0.08423575064593479 -0.9303636990799086
  outer loop
    vertex 15.022637533895924 -6.013069786288603 3.9999999999999996
    vertex 16.99185842870421 -4.850000000000011 3.0
    vertex 17.22162940046486 -5.4047161962642125 3.0
  endloop
endfacet
facet normal -0.38809154802021933 -0.10415409248678238 -0.9157165911861183
  outer loop
    vertex 17.22162940046486 -5.4047161962642125 3.0
    vertex 16.99185842870421 -4.850000000000011 3.0
    vertex 17.021603673748086 -4.921811374001036 3.0
  endloop
endfacet
facet normal -0.34833540922852263 -0.20103862186279103 -0.9155577071911455
  outer loop
    vertex 16.99185842870421 -4.850000000000011 3.0
    vertex 15.022637533895924 -5.9869302137114175 3.9999999999999996
    vertex 16.626345596729067 -4.373654403270951 3.0
  endloop
endfacet
facet normal -0.28450880344893187 -0.2846246814548205 -0.9154471756834466
  outer loop
    vertex 16.626345596729067 -4.373654403270951 3.0
    vertex 15.022637533895924 -5.9869302137114175 3.9999999999999996
    vertex 16.150000000000006 -4.008141571295802 3.0
  endloop
endfacet
facet normal -0.2008885602414765 -0.3482651609400194 -0.9156173677030864
  outer loop
    vertex 16.150000000000006 -4.008141571295802 3.0
    vertex 15.022637533895924 -5.9869302137114175 3.9999999999999996
    vertex 15.595283803735802 -3.778370599535154 3.0
  endloop
endfacet
facet normal -0.10386751816748739 -0.38816747974201493 -0.9157169575477234
  outer loop
    vertex 15.595283803735802 -3.778370599535154 3.0
    vertex 15.000000000000007 -5.973860427422828 3.9999999999999996
    vertex 15.000000000000007 -3.7000000000000117 3.0
  endloop
endfacet
facet normal 0.10545379686395977 -0.35115094394930607 -0.9303614949526265
  outer loop
    vertex 15.000000000000007 -5.973860427422828 3.9999999999999996
    vertex 15.595283803735802 -3.778370599535154 3.0
    vertex 15.022637533895924 -5.9869302137114175 3.9999999999999996
  endloop
endfacet
facet normal 0.35683010768076245 -0.08423575064591941 -0.9303636990799103
  outer loop
    vertex 14.977362466104111 -5.9869302137114175 3.9999999999999996
    vertex 12.778370599535148 -6.595283803735806 3.0
    vertex 12.700000000000005 -6.00000000000001 3.0
  endloop
endfacet
facet normal 0.3479554838346381 0.2009173983428331 -0.9157287700583346
  outer loop
    vertex 14.977362466104111 -6.013069786288603 3.9999999999999996
    vertex 13.373654403270947 -7.626345596729069 3.0
    vertex 13.008141571295797 -7.150000000000008 3.0
  endloop
endfacet
facet normal 0.2842291392958216 0.28403564923209285 -0.915716957547724
  outer loop
    vertex 13.373654403270947 -7.626345596729069 3.0
    vertex 14.977362466104111 -6.013069786288603 3.9999999999999996
    vertex 15.000000000000007 -6.0261395725771925 3.9999999999999996
  endloop
endfacet
facet normal 0.37461017671024366 -0.15516861579636232 -0.9141060749043084
  outer loop
    vertex 12.978396326251927 -4.921811374001035 3.0
    vertex 14.977362466104111 -5.9869302137114175 3.9999999999999996
    vertex 12.778370599535153 -5.404716196264212 3.0
  endloop
endfacet
facet normal 0.35683010768076245 -0.08423575064591941 -0.9303636990799103
  outer loop
    vertex 14.977362466104111 -5.9869302137114175 3.9999999999999996
    vertex 12.978396326251927 -4.921811374001035 3.0
    vertex 13.008141571295797 -4.850000000000009 3.0
  endloop
endfacet
facet normal 0.35683010768076245 -0.08423575064591941 -0.9303636990799103
  outer loop
    vertex 14.977362466104111 -5.9869302137114175 3.9999999999999996
    vertex 12.700000000000005 -6.00000000000001 3.0
    vertex 12.778370599535153 -5.404716196264212 3.0
  endloop
endfacet
facet normal 0.35683010768076245 -0.08423575064591941 -0.9303636990799103
  outer loop
    vertex 14.977362466104111 -5.9869302137114175 3.9999999999999996
    vertex 12.978396326251927 -7.078188625998985 3.0
    vertex 12.778370599535148 -6.595283803735806 3.0
  endloop
endfacet
facet normal 0.374006977751914 0.15467472887710693 -0.9144367166948585
  outer loop
    vertex 12.978396326251927 -7.078188625998985 3.0
    vertex 14.977362466104111 -5.9869302137114175 3.9999999999999996
    vertex 13.008141571295797 -7.150000000000008 3.0
  endloop
endfacet
facet normal 0.34795547396671134 0.20091741542997316 -0.9157287700588755
  outer loop
    vertex 13.008141571295797 -7.150000000000008 3.0
    vertex 14.977362466104111 -5.9869302137114175 3.9999999999999996
    vertex 14.977362466104111 -6.013069786288603 3.9999999999999996
  endloop
endfacet
facet normal 0.28422913929582133 -0.28403564923209323 -0.915716957547724
  outer loop
    vertex 13.373654403270947 -4.373654403270951 3.0
    vertex 14.977362466104111 -5.9869302137114175 3.9999999999999996
    vertex 13.008141571295797 -4.850000000000009 3.0
  endloop
endfacet
facet normal 0.35683010768076245 -0.08423575064591941 -0.9303636990799103
  outer loop
    vertex 14.977362466104111 -5.9869302137114175 3.9999999999999996
    vertex 13.373654403270947 -4.373654403270951 3.0
    vertex 15.000000000000007 -5.973860427422828 3.9999999999999996
  endloop
endfacet
facet normal 3.219155552433558e-14 0.30126301587787646 -0.9535410821061493
  outer loop
    vertex 15.000000000000007 -6.0261395725771925 3.9999999999999996
    vertex 13.850000000000009 -7.9918584287042185 3.0
    vertex 13.373654403270947 -7.626345596729069 3.0
  endloop
endfacet
facet normal 3.219155552433558e-14 0.30126301587787646 -0.9535410821061493
  outer loop
    vertex 15.000000000000007 -6.0261395725771925 3.9999999999999996
    vertex 14.404716196264213 -8.221629400464867 3.0
    vertex 13.850000000000009 -7.9918584287042185 3.0
  endloop
endfacet
facet normal -0.40205075674787216 -0.00015798397120960622 -0.915617367703086
  outer loop
    vertex 17.3 -6.00000000000001 3.0
    vertex 17.22162940046486 -6.595283803735807 3.0
    vertex 15.022637533895924 -6.013069786288603 3.9999999999999996
  endloop
endfacet
facet normal 0.0 -1.0 0.0
  outer loop
    vertex 30.0 -7.5000000000000115 20.0
    vertex 0.0 -7.5000000000000115 4.5
    vertex 30.0 -7.5000000000000115 4.5
  endloop
endfacet
facet normal 0.0 -1.0 0.0
  outer loop
    vertex 0.0 -7.5000000000000115 4.5
    vertex 30.0 -7.5000000000000115 20.0
    vertex 0.0 -7.5000000000000115 20.0
  endloop
endfacet
facet normal 0.0 1.0 0.0
  outer loop
    vertex 0.0 -4.500000000000013 20.0
    vertex 30.0 -4.500000000000013 4.5
    vertex 0.0 -4.500000000000013 4.5
  endloop
endfacet
facet normal 0.0 1.0 0.0
  outer loop
    vertex 30.0 -4.500000000000013 4.5
    vertex 0.0 -4.500000000000013 20.0
    vertex 30.0 -4.500000000000013 20.0
  endloop
endfacet
facet normal -2.1740761516009746e-18 0.4856429311786318 0.8741572761215379
  outer loop
    vertex 30.0 -4.500000000000013 4.5
    vertex 0.0 -9.86988268891764e-15 1.9999999999999998
    vertex 0.0 -4.500000000000013 4.5
  endloop
endfacet
facet normal -2.1740761516009746e-18 0.4856429311786318 0.8741572761215379
  outer loop
    vertex 0.0 -9.86988268891764e-15 1.9999999999999998
    vertex 30.0 -4.500000000000013 4.5
    vertex 30.0 -9.86988268891764e-15 1.9999999999999998
  endloop
endfacet
facet normal 1.0 0.0 0.0
  outer loop
    vertex 30.0 -9.86988268891764e-15 0.0
    vertex 30.0 -12.000000000000012 1.9999999999999998
    vertex 30.0 -12.000000000000012 0.0
  endloop
endfacet
facet normal 1.0 0.0 0.0
  outer loop
    vertex 30.0 -12.000000000000012 1.9999999999999998
    vertex 30.0 -9.86988268891764e-15 0.0
    vertex 30.0 -7.5000000000000115 4.5
  endloop
endfacet
facet normal 1.0 0.0 0.0
  outer loop
    vertex 30.0 -7.5000000000000115 4.5
    vertex 30.0 -9.86988268891764e-15 0.0
    vertex 30.0 -4.500000000000013 4.5
  endloop
endfacet
facet normal 1.0 0.0 0.0
  outer loop
    vertex 30.0 -7.5000000000000115 4.5
    vertex 30.0 -4.500000000000013 4.5
    vertex 30.0 -7.5000000000000115 20.0
  endloop
endfacet
facet normal 1.0 0.0 0.0
  outer loop
    vertex 30.0 -4.500000000000013 4.5
    vertex 30.0 -9.86988268891764e-15 0.0
    vertex 30.0 -9.86988268891764e-15 1.9999999999999998
  endloop
endfacet
facet normal 1.0 0.0 0.0
  outer loop
    vertex 30.0 -4.500000000000013 20.0
    vertex 30.0 -7.5000000000000115 20.0
    vertex 30.0 -4.500000000000013 4.5
  endloop
endfacet
facet normal -2.1740761516009757e-18 -0.4856429311786321 0.8741572761215377
  outer loop
    vertex 30.0 -12.000000000000012 1.9999999999999998
    vertex 0.0 -7.5000000000000115 4.5
    vertex 0.0 -12.000000000000012 1.9999999999999998
  endloop
endfacet
facet normal -2.1740761516009757e-18 -0.4856429311786321 0.8741572761215377
  outer loop
    vertex 0.0 -7.5000000000000115 4.5
    vertex 30.0 -12.000000000000012 1.9999999999999998
    vertex 30.0 -7.5000000000000115 4.5
  endloop
endfacet
facet normal -1.0 0.0 0.0
  outer loop
    vertex 0.0 -4.500000000000013 20.0
    vertex 0.0 -7.5000000000000115 4.5
    vertex 0.0 -7.5000000000000115 20.0
  endloop
endfacet
facet normal -1.0 0.0 0.0
  outer loop
    vertex 0.0 -7.5000000000000115 4.5
    vertex 0.0 -12.000000000000012 0.0
    vertex 0.0 -12.000000000000012 1.9999999999999998
  endloop
endfacet
facet normal -1.0 0.0 0.0
  outer loop
    vertex 0.0 -12.000000000000012 0.0
    vertex 0.0 -7.5000000000000115 4.5
    vertex 0.0 -9.86988268891764e-15 0.0
  endloop
endfacet
facet normal -1.0 0.0 0.0
  outer loop
    vertex 0.0 -9.86988268891764e-15 0.0
    vertex 0.0 -7.5000000000000115 4.5
    vertex 0.0 -4.500000000000013 4.5
  endloop
endfacet
facet normal -1.0 0.0 0.0
  outer loop
    vertex 0.0 -4.500000000000013 4.5
    vertex 0.0 -7.5000000000000115 4.5
    vertex 0.0 -4.500000000000013 20.0
  endloop
endfacet
facet normal -1.0 0.0 0.0
  outer loop
    vertex 0.0 -9.86988268891764e-15 0.0
    vertex 0.0 -4.500000000000013 4.5
    vertex 0.0 -9.86988268891764e-15 1.9999999999999998
  endloop
endfacet
endsolid walls
