solid walls
facet normal 0.10545379686395977 -0.351150943949306 -0.9303614949526267
  outer loop
    vertex 108.55359846525975 -5.973860427422821 3.9999999999999996
    vertex 107.95831466152397 -3.778370599535147 3.0
    vertex 108.55359846525975 -3.7000000000000046 3.0
  endloop
endfacet
facet normal -0.10423780295946258 0.38870419211449747 -0.915447175683447
  outer loop
    vertex 109.14888226899556 -8.221629400464854 3.0
    vertex 108.55359846525975 -8.299999999999995 3.0
    vertex 108.55359846525975 -6.026139572577179 3.9999999999999996
  endloop
endfacet
facet normal -8.140901252734125e-17 0.40257044659424546 -0.9153890077605858
  outer loop
    vertex 108.55359846525975 -8.299999999999995 3.0
    vertex 107.95831466152397 -8.221629400464854 3.0
    vertex 108.55359846525975 -6.026139572577179 3.9999999999999996
  endloop
endfacet
facet normal 0.10545379686395977 -0.351150943949306 -0.9303614949526267
  outer loop
    vertex 108.55359846525975 -5.973860427422821 3.9999999999999996
    vertex 106.9272528685307 -4.373654403270941 3.0
    vertex 107.40359846525978 -4.008141571295785 3.0
  endloop
endfacet
facet normal 0.10545379686395977 -0.351150943949306 -0.9303614949526267
  outer loop
    vertex 108.55359846525975 -5.973860427422821 3.9999999999999996
    vertex 107.40359846525978 -4.008141571295785 3.0
    vertex 107.95831466152397 -3.778370599535147 3.0
  endloop
endfacet
facet normal 0.0 0.0061004215415616505 0.9999813922553835
  outer loop
    vertex 138.55359846525977 -7.999109787417229 40.02982314712323
    vertex 78.55359846525975 -4.000029449042745 40.00542661731618
    vertex 78.55359846525975 -7.999109787417229 40.02982314712323
  endloop
endfacet
facet normal 0.0 0.0061004215415616505 0.9999813922553835
  outer loop
    vertex 78.55359846525975 -4.000029449042745 40.00542661731618
    vertex 138.55359846525977 -7.999109787417229 40.02982314712323
    vertex 138.55359846525977 -4.000029449042745 40.00542661731618
  endloop
endfacet
facet normal 0.0 0.0 -1.0
  outer loop
    vertex 78.55359846525975 0.0 0.0
    vertex 107.95831466152397 -3.778370599535147 0.0
    vertex 78.55359846525975 -12.0 0.0
  endloop
endfacet
facet normal 0.0 0.0 -1.0
  outer loop
    vertex 107.95831466152397 -3.778370599535147 0.0
    vertex 78.55359846525975 0.0 0.0
    vertex 108.55359846525975 -3.7000000000000046 0.0
  endloop
endfacet
facet normal 0.0 0.0 -1.0
  outer loop
    vertex 108.55359846525975 -3.7000000000000046 0.0
    vertex 78.55359846525975 0.0 0.0
    vertex 138.55359846525977 0.0 0.0
  endloop
endfacet
facet normal 0.0 0.0 -1.0
  outer loop
    vertex 78.55359846525975 -12.0 0.0
    vertex 107.95831466152397 -3.778370599535147 0.0
    vertex 107.40359846525978 -4.008141571295785 0.0
  endloop
endfacet
facet normal 0.0 0.0 -1.0
  outer loop
    vertex 78.55359846525975 -12.0 0.0
    vertex 107.40359846525978 -4.008141571295785 0.0
    vertex 106.9272528685307 -4.373654403270941 0.0
  endloop
endfacet
facet normal 0.0 0.0 -1.0
  outer loop
    vertex 78.55359846525975 -12.0 0.0
    vertex 106.9272528685307 -4.373654403270941 0.0
    vertex 106.56174003655555 -4.850000000000002 0.0
  endloop
endfacet
facet normal 0.0 0.0 -1.0
  outer loop
    vertex 78.55359846525975 -12.0 0.0
    vertex 106.56174003655555 -4.850000000000002 0.0
    vertex 106.33196906479492 -5.404716196264205 0.0
  endloop
endfacet
facet normal 0.0 0.0 -1.0
  outer loop
    vertex 78.55359846525975 -12.0 0.0
    vertex 106.33196906479492 -5.404716196264205 0.0
    vertex 106.25359846525976 -6.0 0.0
  endloop
endfacet
facet normal 0.0 0.0 -1.0
  outer loop
    vertex 106.33196906479492 -5.404716196264205 0.0
    vertex 106.56174003655555 -4.850000000000002 0.0
    vertex 106.53199479151168 -4.921811374001021 0.0
  endloop
endfacet
facet normal 0.0 0.0 -1.0
  outer loop
    vertex 108.55359846525975 -3.7000000000000046 0.0
    vertex 138.55359846525977 0.0 0.0
    vertex 109.14888226899556 -3.778370599535147 0.0
  endloop
endfacet
facet normal 0.0 0.0 -1.0
  outer loop
    vertex 109.14888226899556 -3.778370599535147 0.0
    vertex 138.55359846525977 0.0 0.0
    vertex 109.70359846525977 -4.008141571295797 0.0
  endloop
endfacet
facet normal 0.0 0.0 -1.0
  outer loop
    vertex 109.70359846525977 -4.008141571295797 0.0
    vertex 138.55359846525977 0.0 0.0
    vertex 110.17994406198882 -4.373654403270941 0.0
  endloop
endfacet
facet normal 0.0 0.0 -1.0
  outer loop
    vertex 110.17994406198882 -4.373654403270941 0.0
    vertex 138.55359846525977 0.0 0.0
    vertex 110.54545689396397 -4.850000000000002 0.0
  endloop
endfacet
facet normal 0.0 0.0 -1.0
  outer loop
    vertex 110.54545689396397 -4.850000000000002 0.0
    vertex 138.55359846525977 0.0 0.0
    vertex 110.57520213900784 -4.921811374001021 0.0
  endloop
endfacet
facet normal 0.0 0.0 -1.0
  outer loop
    vertex 110.57520213900784 -4.921811374001021 0.0
    vertex 138.55359846525977 0.0 0.0
    vertex 110.77522786572462 -5.404716196264205 0.0
  endloop
endfacet
facet normal 0.0 0.0 -1.0
  outer loop
    vertex 110.77522786572462 -5.404716196264205 0.0
    vertex 138.55359846525977 0.0 0.0
    vertex 110.85359846525975 -6.0 0.0
  endloop
endfacet
facet normal 0.0 0.0 -1.0
  outer loop
    vertex 78.55359846525975 -12.0 0.0
    vertex 108.55359846525975 -8.299999999999995 0.0
    vertex 138.55359846525977 -12.0 0.0
  endloop
endfacet
facet normal 0.0 0.0 -1.0
  outer loop
    vertex 108.55359846525975 -8.299999999999995 0.0
    vertex 78.55359846525975 -12.0 0.0
    vertex 107.95831466152397 -8.221629400464854 0.0
  endloop
endfacet
facet normal 0.0 0.0 -1.0
  outer loop
    vertex 107.95831466152397 -8.221629400464854 0.0
    vertex 78.55359846525975 -12.0 0.0
    vertex 107.40359846525978 -7.991858428704204 0.0
  endloop
endfacet
facet normal 0.0 0.0 -1.0
  outer loop
    vertex 107.40359846525978 -7.991858428704204 0.0
    vertex 78.55359846525975 -12.0 0.0
    vertex 106.9272528685307 -7.626345596729059 0.0
  endloop
endfacet
facet normal 0.0 0.0 -1.0
  outer loop
    vertex 106.9272528685307 -7.626345596729059 0.0
    vertex 78.55359846525975 -12.0 0.0
    vertex 106.56174003655555 -7.149999999999999 0.0
  endloop
endfacet
facet normal 0.0 0.0 -1.0
  outer loop
    vertex 106.56174003655555 -7.149999999999999 0.0
    vertex 78.55359846525975 -12.0 0.0
    vertex 106.33196906479489 -6.595283803735795 0.0
  endloop
endfacet
facet normal 0.0 0.0 -1.0
  outer loop
    vertex 106.33196906479489 -6.595283803735795 0.0
    vertex 78.55359846525975 -12.0 0.0
    vertex 106.25359846525976 -6.0 0.0
  endloop
endfacet
facet normal 0.0 0.0 -1.0
  outer loop
    vertex 106.56174003655555 -7.149999999999999 0.0
    vertex 106.33196906479489 -6.595283803735795 0.0
    vertex 106.53199479151168 -7.07818862599898 0.0
  endloop
endfacet
facet normal 0.0 0.0 -1.0
  outer loop
    vertex 138.55359846525977 -12.0 0.0
    vertex 108.55359846525975 -8.299999999999995 0.0
    vertex 109.14888226899556 -8.221629400464854 0.0
  endloop
endfacet
facet normal 0.0 0.0 -1.0
  outer loop
    vertex 138.55359846525977 -12.0 0.0
    vertex 109.14888226899556 -8.221629400464854 0.0
    vertex 109.70359846525977 -7.991858428704204 0.0
  endloop
endfacet
facet normal 0.0 0.0 -1.0
  outer loop
    vertex 138.55359846525977 -12.0 0.0
    vertex 109.70359846525977 -7.991858428704204 0.0
    vertex 110.17994406198882 -7.626345596729059 0.0
  endloop
endfacet
facet normal 0.0 0.0 -1.0
  outer loop
    vertex 138.55359846525977 -12.0 0.0
    vertex 110.17994406198882 -7.626345596729059 0.0
    vertex 110.54545689396397 -7.149999999999999 0.0
  endloop
endfacet
facet normal 0.0 0.0 -1.0
  outer loop
    vertex 138.55359846525977 -12.0 0.0
    vertex 110.54545689396397 -7.149999999999999 0.0
    vertex 110.57520213900784 -7.07818862599898 0.0
  endloop
endfacet
facet normal 0.0 0.0 -1.0
  outer loop
    vertex 138.55359846525977 -12.0 0.0
    vertex 110.57520213900784 -7.07818862599898 0.0
    vertex 110.77522786572462 -6.595283803735795 0.0
  endloop
endfacet
facet normal 0.0 0.0 -1.0
  outer loop
    vertex 138.55359846525977 -12.0 0.0
    vertex 110.77522786572462 -6.595283803735795 0.0
    vertex 110.85359846525975 -6.0 0.0
  endloop
endfacet
facet normal 0.0 0.0 -1.0
  outer loop
    vertex 138.55359846525977 -12.0 0.0
    vertex 110.85359846525975 -6.0 0.0
    vertex 138.55359846525977 0.0 0.0
  endloop
endfacet
facet normal 0.0 -1.0 0.0
  outer loop
    vertex 138.55359846525977 -12.0 1.9999999999999998
    vertex 78.55359846525975 -12.0 0.0
    vertex 138.55359846525977 -12.0 0.0
  endloop
endfacet
facet normal 0.0 -1.0 0.0
  outer loop
    vertex 78.55359846525975 -12.0 0.0
    vertex 138.55359846525977 -12.0 1.9999999999999998
    vertex 78.55359846525975 -12.0 1.9999999999999998
  endloop
endfacet
facet normal 0.0 1.0 0.0
  outer loop
    vertex 78.55359846525975 0.0 1.9999999999999998
    vertex 138.55359846525977 0.0 0.0
    vertex 78.55359846525975 0.0 0.0
  endloop
endfacet
facet normal 0.0 1.0 0.0
  outer loop
    vertex 138.55359846525977 0.0 0.0
    vertex 78.55359846525975 0.0 1.9999999999999998
    vertex 138.55359846525977 0.0 1.9999999999999998
  endloop
endfacet
facet normal -0.3568301076807632 0.08423575064593443 -0.9303636990799088
  outer loop
    vertex 108.57623599915567 -6.01306978628859 3.9999999999999996
    vertex 110.17994406198882 -7.626345596729059 3.0
    vertex 108.55359846525975 -6.026139572577179 3.9999999999999996
  endloop
endfacet
facet normal -0.2842291392958225 0.2840356492320925 -0.9157169575477238
  outer loop
    vertex 110.17994406198882 -7.626345596729059 3.0
    vertex 108.57623599915567 -6.01306978628859 3.9999999999999996
    vertex 110.54545689396397 -7.149999999999999 3.0
  endloop
endfacet
facet normal 0.9659258262890679 -0.2588190451025227 0.0
  outer loop
    vertex 106.33196906479492 -5.404716196264205 0.0
    vertex 106.25359846525976 -6.0 3.0
    vertex 106.25359846525976 -6.0 0.0
  endloop
endfacet
facet normal 1.0 -4.3486216290756914e-15 0.0
  outer loop
    vertex 106.25359846525976 -6.0 3.0
    vertex 106.33196906479492 -5.404716196264205 0.0
    vertex 106.33196906479492 -5.404716196264205 3.0
  endloop
endfacet
facet normal 1.0 -4.3486216290756914e-15 0.0
  outer loop
    vertex 106.25359846525976 -6.0 0.0
    vertex 106.33196906479489 -6.595283803735795 3.0
    vertex 106.33196906479489 -6.595283803735795 0.0
  endloop
endfacet
facet normal 0.9659258262890679 0.25881904510252224 0.0
  outer loop
    vertex 106.33196906479489 -6.595283803735795 3.0
    vertex 106.25359846525976 -6.0 0.0
    vertex 106.25359846525976 -6.0 3.0
  endloop
endfacet
facet normal 0.9659258262890679 0.25881904510252224 0.0
  outer loop
    vertex 106.33196906479489 -6.595283803735795 0.0
    vertex 106.53199479151168 -7.07818862599898 3.0
    vertex 106.53199479151168 -7.07818862599898 0.0
  endloop
endfacet
facet normal 0.9238795325112854 0.38268343236509295 0.0
  outer loop
    vertex 106.53199479151168 -7.07818862599898 3.0
    vertex 106.33196906479489 -6.595283803735795 0.0
    vertex 106.33196906479489 -6.595283803735795 3.0
  endloop
endfacet
facet normal 0.9238795325112894 0.3826834323650835 0.0
  outer loop
    vertex 106.53199479151168 -7.07818862599898 0.0
    vertex 106.56174003655555 -7.149999999999999 3.0
    vertex 106.56174003655555 -7.149999999999999 0.0
  endloop
endfacet
facet normal 0.8660254037844405 0.4999999999999969 0.0
  outer loop
    vertex 106.56174003655555 -7.149999999999999 3.0
    vertex 106.53199479151168 -7.07818862599898 0.0
    vertex 106.53199479151168 -7.07818862599898 3.0
  endloop
endfacet
facet normal 0.8660254037844405 0.4999999999999969 0.0
  outer loop
    vertex 106.56174003655555 -7.149999999999999 0.0
    vertex 106.9272528685307 -7.626345596729059 3.0
    vertex 106.9272528685307 -7.626345596729059 0.0
  endloop
endfacet
facet normal 0.707106781186547 0.7071067811865482 0.0
  outer loop
    vertex 106.9272528685307 -7.626345596729059 3.0
    vertex 106.56174003655555 -7.149999999999999 0.0
    vertex 106.56174003655555 -7.149999999999999 3.0
  endloop
endfacet
facet normal 0.707106781186547 0.7071067811865482 0.0
  outer loop
    vertex 106.9272528685307 -7.626345596729059 3.0
    vertex 107.40359846525978 -7.991858428704204 0.0
    vertex 106.9272528685307 -7.626345596729059 0.0
  endloop
endfacet
facet normal 0.49999999999999867 0.8660254037844394 0.0
  outer loop
    vertex 107.40359846525978 -7.991858428704204 0.0
    vertex 106.9272528685307 -7.626345596729059 3.0
    vertex 107.40359846525978 -7.991858428704204 3.0
  endloop
endfacet
facet normal 0.49999999999999867 0.8660254037844394 0.0
  outer loop
    vertex 107.40359846525978 -7.991858428704204 3.0
    vertex 107.95831466152397 -8.221629400464854 0.0
    vertex 107.40359846525978 -7.991858428704204 0.0
  endloop
endfacet
facet normal 0.25881904510252135 0.965925826289068 0.0
  outer loop
    vertex 107.95831466152397 -8.221629400464854 0.0
    vertex 107.40359846525978 -7.991858428704204 3.0
    vertex 107.95831466152397 -8.221629400464854 3.0
  endloop
endfacet
facet normal 0.25881904510252135 0.965925826289068 0.0
  outer loop
    vertex 107.95831466152397 -8.221629400464854 3.0
    vertex 108.55359846525975 -8.299999999999995 0.0
    vertex 107.95831466152397 -8.221629400464854 0.0
  endloop
endfacet
facet normal 0.0 1.0 0.0
  outer loop
    vertex 108.55359846525975 -8.299999999999995 0.0
    vertex 107.95831466152397 -8.221629400464854 3.0
    vertex 108.55359846525975 -8.299999999999995 3.0
  endloop
endfacet
facet normal 0.0 1.0 0.0
  outer loop
    vertex 108.55359846525975 -8.299999999999995 3.0
    vertex 109.14888226899556 -8.221629400464854 0.0
    vertex 108.55359846525975 -8.299999999999995 0.0
  endloop
endfacet
facet normal -0.25881904510252135 0.965925826289068 0.0
  outer loop
    vertex 109.14888226899556 -8.221629400464854 0.0
    vertex 108.55359846525975 -8.299999999999995 3.0
    vertex 109.14888226899556 -8.221629400464854 3.0
  endloop
endfacet
facet normal -0.25881904510252135 0.965925826289068 0.0
  outer loop
    vertex 109.14888226899556 -8.221629400464854 3.0
    vertex 109.70359846525977 -7.991858428704204 0.0
    vertex 109.14888226899556 -8.221629400464854 0.0
  endloop
endfacet
facet normal -0.49999999999999867 0.8660254037844394 0.0
  outer loop
    vertex 109.70359846525977 -7.991858428704204 0.0
    vertex 109.14888226899556 -8.221629400464854 3.0
    vertex 109.70359846525977 -7.991858428704204 3.0
  endloop
endfacet
facet normal -0.49999999999999867 0.8660254037844394 0.0
  outer loop
    vertex 109.70359846525977 -7.991858428704204 3.0
    vertex 110.17994406198882 -7.626345596729059 0.0
    vertex 109.70359846525977 -7.991858428704204 0.0
  endloop
endfacet
facet normal -0.7071067811865486 0.7071067811865466 0.0
  outer loop
    vertex 110.17994406198882 -7.626345596729059 0.0
    vertex 109.70359846525977 -7.991858428704204 3.0
    vertex 110.17994406198882 -7.626345596729059 3.0
  endloop
endfacet
facet normal -0.8660254037844282 0.500000000000018 0.0
  outer loop
    vertex 110.54545689396397 -7.149999999999999 3.0
    vertex 110.17994406198882 -7.626345596729059 0.0
    vertex 110.17994406198882 -7.626345596729059 3.0
  endloop
endfacet
facet normal -0.7071067811865486 0.7071067811865466 0.0
  outer loop
    vertex 110.17994406198882 -7.626345596729059 0.0
    vertex 110.54545689396397 -7.149999999999999 3.0
    vertex 110.54545689396397 -7.149999999999999 0.0
  endloop
endfacet
facet normal -0.9238795325112691 0.3826834323651326 0.0
  outer loop
    vertex 110.57520213900784 -7.07818862599898 3.0
    vertex 110.54545689396397 -7.149999999999999 0.0
    vertex 110.54545689396397 -7.149999999999999 3.0
  endloop
endfacet
facet normal -0.8660254037844282 0.500000000000018 0.0
  outer loop
    vertex 110.54545689396397 -7.149999999999999 0.0
    vertex 110.57520213900784 -7.07818862599898 3.0
    vertex 110.57520213900784 -7.07818862599898 0.0
  endloop
endfacet
facet normal -0.9659258262890691 0.25881904510251774 0.0
  outer loop
    vertex 110.77522786572462 -6.595283803735795 3.0
    vertex 110.57520213900784 -7.07818862599898 0.0
    vertex 110.57520213900784 -7.07818862599898 3.0
  endloop
endfacet
facet normal -0.9238795325112888 0.3826834323650846 0.0
  outer loop
    vertex 110.57520213900784 -7.07818862599898 0.0
    vertex 110.77522786572462 -6.595283803735795 3.0
    vertex 110.77522786572462 -6.595283803735795 0.0
  endloop
endfacet
facet normal -1.0 0.0 0.0
  outer loop
    vertex 110.85359846525975 -6.0 3.0
    vertex 110.77522786572462 -6.595283803735795 0.0
    vertex 110.77522786572462 -6.595283803735795 3.0
  endloop
endfacet
facet normal -0.9659258262890691 0.25881904510251774 0.0
  outer loop
    vertex 110.77522786572462 -6.595283803735795 0.0
    vertex 110.85359846525975 -6.0 3.0
    vertex 110.85359846525975 -6.0 0.0
  endloop
endfacet
facet normal -0.965925826289069 -0.2588190451025183 0.0
  outer loop
    vertex 110.77522786572462 -5.404716196264205 3.0
    vertex 110.85359846525975 -6.0 0.0
    vertex 110.85359846525975 -6.0 3.0
  endloop
endfacet
facet normal -1.0 0.0 0.0
  outer loop
    vertex 110.85359846525975 -6.0 0.0
    vertex 110.77522786572462 -5.404716196264205 3.0
    vertex 110.77522786572462 -5.404716196264205 0.0
  endloop
endfacet
facet normal -0.9238795325112886 -0.3826834323650857 0.0
  outer loop
    vertex 110.57520213900784 -4.921811374001021 3.0
    vertex 110.77522786572462 -5.404716196264205 0.0
    vertex 110.77522786572462 -5.404716196264205 3.0
  endloop
endfacet
facet normal -0.965925826289069 -0.2588190451025183 0.0
  outer loop
    vertex 110.77522786572462 -5.404716196264205 0.0
    vertex 110.57520213900784 -4.921811374001021 3.0
    vertex 110.57520213900784 -4.921811374001021 0.0
  endloop
endfacet
facet normal -0.8660254037844287 -0.5000000000000173 0.0
  outer loop
    vertex 110.54545689396397 -4.850000000000002 3.0
    vertex 110.57520213900784 -4.921811374001021 0.0
    vertex 110.57520213900784 -4.921811374001021 3.0
  endloop
endfacet
facet normal -0.9238795325112691 -0.3826834323651327 0.0
  outer loop
    vertex 110.57520213900784 -4.921811374001021 0.0
    vertex 110.54545689396397 -4.850000000000002 3.0
    vertex 110.54545689396397 -4.850000000000002 0.0
  endloop
endfacet
facet normal -0.707106781186549 -0.707106781186546 0.0
  outer loop
    vertex 110.17994406198882 -4.373654403270941 3.0
    vertex 110.54545689396397 -4.850000000000002 0.0
    vertex 110.54545689396397 -4.850000000000002 3.0
  endloop
endfacet
facet normal -0.8660254037844287 -0.5000000000000173 0.0
  outer loop
    vertex 110.54545689396397 -4.850000000000002 0.0
    vertex 110.17994406198882 -4.373654403270941 3.0
    vertex 110.17994406198882 -4.373654403270941 0.0
  endloop
endfacet
facet normal -0.707106781186549 -0.707106781186546 0.0
  outer loop
    vertex 110.17994406198882 -4.373654403270941 3.0
    vertex 109.70359846525977 -4.008141571295797 0.0
    vertex 110.17994406198882 -4.373654403270941 0.0
  endloop
endfacet
facet normal -0.49999999999999867 -0.8660254037844394 0.0
  outer loop
    vertex 109.70359846525977 -4.008141571295797 0.0
    vertex 110.17994406198882 -4.373654403270941 3.0
    vertex 109.70359846525977 -4.008141571295797 3.0
  endloop
endfacet
facet normal -0.49999999999999867 -0.8660254037844394 0.0
  outer loop
    vertex 109.70359846525977 -4.008141571295797 3.0
    vertex 109.14888226899556 -3.778370599535147 0.0
    vertex 109.70359846525977 -4.008141571295797 0.0
  endloop
endfacet
facet normal -0.25881904510252024 -0.9659258262890684 0.0
  outer loop
    vertex 109.14888226899556 -3.778370599535147 0.0
    vertex 109.70359846525977 -4.008141571295797 3.0
    vertex 109.14888226899556 -3.778370599535147 3.0
  endloop
endfacet
facet normal -0.25881904510252024 -0.9659258262890684 0.0
  outer loop
    vertex 109.14888226899556 -3.778370599535147 3.0
    vertex 108.55359846525975 -3.7000000000000046 0.0
    vertex 109.14888226899556 -3.778370599535147 0.0
  endloop
endfacet
facet normal 0.0 -1.0 0.0
  outer loop
    vertex 108.55359846525975 -3.7000000000000046 0.0
    vertex 109.14888226899556 -3.778370599535147 3.0
    vertex 108.55359846525975 -3.7000000000000046 3.0
  endloop
endfacet
facet normal 0.0 -1.0 0.0
  outer loop
    vertex 108.55359846525975 -3.7000000000000046 3.0
    vertex 107.95831466152397 -3.778370599535147 0.0
    vertex 108.55359846525975 -3.7000000000000046 0.0
  endloop
endfacet
facet normal 0.25881904510251924 -0.9659258262890686 0.0
  outer loop
    vertex 107.95831466152397 -3.778370599535147 0.0
    vertex 108.55359846525975 -3.7000000000000046 3.0
    vertex 107.95831466152397 -3.778370599535147 3.0
  endloop
endfacet
facet normal 0.25881904510251924 -0.9659258262890686 0.0
  outer loop
    vertex 107.95831466152397 -3.778370599535147 3.0
    vertex 107.40359846525978 -4.008141571295785 0.0
    vertex 107.95831466152397 -3.778370599535147 0.0
  endloop
endfacet
facet normal 0.4999999999999986 -0.8660254037844395 0.0
  outer loop
    vertex 107.40359846525978 -4.008141571295785 0.0
    vertex 107.95831466152397 -3.778370599535147 3.0
    vertex 107.40359846525978 -4.008141571295785 3.0
  endloop
endfacet
facet normal 0.4999999999999986 -0.8660254037844395 0.0
  outer loop
    vertex 107.40359846525978 -4.008141571295785 3.0
    vertex 106.9272528685307 -4.373654403270941 0.0
    vertex 107.40359846525978 -4.008141571295785 0.0
  endloop
endfacet
facet normal 0.7071067811865465 -0.7071067811865487 0.0
  outer loop
    vertex 106.9272528685307 -4.373654403270941 0.0
    vertex 107.40359846525978 -4.008141571295785 3.0
    vertex 106.9272528685307 -4.373654403270941 3.0
  endloop
endfacet
facet normal 0.7071067811865465 -0.7071067811865487 0.0
  outer loop
    vertex 106.9272528685307 -4.373654403270941 0.0
    vertex 106.56174003655555 -4.850000000000002 3.0
    vertex 106.56174003655555 -4.850000000000002 0.0
  endloop
endfacet
facet normal 0.8660254037844433 -0.4999999999999922 0.0
  outer loop
    vertex 106.56174003655555 -4.850000000000002 3.0
    vertex 106.9272528685307 -4.373654403270941 0.0
    vertex 106.9272528685307 -4.373654403270941 3.0
  endloop
endfacet
facet normal 0.8660254037844433 -0.4999999999999922 0.0
  outer loop
    vertex 106.56174003655555 -4.850000000000002 0.0
    vertex 106.53199479151168 -4.921811374001021 3.0
    vertex 106.53199479151168 -4.921811374001021 0.0
  endloop
endfacet
facet normal 0.9238795325112946 -0.3826834323650707 0.0
  outer loop
    vertex 106.53199479151168 -4.921811374001021 3.0
    vertex 106.56174003655555 -4.850000000000002 0.0
    vertex 106.56174003655555 -4.850000000000002 3.0
  endloop
endfacet
facet normal 0.9238795325112886 -0.3826834323650857 0.0
  outer loop
    vertex 106.53199479151168 -4.921811374001021 0.0
    vertex 106.33196906479492 -5.404716196264205 3.0
    vertex 106.33196906479492 -5.404716196264205 0.0
  endloop
endfacet
facet normal 0.9659258262890679 -0.2588190451025227 0.0
  outer loop
    vertex 106.33196906479492 -5.404716196264205 3.0
    vertex 106.53199479151168 -4.921811374001021 0.0
    vertex 106.53199479151168 -4.921811374001021 3.0
  endloop
endfacet
facet normal -0.2842291392958225 0.2840356492320925 -0.9157169575477238
  outer loop
    vertex 110.17994406198882 -7.626345596729059 3.0
    vertex 109.70359846525977 -7.991858428704204 3.0
    vertex 108.55359846525975 -6.026139572577179 3.9999999999999996
  endloop
endfacet
facet normal -0.3568301076807632 0.08423575064593443 -0.9303636990799088
  outer loop
    vertex 108.57623599915567 -6.01306978628859 3.9999999999999996
    vertex 110.57520213900784 -7.07818862599898 3.0
    vertex 110.54545689396397 -7.149999999999999 3.0
  endloop
endfacet
facet normal -0.3746101767102463 0.15516861579636487 -0.914106074904307
  outer loop
    vertex 110.57520213900784 -7.07818862599898 3.0
    vertex 108.57623599915567 -6.01306978628859 3.9999999999999996
    vertex 110.77522786572462 -6.595283803735795 3.0
  endloop
endfacet
facet normal -0.2011621965063924 0.348107176968809 -0.915617367703087
  outer loop
    vertex 109.70359846525977 -7.991858428704204 3.0
    vertex 109.14888226899556 -8.221629400464854 3.0
    vertex 108.55359846525975 -6.026139572577179 3.9999999999999996
  endloop
endfacet
facet normal -0.4020507567478722 -0.0001579839712095613 -0.915617367703086
  outer loop
    vertex 110.85359846525975 -6.0 3.0
    vertex 108.57623599915567 -6.01306978628859 3.9999999999999996
    vertex 110.77522786572462 -5.404716196264205 3.0
  endloop
endfacet
facet normal -0.3483354092285218 -0.20103862186279217 -0.9155577071911455
  outer loop
    vertex 110.54545689396397 -4.850000000000002 3.0
    vertex 108.57623599915567 -6.01306978628859 3.9999999999999996
    vertex 108.57623599915567 -5.98693021371141 3.9999999999999996
  endloop
endfacet
facet normal -0.3568301076807632 0.08423575064593443 -0.9303636990799088
  outer loop
    vertex 108.57623599915567 -6.01306978628859 3.9999999999999996
    vertex 110.54545689396397 -4.850000000000002 3.0
    vertex 110.57520213900784 -4.921811374001021 3.0
  endloop
endfacet
facet normal -0.3568301076807632 0.08423575064593443 -0.9303636990799088
  outer loop
    vertex 108.57623599915567 -6.01306978628859 3.9999999999999996
    vertex 110.57520213900784 -4.921811374001021 3.0
    vertex 110.77522786572462 -5.404716196264205 3.0
  endloop
endfacet
facet normal -0.3483354092285218 -0.20103862186279217 -0.9155577071911455
  outer loop
    vertex 110.54545689396397 -4.850000000000002 3.0
    vertex 108.57623599915567 -5.98693021371141 3.9999999999999996
    vertex 110.17994406198882 -4.373654403270941 3.0
  endloop
endfacet
facet normal -0.2845088034489319 -0.2846246814548203 -0.9154471756834465
  outer loop
    vertex 110.17994406198882 -4.373654403270941 3.0
    vertex 108.57623599915567 -5.98693021371141 3.9999999999999996
    vertex 109.70359846525977 -4.008141571295797 3.0
  endloop
endfacet
facet normal -0.2008885602414765 -0.34826516094001936 -0.9156173677030864
  outer loop
    vertex 109.70359846525977 -4.008141571295797 3.0
    vertex 108.57623599915567 -5.98693021371141 3.9999999999999996
    vertex 109.14888226899556 -3.778370599535147 3.0
  endloop
endfacet
facet normal -0.10386751816748761 -0.3881674797420148 -0.9157169575477234
  outer loop
    vertex 109.14888226899556 -3.778370599535147 3.0
    vertex 108.55359846525975 -5.973860427422821 3.9999999999999996
    vertex 108.55359846525975 -3.7000000000000046 3.0
  endloop
endfacet
facet normal 0.10545379686395977 -0.351150943949306 -0.9303614949526267
  outer loop
    vertex 108.55359846525975 -5.973860427422821 3.9999999999999996
    vertex 109.14888226899556 -3.778370599535147 3.0
    vertex 108.57623599915567 -5.98693021371141 3.9999999999999996
  endloop
endfacet
facet normal 0.3568301076807625 -0.08423575064591987 -0.9303636990799102
  outer loop
    vertex 108.53096093136386 -5.98693021371141 3.9999999999999996
    vertex 106.33196906479489 -6.595283803735795 3.0
    vertex 106.25359846525976 -6.0 3.0
  endloop
endfacet
facet normal 0.3479554838346382 0.2009173983428328 -0.9157287700583345
  outer loop
    vertex 108.53096093136386 -6.01306978628859 3.9999999999999996
    vertex 106.9272528685307 -7.626345596729059 3.0
    vertex 106.56174003655555 -7.149999999999999 3.0
  endloop
endfacet
facet normal 0.28422913929582116 0.28403564923209296 -0.9157169575477239
  outer loop
    vertex 106.9272528685307 -7.626345596729059 3.0
    vertex 108.53096093136386 -6.01306978628859 3.9999999999999996
    vertex 108.55359846525975 -6.026139572577179 3.9999999999999996
  endloop
endfacet
facet normal 0.37461017671024355 -0.15516861579636257 -0.9141060749043084
  outer loop
    vertex 106.53199479151168 -4.921811374001021 3.0
    vertex 108.53096093136386 -5.98693021371141 3.9999999999999996
    vertex 106.33196906479492 -5.404716196264205 3.0
  endloop
endfacet
facet normal 0.3568301076807625 -0.08423575064591987 -0.9303636990799102
  outer loop
    vertex 108.53096093136386 -5.98693021371141 3.9999999999999996
    vertex 106.53199479151168 -4.921811374001021 3.0
    vertex 106.56174003655555 -4.850000000000002 3.0
  endloop
endfacet
facet normal 0.3568301076807625 -0.08423575064591987 -0.9303636990799102
  outer loop
    vertex 108.53096093136386 -5.98693021371141 3.9999999999999996
    vertex 106.25359846525976 -6.0 3.0
    vertex 106.33196906479492 -5.404716196264205 3.0
  endloop
endfacet
facet normal 0.3568301076807625 -0.08423575064591987 -0.9303636990799102
  outer loop
    vertex 108.53096093136386 -5.98693021371141 3.9999999999999996
    vertex 106.53199479151168 -7.07818862599898 3.0
    vertex 106.33196906479489 -6.595283803735795 3.0
  endloop
endfacet
facet normal 0.3740069777519147 0.1546747288771059 -0.9144367166948583
  outer loop
    vertex 106.53199479151168 -7.07818862599898 3.0
    vertex 108.53096093136386 -5.98693021371141 3.9999999999999996
    vertex 106.56174003655555 -7.149999999999999 3.0
  endloop
endfacet
facet normal 0.3479554739667112 0.20091741542997343 -0.9157287700588755
  outer loop
    vertex 106.56174003655555 -7.149999999999999 3.0
    vertex 108.53096093136386 -5.98693021371141 3.9999999999999996
    vertex 108.53096093136386 -6.01306978628859 3.9999999999999996
  endloop
endfacet
facet normal 0.2842291392958213 -0.2840356492320932 -0.9157169575477239
  outer loop
    vertex 106.9272528685307 -4.373654403270941 3.0
    vertex 108.53096093136386 -5.98693021371141 3.9999999999999996
    vertex 106.56174003655555 -4.850000000000002 3.0
  endloop
endfacet
facet normal 0.3568301076807625 -0.08423575064591987 -0.9303636990799102
  outer loop
    vertex 108.53096093136386 -5.98693021371141 3.9999999999999996
    vertex 106.9272528685307 -4.373654403270941 3.0
    vertex 108.55359846525975 -5.973860427422821 3.9999999999999996
  endloop
endfacet
facet normal 3.238948340195557e-14 0.30126301587787635 -0.9535410821061494
  outer loop
    vertex 108.55359846525975 -6.026139572577179 3.9999999999999996
    vertex 107.40359846525978 -7.991858428704204 3.0
    vertex 106.9272528685307 -7.626345596729059 3.0
  endloop
endfacet
facet normal 3.238948340195557e-14 0.30126301587787635 -0.9535410821061494
  outer loop
    vertex 108.55359846525975 -6.026139572577179 3.9999999999999996
    vertex 107.95831466152397 -8.221629400464854 3.0
    vertex 107.40359846525978 -7.991858428704204 3.0
  endloop
endfacet
facet normal -0.4020507567478722 -0.0001579839712095613 -0.915617367703086
  outer loop
    vertex 110.85359846525975 -6.0 3.0
    vertex 110.77522786572462 -6.595283803735795 3.0
    vertex 108.57623599915567 -6.01306978628859 3.9999999999999996
  endloop
endfacet
facet normal 1.0 0.0 0.0
  outer loop
    vertex 138.55359846525977 0.0 0.0
    vertex 138.55359846525977 -12.0 1.9999999999999998
    vertex 138.55359846525977 -12.0 0.0
  endloop
endfacet
facet normal 1.0 0.0 0.0
  outer loop
    vertex 138.55359846525977 -12.0 1.9999999999999998
    vertex 138.55359846525977 0.0 0.0
    vertex 138.55359846525977 -7.999109787417229 4.529823147123221
  endloop
endfacet
facet normal 1.0 0.0 0.0
  outer loop
    vertex 138.55359846525977 -7.999109787417229 4.529823147123221
    vertex 138.55359846525977 0.0 0.0
    vertex 138.55359846525977 -4.000029449042745 4.505426617316192
  endloop
endfacet
facet normal 1.0 0.0 0.0
  outer loop
    vertex 138.55359846525977 -7.999109787417229 4.529823147123221
    vertex 138.55359846525977 -4.000029449042745 4.505426617316192
    vertex 138.55359846525977 -7.999109787417229 40.02982314712323
  endloop
endfacet
facet normal 1.0 0.0 0.0
  outer loop
    vertex 138.55359846525977 -4.000029449042745 4.505426617316192
    vertex 138.55359846525977 0.0 0.0
    vertex 138.55359846525977 0.0 1.9999999999999998
  endloop
endfacet
facet normal 1.0 0.0 0.0
  outer loop
    vertex 138.55359846525977 -4.000029449042745 40.00542661731618
    vertex 138.55359846525977 -7.999109787417229 40.02982314712323
    vertex 138.55359846525977 -4.000029449042745 4.505426617316192
  endloop
endfacet
facet normal 0.0 -0.5344376772254161 0.8452078851749445
  outer loop
    vertex 138.55359846525977 -12.0 1.9999999999999998
    vertex 78.55359846525975 -7.999109787417229 4.529823147123221
    vertex 78.55359846525975 -12.0 1.9999999999999998
  endloop
endfacet
facet normal 0.0 -0.5344376772254161 0.8452078851749445
  outer loop
    vertex 78.55359846525975 -7.999109787417229 4.529823147123221
    vertex 138.55359846525977 -12.0 1.9999999999999998
    vertex 138.55359846525977 -7.999109787417229 4.529823147123221
  endloop
endfacet
facet normal 0.0 -1.0 0.0
  outer loop
    vertex 138.55359846525977 -7.999109787417229 40.02982314712323
    vertex 78.55359846525975 -7.999109787417229 4.529823147123221
    vertex 138.55359846525977 -7.999109787417229 4.529823147123221
  endloop
endfacet
facet normal 0.0 -1.0 0.0
  outer loop
    vertex 78.55359846525975 -7.999109787417229 4.529823147123221
    vertex 138.55359846525977 -7.999109787417229 40.02982314712323
    vertex 78.55359846525975 -7.999109787417229 40.02982314712323
  endloop
endfacet
facet normal -1.0 0.0 0.0
  outer loop
    vertex 78.55359846525975 -4.000029449042745 40.00542661731618
    vertex 78.55359846525975 -7.999109787417229 4.529823147123221
    vertex 78.55359846525975 -7.999109787417229 40.02982314712323
  endloop
endfacet
facet normal -1.0 0.0 0.0
  outer loop
    vertex 78.55359846525975 -7.999109787417229 4.529823147123221
    vertex 78.55359846525975 -12.0 0.0
    vertex 78.55359846525975 -12.0 1.9999999999999998
  endloop
endfacet
facet normal -1.0 0.0 0.0
  outer loop
    vertex 78.55359846525975 -12.0 0.0
    vertex 78.55359846525975 -7.999109787417229 4.529823147123221
    vertex 78.55359846525975 0.0 0.0
  endloop
endfacet
facet normal -1.0 0.0 0.0
  outer loop
    vertex 78.55359846525975 0.0 0.0
    vertex 78.55359846525975 -7.999109787417229 4.529823147123221
    vertex 78.55359846525975 -4.000029449042745 4.505426617316192
  endloop
endfacet
facet normal -1.0 0.0 0.0
  outer loop
    vertex 78.55359846525975 -4.000029449042745 4.505426617316192
    vertex 78.55359846525975 -7.999109787417229 4.529823147123221
    vertex 78.55359846525975 -4.000029449042745 40.00542661731618
  endloop
endfacet
facet normal -1.0 0.0 0.0
  outer loop
    vertex 78.55359846525975 0.0 0.0
    vertex 78.55359846525975 -4.000029449042745 4.505426617316192
    vertex 78.55359846525975 0.0 1.9999999999999998
  endloop
endfacet
facet normal 0.0 0.5308226598369291 0.8474829224259611
  outer loop
    vertex 138.55359846525977 -4.000029449042745 4.505426617316192
    vertex 78.55359846525975 0.0 1.9999999999999998
    vertex 78.55359846525975 -4.000029449042745 4.505426617316192
  endloop
endfacet
facet normal 0.0 0.5308226598369291 0.8474829224259611
  outer loop
    vertex 78.55359846525975 0.0 1.9999999999999998
    vertex 138.55359846525977 -4.000029449042745 4.505426617316192
    vertex 138.55359846525977 0.0 1.9999999999999998
  endloop
endfacet
facet normal 0.0 1.0 0.0
  outer loop
    vertex 78.55359846525975 -4.000029449042745 40.00542661731618
    vertex 138.55359846525977 -4.000029449042745 4.505426617316192
    vertex 78.55359846525975 -4.000029449042745 4.505426617316192
  endloop
endfacet
facet normal 0.0 1.0 0.0
  outer loop
    vertex 138.55359846525977 -4.000029449042745 4.505426617316192
    vertex 78.55359846525975 -4.000029449042745 40.00542661731618
    vertex 138.55359846525977 -4.000029449042745 40.00542661731618
  endloop
endfacet
endsolid walls
